


<svg width="0" height="0" class="hidden">
  <symbol width="36" height="36" viewBox="0 0 36 36" id='smile' fill="none" xmlns="http://www.w3.org/2000/svg">
<path fill-rule="evenodd" clip-rule="evenodd" d="M18 34C26.8366 34 34 26.8366 34 18C34 9.16344 26.8366 2 18 2C9.16344 2 2 9.16344 2 18C2 26.8366 9.16344 34 18 34ZM18 36C27.9411 36 36 27.9411 36 18C36 8.05887 27.9411 0 18 0C8.05887 0 0 8.05887 0 18C0 27.9411 8.05887 36 18 36Z" fill="#262626"/>
<path d="M14.9575 13.7629C14.9575 14.5683 14.3046 15.2212 13.4993 15.2212C12.6939 15.2212 12.041 14.5683 12.041 13.7629C12.041 12.9576 12.6939 12.3047 13.4993 12.3047C14.3046 12.3047 14.9575 12.9576 14.9575 13.7629Z" fill="#262626"/>
<path d="M24.1113 13.7629C24.1113 14.5683 23.4584 15.2212 22.6531 15.2212C21.8477 15.2212 21.1948 14.5683 21.1948 13.7629C21.1948 12.9576 21.8477 12.3047 22.6531 12.3047C23.4584 12.3047 24.1113 12.9576 24.1113 13.7629Z" fill="#262626"/>
<path fill-rule="evenodd" clip-rule="evenodd" d="M13.7758 7.66562C13.9854 8.02287 13.8657 8.48242 13.5085 8.69204L9.87858 10.8219C9.52133 11.0316 9.06178 10.9119 8.85216 10.5546C8.64253 10.1974 8.76221 9.73782 9.11947 9.52819L12.7493 7.39831C13.1066 7.18869 13.5661 7.30837 13.7758 7.66562ZM22.2943 7.78875C22.4361 7.39955 22.8665 7.19896 23.2557 7.34073L27.036 8.71768C27.4252 8.85944 27.6258 9.28987 27.484 9.67907C27.3423 10.0683 26.9118 10.2689 26.5226 10.1271L22.7423 8.75014C22.3531 8.60838 22.1526 8.17795 22.2943 7.78875ZM25.5607 20.6717C25.8979 20.9124 25.9761 21.3808 25.7354 21.7179L25.125 21.2822C25.7354 21.7179 25.7354 21.7179 25.7354 21.7179L25.7335 21.7205L25.7306 21.7246L25.7216 21.7369C25.7142 21.747 25.7041 21.7607 25.6911 21.7779C25.6653 21.8121 25.6284 21.8601 25.5807 21.9197C25.4854 22.0389 25.3465 22.2052 25.1656 22.4029C24.8044 22.7977 24.2722 23.3216 23.5817 23.8459C22.2038 24.8919 20.1598 25.9648 17.5721 25.9648C15.2535 25.9648 13.4322 25.0953 12.202 24.2391C11.5864 23.8107 11.1131 23.3819 10.7915 23.0576C10.6304 22.8952 10.5066 22.7582 10.4212 22.6595C10.3785 22.6101 10.3453 22.5702 10.3219 22.5413C10.3101 22.5269 10.3008 22.5153 10.2939 22.5066L10.2854 22.4957L10.2825 22.492L10.2814 22.4906L10.2806 22.4895C10.028 22.1612 10.0894 21.6903 10.4177 21.4377C10.7454 21.1856 11.2154 21.2463 11.4682 21.5733L11.469 21.5743L11.4704 21.576L11.4852 21.5945C11.4997 21.6123 11.5233 21.6407 11.5558 21.6783C11.6209 21.7536 11.7216 21.8653 11.8565 22.0013C12.1268 22.2738 12.5312 22.6407 13.0589 23.0079C14.1151 23.7431 15.6424 24.4648 17.5721 24.4648C19.73 24.4648 21.4625 23.5714 22.6746 22.6511C23.2792 22.1922 23.7454 21.733 24.0589 21.3904C24.2153 21.2194 24.3327 21.0785 24.4095 20.9826C24.4478 20.9347 24.4759 20.8981 24.4935 20.8748L24.512 20.8499L24.5146 20.8464C24.7553 20.5097 25.2238 20.4312 25.5607 20.6717Z" fill="#262626"/>
</symbol>
</svg>