<svg width="44" height="44" viewBox="0 0 44 44" fill="none" xmlns="http://www.w3.org/2000/svg">
<path fill-rule="evenodd" clip-rule="evenodd" d="M21.7913 1.5029C19.8349 1.5029 18.2489 3.0889 18.2489 5.0453V28.5542H19.2082C19.7276 28.5542 20.2321 28.7273 20.6421 29.0461C21.7668 29.9209 21.8479 31.5821 20.8372 32.5634C21.6096 33.6569 21.4391 35.1862 20.4547 36.0848C21.2326 37.1266 21.1465 38.6148 20.2255 39.5572L20.5565 40.0537C20.8975 40.5652 20.9967 41.1825 20.8606 41.754L21.6146 42.0867C21.7648 42.1529 21.9271 42.1871 22.0913 42.1871H38.3227C40.2791 42.1871 41.8651 40.6011 41.8651 38.6447V5.0453C41.8651 3.0889 40.2791 1.5029 38.3227 1.5029H37.3486L35.7718 4.0831C35.2843 4.8808 34.4168 5.3673 33.4819 5.3673H26.7927C25.8181 5.3673 24.9201 4.8389 24.4468 3.987L23.0667 1.5029H21.7913ZM24.7859 1.5029L25.7605 3.2571C25.9688 3.632 26.3639 3.8645 26.7927 3.8645H33.4819C33.8932 3.8645 34.275 3.6504 34.4895 3.2994L35.5873 1.5029H24.7859ZM20.0425 43.0357L21.008 43.4617C21.3493 43.6122 21.7182 43.69 22.0913 43.69H38.3227C41.1091 43.69 43.368 41.4311 43.368 38.6447V5.0453C43.368 2.2589 41.1091 0 38.3227 0H21.7913C19.0049 0 16.746 2.2588 16.746 5.0453V22.4138C16.2074 21.6964 15.3263 21.2944 14.4087 21.3818C13.5682 21.4618 12.8181 21.9431 12.395 22.6739L10.7748 25.4724C10.6703 25.6529 10.5199 25.8025 10.3388 25.906L6.7282 27.9692C6.5498 28.0711 6.3478 28.1248 6.1423 28.1248H5.0743C4.8043 27.614 4.2677 27.266 3.6498 27.266H2.63C1.1775 27.266 0 28.4435 0 29.896V41.06C0 42.5125 1.1775 43.69 2.63 43.69H2.8984C3.8273 43.69 4.6309 43.1537 5.0166 42.3738L7.4824 43.4617C7.8237 43.6122 8.1926 43.69 8.5656 43.69H18.2863C18.9366 43.69 19.5588 43.4542 20.0425 43.0357ZM5.26 40.8386L8.089 42.0867C8.2392 42.1529 8.4015 42.1871 8.5656 42.1871H18.2863C18.645 42.1871 18.9843 42.0241 19.2084 41.744L19.2723 41.6641C19.4515 41.4401 19.4651 41.126 19.306 40.8873L18.8129 40.1476H17.4975C17.0825 40.1476 16.746 39.8111 16.746 39.3961C16.746 38.9811 17.0825 38.6447 17.4975 38.6447H18.9894C19.6345 38.1815 19.648 37.2155 19.0008 36.7371L18.9675 36.7125H17.4975C17.0825 36.7125 16.746 36.3761 16.746 35.9611C16.746 35.5461 17.0825 35.2096 17.4975 35.2096H19.0592L19.1065 35.1891C19.8818 34.8532 20.0501 33.8522 19.4793 33.2774H17.4975C17.0825 33.2774 16.746 32.941 16.746 32.526C16.746 32.111 17.0825 31.7745 17.4975 31.7745H19.4661L19.7614 31.512C20.1505 31.1661 20.1304 30.552 19.7194 30.2324C19.5733 30.1187 19.3934 30.057 19.2082 30.057H17.37C15.4236 30.057 14.1245 28.0498 14.9218 26.2741L15.6955 24.5509C15.837 24.2356 15.8334 23.8741 15.6854 23.5618L15.6598 23.5078C15.4598 23.0854 15.0165 22.8335 14.5512 22.8779C14.1941 22.9119 13.8754 23.1164 13.6956 23.4268L12.0754 26.2254C11.8379 26.6356 11.496 26.9756 11.0844 27.2108L7.4738 29.274C7.0683 29.5057 6.6094 29.6276 6.1423 29.6276H5.26V40.8386ZM3.7571 28.8762C3.7571 28.8169 3.7091 28.7688 3.6498 28.7688H2.63C2.0075 28.7688 1.5029 29.2735 1.5029 29.896V41.06C1.5029 41.6825 2.0075 42.1871 2.63 42.1871H2.8984C3.3726 42.1871 3.7571 41.8027 3.7571 41.3284V28.8762ZM16.746 25.8802L16.2928 26.8897C16.0376 27.458 16.2705 28.0802 16.746 28.3772V25.8802ZM31.0148 13.5387C30.5515 13.029 29.7521 13.0225 29.2805 13.5245L27.6348 15.2763C27.4049 15.5211 27.1311 15.7205 26.8276 15.8642L24.9978 16.731C24.3689 17.0289 24.1327 17.8034 24.4884 18.4016L25.5046 20.1106C25.7416 20.5093 25.8713 20.9626 25.8809 21.4263L25.9256 23.5706C25.9417 24.3434 26.6835 24.8925 27.4273 24.6823L29.4096 24.1221C29.9085 23.9811 30.4376 23.9877 30.9329 24.141L32.7443 24.7016C33.4355 24.9156 34.1548 24.4632 34.2613 23.7476L34.6455 21.168C34.6783 20.9478 34.7384 20.7325 34.8244 20.5271L35.8723 18.0238C36.1346 17.3972 35.8154 16.679 35.1745 16.4538L33.5964 15.8993C33.1764 15.7518 32.7997 15.502 32.5002 15.1726L31.0148 13.5387ZM28.1851 12.4955C29.2569 11.3545 31.0738 11.3694 32.1268 12.5277L33.6123 14.1617C33.744 14.3066 33.9098 14.4165 34.0946 14.4814L35.6726 15.0359C37.1293 15.5477 37.8547 17.1799 37.2586 18.6041L36.2107 21.1074C36.1729 21.1977 36.1464 21.2925 36.132 21.3894L35.7478 23.969C35.5056 25.5954 33.8708 26.6235 32.2999 26.1373L30.4886 25.5766C30.2706 25.5092 30.0378 25.5063 29.8183 25.5683L27.836 26.1285C26.1456 26.6063 24.4597 25.3581 24.4231 23.6019L24.3784 21.4576C24.3742 21.2535 24.3171 21.0541 24.2128 20.8787L23.1966 19.1697C22.3883 17.8101 22.925 16.0499 24.3545 15.3728L26.1843 14.506C26.3178 14.4428 26.4383 14.355 26.5394 14.2474L28.1851 12.4955ZM14.3844 14.4918C14.7994 14.4918 15.1358 14.8282 15.1358 15.2432V18.893C15.1358 19.308 14.7994 19.6444 14.3844 19.6444C13.9694 19.6444 13.633 19.308 13.633 18.893V15.2432C13.633 14.8282 13.9694 14.4918 14.3844 14.4918ZM8.2294 18.0373C8.4055 17.6615 8.8529 17.4997 9.2287 17.6759L12.6638 19.2861C13.0395 19.4622 13.2014 19.9096 13.0252 20.2854C12.8491 20.6611 12.4017 20.823 12.0259 20.6468L8.5908 19.0366C8.2151 18.8605 8.0532 18.4131 8.2294 18.0373ZM25.7631 38.43C25.7631 38.015 26.0996 37.6786 26.5146 37.6786H33.8141C34.2291 37.6786 34.5656 38.015 34.5656 38.43C34.5656 38.845 34.2291 39.1814 33.8141 39.1814H26.5146C26.0996 39.1814 25.7631 38.845 25.7631 38.43Z" fill="#262626"/>
</svg>
