<svg width="44" height="44" viewBox="0 0 44 44" fill="none" xmlns="http://www.w3.org/2000/svg">
<path fill-rule="evenodd" clip-rule="evenodd" d="M1.8315 1.5178C1.6624 1.5178 1.5178 1.6528 1.5178 1.843V41.847C1.5178 42.0266 1.6634 42.1722 1.843 42.1722H27.103C27.2826 42.1722 27.4282 42.0266 27.4282 41.847V37.7148L20.9799 40.6545H20.8151V39.8956C20.8151 40.6545 20.8151 40.6545 20.8151 40.6545H9.1066C8.6875 40.6545 8.3477 40.3147 8.3477 39.8956C8.3477 39.4765 8.6875 39.1367 9.1066 39.1367H20.3013L22.5563 33.4993H4.3365C3.9174 33.4993 3.5776 33.1595 3.5776 32.7404C3.5776 32.3213 3.9174 31.9815 4.3365 31.9815V29.6102C3.8828 29.3478 3.5776 28.8573 3.5776 28.2955V27.3974C3.0686 26.9667 2.7103 26.3202 2.7103 25.5852C2.7103 25.0344 2.8457 24.4266 3.2616 23.9467C3.5414 23.6239 3.9067 23.4064 4.3365 23.293V17.9962C4.3365 16.9783 5.1617 16.1534 6.1795 16.1534H12.1421C13.1599 16.1534 13.9851 16.9783 13.9851 17.9962V23.393C14.8359 23.7676 15.3945 24.6008 15.3945 25.5852C15.3945 26.267 15.1248 26.925 14.6356 27.3802V28.4039C14.6356 28.9029 14.3763 29.3413 13.9851 29.5917V31.9815H16.045V30.1385C16.045 29.1206 16.8701 28.2955 17.888 28.2955H18.1048V17.6711H16.5375C15.245 17.6711 14.3539 16.3753 14.8166 15.1685L16.4789 10.832C16.7521 10.1192 17.4364 9.6487 18.1998 9.6487H22.4662C23.2198 9.6487 23.8975 10.1075 24.1774 10.8072L25.9119 15.1437C26.3962 16.3543 25.5046 17.6711 24.2008 17.6711H22.6581V28.2955H22.7665C23.7844 28.2955 24.6095 29.1206 24.6095 30.1385V30.3145L27.4282 27.1515V5.9627V5.9592V5.9539L27.4284 5.9375C27.4286 5.9242 27.4289 5.9059 27.4296 5.8831C27.4308 5.8376 27.4333 5.7736 27.438 5.694C27.4475 5.5348 27.4662 5.3116 27.5032 5.0452C27.5766 4.5163 27.7249 3.7979 28.0286 3.0689C28.2464 2.5462 28.551 2.0018 28.9785 1.5178H1.8315ZM32.5236 1.5178C31.6041 1.5178 30.96 1.789 30.4906 2.1646C30.0093 2.5496 29.6683 3.08 29.4297 3.6526C29.1914 4.2246 29.0686 4.8071 29.0065 5.254C28.9758 5.4754 28.9606 5.6587 28.9531 5.7841C28.9494 5.8468 28.9476 5.8946 28.9468 5.9253C28.9463 5.9406 28.9461 5.9516 28.946 5.9579V5.9627V5.9639V14.744H35.9928C36.1724 14.744 36.318 14.5984 36.318 14.4188V6.0077C36.318 5.9585 36.3198 5.9161 36.322 5.8777C36.3339 5.6676 36.3674 4.5257 35.8911 3.4657C35.6587 2.9484 35.3144 2.472 34.8035 2.1223C34.2964 1.7752 33.574 1.5178 32.5236 1.5178ZM28.946 16.2618H35.9928C37.0106 16.2618 37.8358 15.4366 37.8358 14.4188V6.0077C37.8358 5.9969 37.8361 5.9851 37.8373 5.9635C37.8534 5.6802 37.9035 4.2412 37.2756 2.8437C36.9559 2.1322 36.4512 1.4108 35.6607 0.869801C34.8663 0.326101 33.8348 0 32.5236 0H1.8315C0.803199 0 0 0.8357 0 1.843V41.847C0 42.8649 0.8251 43.69 1.843 43.69H27.103C28.1208 43.69 28.946 42.8649 28.946 41.847V36.8269L42.9337 21.3442C42.9404 21.3369 42.9434 21.3338 42.962 21.314C43.0937 21.173 43.651 20.5407 43.8677 19.6056C44.0993 18.6064 43.9155 17.3654 42.7088 16.1588C41.5356 14.9856 40.3315 14.7566 39.3442 14.9343C38.4131 15.1019 37.7687 15.6127 37.5919 15.7646C37.5329 15.8152 37.4876 15.8636 37.455 15.9002L28.946 25.4484V16.2618ZM28.1525 35.4411L38.27 24.2423L34.7607 21.2048L24.8999 32.2699L28.1525 35.4411ZM23.0917 31.9815V30.1385C23.0917 29.9589 22.9461 29.8133 22.7665 29.8133H17.888C17.7083 29.8133 17.5627 29.9589 17.5627 30.1385V31.9815H23.0917ZM24.1336 33.6426L22.2227 38.4198L26.8635 36.3042L24.1336 33.6426ZM35.7706 20.0715L39.2877 23.1159L41.8075 20.3267C41.8221 20.3106 41.8387 20.2929 41.8479 20.2832L41.8528 20.2779C41.9144 20.212 42.261 19.8155 42.3892 19.2629C42.5024 18.7743 42.4721 18.0685 41.6356 17.232C40.807 16.4034 40.1016 16.3401 39.6131 16.4281C39.0836 16.5234 38.6931 16.8214 38.5889 16.909L38.5881 16.9099L35.7706 20.0715ZM21.1403 28.2955V17.6711H19.6226V28.2955H21.1403ZM12.4674 31.9815V29.8133H11.2049L11.8427 31.9815H12.4674ZM10.2606 31.9815L9.6229 29.8133H8.6987L8.061 31.9815H10.2606ZM6.4789 31.9815L7.1167 29.8133H5.8542V31.9815H6.4789ZM13.1178 28.2955H5.0954V27.9703C5.7514 27.9703 6.3858 27.8086 6.8506 27.3456C7.133 27.0642 7.3047 26.7196 7.396 26.3441H10.9651C11.2639 27.2466 12.0771 27.9738 13.1178 27.9741V28.2955ZM10.9645 24.8263C11.2015 24.1195 11.7606 23.5605 12.4674 23.3234V17.9962C12.4674 17.8167 12.3219 17.6711 12.1421 17.6711H6.1795C5.9997 17.6711 5.8542 17.8167 5.8542 17.9962V23.2953C6.2006 23.3882 6.5246 23.5538 6.7966 23.8119C7.0893 24.0895 7.282 24.4362 7.3861 24.8263H10.9645ZM13.173 24.7195C12.7188 24.747 12.359 25.1241 12.359 25.5852C12.359 26.1166 12.7859 26.482 13.1722 26.4544C13.293 26.4458 13.3966 26.4105 13.4847 26.3574C13.7037 26.2252 13.8767 25.9452 13.8767 25.5852C13.8767 25.1409 13.6003 24.8041 13.173 24.7195ZM4.1197 3.7944C4.1197 3.3753 4.4594 3.0355 4.8785 3.0355H21.2487C21.6679 3.0355 22.0076 3.3753 22.0076 3.7944C22.0076 4.2135 21.6679 4.5533 21.2487 4.5533H4.8785C4.4594 4.5533 4.1197 4.2135 4.1197 3.7944ZM22.8749 3.7944C22.8749 3.3753 23.2147 3.0355 23.6338 3.0355H25.802C26.2212 3.0355 26.5609 3.3753 26.5609 3.7944C26.5609 4.2135 26.2212 4.5533 25.802 4.5533H23.6338C23.2147 4.5533 22.8749 4.2135 22.8749 3.7944ZM18.1998 11.1664C18.0651 11.1664 17.9443 11.2495 17.8961 11.3752L16.2338 15.7117C16.1521 15.9247 16.3094 16.1534 16.5375 16.1534H24.2008C24.4308 16.1534 24.5882 15.921 24.5027 15.7073L22.7681 11.3709C22.7187 11.2474 22.5992 11.1664 22.4662 11.1664H18.1998ZM4.4086 24.9408C4.3095 25.0551 4.2281 25.2603 4.2281 25.5852C4.2281 25.8718 4.4125 26.1771 4.709 26.3442C4.8391 26.4175 4.9726 26.4525 5.0954 26.4525C5.5234 26.4525 5.7021 26.3473 5.7794 26.2703C5.8562 26.1939 5.9627 26.0159 5.9627 25.5852C5.9627 25.1917 5.8496 25.0055 5.752 24.913C5.6476 24.8139 5.4505 24.7179 5.0954 24.7179C4.6668 24.7179 4.4908 24.8459 4.4086 24.9408ZM3.1439 39.8956C3.1439 39.4765 3.4837 39.1367 3.9028 39.1367H6.9384C7.3575 39.1367 7.6972 39.4765 7.6972 39.8956C7.6972 40.3147 7.3575 40.6545 6.9384 40.6545H3.9028C3.4837 40.6545 3.1439 40.3147 3.1439 39.8956Z" fill="#262626"/>
</svg>
