<svg width="60" height="35" viewBox="0 0 60 35" fill="none" xmlns="http://www.w3.org/2000/svg">
<path fill-rule="evenodd" clip-rule="evenodd" d="M8.20558 3.37823C8.20558 1.51248 9.73632 0 11.6246 0H38.0192C39.9075 0 41.4382 1.51248 41.4382 3.37823V6.72318C41.5289 6.721 41.6237 6.71895 41.7218 6.71715C42.4432 6.7039 43.37 6.70299 44.11 6.75924C44.2729 6.77162 44.4319 6.78331 44.5877 6.79476C46.487 6.9344 47.8969 7.03806 49.897 7.91952C52.1065 8.89331 53.3931 9.79647 54.9109 11.714C55.5724 12.5498 56.1084 13.672 56.5019 14.6459C56.9018 15.6358 57.1838 16.547 57.3176 17.006C57.4031 17.2998 57.4391 17.5956 57.4391 17.8809V26.5372C57.7738 26.6733 58.0793 26.8808 58.3296 27.1506L58.3837 27.209C59.2891 28.185 59.2193 29.7023 58.2278 30.593C57.7825 30.9931 57.2022 31.2148 56.6002 31.2148H53.7463C52.926 33.3534 50.9349 34.9982 48.4132 34.9982C45.8914 34.9982 43.9002 33.3534 43.08 31.2148H24.8746C23.9971 33.4245 21.8445 35.0687 19.2568 34.9978C16.9325 34.9341 15.0385 33.5384 14.1285 31.6199H9.32263C9.15691 31.6199 8.99154 31.6047 8.82868 31.5744C6.14813 31.0753 5.95371 27.5431 8.20558 26.5793V21.0801H3.28223C2.75352 21.0801 2.32491 20.6566 2.32491 20.1342C2.32491 19.6118 2.75352 19.1883 3.28223 19.1883H14.4967C15.0255 19.1883 15.4541 19.6118 15.4541 20.1342C15.4541 20.6566 15.0255 21.0801 14.4967 21.0801H10.1202V26.3499H14.1251C15.0331 24.4235 16.9267 23.036 19.2568 22.972C21.6902 22.9052 23.7369 24.3411 24.7017 26.3499H39.5236V3.37823C39.5236 2.5573 38.85 1.89181 38.0192 1.89181H11.6246C10.7937 1.89181 10.1202 2.5573 10.1202 3.37823V4.59439H14.9068C15.4355 4.59439 15.8641 5.01788 15.8641 5.54029C15.8641 6.0627 15.4355 6.48619 14.9068 6.48619H1.23084C0.702125 6.48619 0.273519 6.0627 0.273519 5.54029C0.273519 5.01788 0.702125 4.59439 1.23084 4.59439H8.20558V3.37823ZM41.4382 26.3499H43.2488C44.1511 24.4075 46.0482 22.9717 48.4132 22.9717C50.7781 22.9717 52.6752 24.4075 53.5775 26.3499H55.5244V17.8809C55.5244 17.7516 55.5081 17.634 55.4776 17.5293C55.3538 17.1042 55.0916 16.2579 54.7237 15.3473C54.3493 14.4208 53.8937 13.4997 53.4028 12.8795C52.104 11.2386 51.0829 10.5136 49.1171 9.64725C47.4287 8.90319 46.3212 8.82091 44.409 8.67885C44.2651 8.66817 44.1167 8.65714 43.9632 8.64547C43.3187 8.59649 42.4676 8.59558 41.7574 8.60863C41.6462 8.61067 41.5394 8.61304 41.4382 8.61557V26.3499ZM54.1132 28.2417C54.1392 28.4601 54.154 28.6814 54.157 28.9048C54.1589 29.0449 54.156 29.1844 54.1486 29.323H56.6002C56.7258 29.323 56.8469 29.2767 56.9398 29.1933C57.1466 29.0075 57.1612 28.6909 56.9723 28.4873L56.9182 28.429C56.8099 28.3123 56.6493 28.2417 56.4818 28.2417H54.1132ZM42.7131 28.2417H25.2557C25.2824 28.4598 25.2977 28.6811 25.3007 28.9047C25.3026 29.045 25.2996 29.1845 25.2918 29.323H42.6777C42.6703 29.1844 42.6674 29.0449 42.6693 28.9048C42.6723 28.6814 42.6871 28.4601 42.7131 28.2417ZM13.5834 28.2417H9.24552L9.19358 28.2506C8.36725 28.3926 8.35896 29.5618 9.18317 29.7153C9.22916 29.7238 9.27584 29.7281 9.32263 29.7281H13.5831C13.5506 29.4579 13.5358 29.1829 13.5395 28.9048C13.5425 28.6811 13.5573 28.4598 13.5834 28.2417ZM16.6849 5.54029C16.6849 5.01788 17.1135 4.59439 17.6422 4.59439H22.0183C22.547 4.59439 22.9756 5.01788 22.9756 5.54029C22.9756 6.0627 22.547 6.48619 22.0183 6.48619H17.6422C17.1135 6.48619 16.6849 6.0627 16.6849 5.54029ZM2.59843 10.5401C2.59843 10.0177 3.02704 9.59416 3.55575 9.59416H9.1629C9.69161 9.59416 10.1202 10.0177 10.1202 10.5401C10.1202 11.0625 9.69161 11.486 9.1629 11.486H3.55575C3.02704 11.486 2.59843 11.0625 2.59843 10.5401ZM10.5305 10.5401C10.5305 10.0177 10.9591 9.59416 11.4878 9.59416H25.027C25.5557 9.59416 25.9843 10.0177 25.9843 10.5401C25.9843 11.0625 25.5557 11.486 25.027 11.486H11.4878C10.9591 11.486 10.5305 11.0625 10.5305 10.5401ZM44.5839 11.8981V18.5127H52.1479C52.0934 18.0858 52.011 17.5669 51.8886 17.039C51.7121 16.2773 51.4702 15.5777 51.163 15.1048C50.7098 14.4071 50.296 13.9302 49.8299 13.546C49.3604 13.1589 48.8007 12.835 48.0163 12.4819C47.5092 12.2536 46.7968 12.1008 46.0441 12.0084C45.5141 11.9433 45.0003 11.9122 44.5839 11.8981ZM42.6692 11.4688C42.6692 10.6731 43.3152 9.98773 44.1655 9.99662C44.6629 10.0018 45.4465 10.0286 46.2803 10.131C47.0986 10.2315 48.0385 10.413 48.81 10.7603C49.6809 11.1523 50.4077 11.5585 51.0565 12.0934C51.7088 12.6312 52.2451 13.2682 52.7744 14.083C53.2602 14.8311 53.5617 15.7829 53.7549 16.6166C53.9522 17.4674 54.0554 18.2802 54.1071 18.8014C54.1954 19.6917 53.4761 20.4045 52.625 20.4045H44.4471C43.4652 20.4045 42.6692 19.618 42.6692 18.6478V11.4688ZM0 15.4047C0 14.8823 0.428606 14.4588 0.957318 14.4588H5.19687C5.72558 14.4588 6.15419 14.8823 6.15419 15.4047C6.15419 15.9271 5.72558 16.3506 5.19687 16.3506H0.957318C0.428606 16.3506 0 15.9271 0 15.4047ZM6.70123 15.4047C6.70123 14.8823 7.12983 14.4588 7.65854 14.4588H22.0183C22.547 14.4588 22.9756 14.8823 22.9756 15.4047C22.9756 15.9271 22.547 16.3506 22.0183 16.3506H7.65854C7.12983 16.3506 6.70123 15.9271 6.70123 15.4047ZM16.1376 20.1342C16.1376 19.6118 16.5662 19.1883 17.095 19.1883H24.6167C25.1455 19.1883 25.5741 19.6118 25.5741 20.1342C25.5741 20.6566 25.1455 21.0801 24.6167 21.0801H17.095C16.5662 21.0801 16.1376 20.6566 16.1376 20.1342ZM23.1538 27.6023C22.5861 25.965 21.0697 24.8148 19.3099 24.8631C17.6 24.91 16.2108 26.0263 15.6807 27.5953C15.5396 28.013 15.4603 28.462 15.454 28.9299C15.4472 29.4344 15.5278 29.9208 15.6816 30.3722C16.2147 31.9369 17.6103 33.0601 19.3099 33.1067C21.1751 33.1578 22.7846 31.835 23.2527 30.0337C23.3447 29.6796 23.3913 29.3092 23.3862 28.93C23.38 28.467 23.2986 28.02 23.1538 27.6023ZM48.4132 24.8635C46.7344 24.8635 45.3428 25.9887 44.8091 27.5914C44.6687 28.0131 44.5901 28.4641 44.5838 28.9299C44.5787 29.3116 44.6235 29.6854 44.7125 30.0431C45.1526 31.8118 46.6306 33.1063 48.4132 33.1063C50.1957 33.1063 51.6737 31.8118 52.1138 30.0431C52.2028 29.6854 52.2476 29.3116 52.2425 28.9299C52.2362 28.4641 52.1576 28.0131 52.0172 27.5914C51.4835 25.9887 50.0919 24.8635 48.4132 24.8635ZM19.5633 28.7787C19.4497 28.6826 19.2804 28.6935 19.1813 28.7996C19.0797 28.9083 19.0853 29.0814 19.1982 29.1844C19.3079 29.2844 19.4772 29.2799 19.5802 29.1781C19.692 29.0677 19.6863 28.8829 19.5633 28.7787ZM20.9341 30.5158C21.8373 29.6233 21.7761 28.1611 20.8093 27.3423C19.9164 26.5861 18.5745 26.66 17.7744 27.5164C16.953 28.3957 17.0125 29.7654 17.8996 30.5745C18.7617 31.3608 20.1019 31.3381 20.9341 30.5158ZM46.9459 27.3468C47.7745 26.591 49.0518 26.591 49.8804 27.3468C50.8083 28.1931 50.8083 29.6416 49.8804 30.4879C49.0518 31.2437 47.7745 31.2437 46.9459 30.4879C46.018 29.6416 46.018 28.1931 46.9459 27.3468Z" fill="#262626"/>
</svg>
