<svg width="45" height="44" viewBox="0 0 45 44" fill="none" xmlns="http://www.w3.org/2000/svg">
<path fill-rule="evenodd" clip-rule="evenodd" d="M23.4382 1.85503C22.9701 1.44116 22.2607 1.44116 21.7927 1.85503L19.3982 3.97217C18.8413 4.46456 18.1075 4.71682 17.3605 4.67267L14.1947 4.48552C13.6243 4.4518 13.1052 4.809 12.941 5.34824L11.9407 8.63339C11.743 9.28257 11.3096 9.83733 10.7233 10.1918L7.95301 11.8664C7.42746 12.1841 7.22128 12.8357 7.47049 13.3914L8.56344 15.8283C8.8514 16.4704 8.88006 17.1965 8.64359 17.8586L7.37093 21.4222C7.16489 21.9991 7.4268 22.637 7.98205 22.9105L11.6289 24.7069L12.9523 29.3137C13.1124 29.8709 13.6499 30.2391 14.2358 30.1929L17.3716 29.9458C18.0966 29.8886 18.8156 30.1116 19.3766 30.5676L21.9101 32.6268C22.3743 33.0042 23.0473 32.9958 23.5017 32.607L25.8327 30.6127C26.3981 30.1289 27.1366 29.8885 27.8831 29.9451L31.0637 30.1861C31.6905 30.2336 32.253 29.8085 32.3689 29.1997L32.971 26.0363C32.9966 25.9013 33.0391 25.7713 33.0965 25.6489L32.8923 25.4481L36.9392 23.0014C37.4352 22.7016 37.6506 22.1006 37.4556 21.5604L36.4349 18.7323C36.2331 18.173 36.2197 17.5645 36.3969 16.9971L37.5327 13.3603C37.698 12.831 37.4786 12.2586 36.9995 11.969L34.0779 10.2028C33.4763 9.83916 33.0364 9.26509 32.8461 8.5955L31.9316 5.37759C31.7747 4.8257 31.2474 4.45713 30.6669 4.49364L27.8776 4.66905C27.1271 4.71624 26.389 4.46402 25.8293 3.9692L23.4382 1.85503ZM35.4078 25.7395L37.7592 24.3179C38.8865 23.6364 39.3759 22.2707 38.9328 21.0429L37.9121 18.2148C37.8233 17.9687 37.8175 17.701 37.8954 17.4513L39.0312 13.8146C39.4068 12.6116 38.9083 11.3107 37.8195 10.6524L34.8978 8.88626C34.6331 8.72625 34.4395 8.47366 34.3558 8.17904L33.4413 4.96113C33.0849 3.70684 31.8864 2.86917 30.567 2.95215L27.7777 3.12755C27.4475 3.14832 27.1227 3.03734 26.8765 2.81962L24.4853 0.705449C23.4215 -0.235148 21.8093 -0.235151 20.7455 0.705448L18.351 2.82259C18.106 3.03924 17.7831 3.15024 17.4545 3.13081L14.2886 2.94367C12.9922 2.86703 11.8125 3.67883 11.4393 4.90439L10.439 8.18954C10.352 8.47518 10.1613 8.71927 9.90333 8.87523L7.13307 10.5499C5.93863 11.2719 5.47005 12.7528 6.03643 14.0157L7.12939 16.4526C7.25609 16.7351 7.2687 17.0546 7.16465 17.3459L5.892 20.9095C5.42371 22.2207 6.01896 23.6704 7.28091 24.292L9.65629 25.4622L0.288597 34.8898C-0.276263 35.4583 0.0328266 36.4177 0.827066 36.5612L5.81497 37.4621C6.30262 37.5502 6.68915 37.9177 6.79583 38.3947L7.87465 43.2185C8.04682 43.9883 9.0171 44.263 9.57786 43.7007L20.0952 33.1542L20.9124 33.8183C21.9674 34.6759 23.497 34.6568 24.5297 33.7733L24.827 33.5189L35.5456 43.7203C36.1232 44.27 37.0895 43.9659 37.2367 43.1881L38.1373 38.4291C38.2311 37.9335 38.6261 37.5466 39.1297 37.4572L44.17 36.5617C44.9712 36.4194 45.2794 35.4484 44.7032 34.8817L35.4078 25.7395ZM34.3965 26.9275L33.9099 29.4844C33.6466 30.8679 32.368 31.8342 30.9434 31.7262L27.7629 31.4852C27.4344 31.4603 27.1095 31.5661 26.8607 31.7789L26.0153 32.5022L35.8862 41.8968L36.596 38.146C36.8092 37.0196 37.7069 36.1404 38.8514 35.9371L42.8371 35.229L34.3965 26.9275ZM18.8813 32.1675L18.3788 31.7591C18.132 31.5585 17.8156 31.4603 17.4967 31.4855L14.3609 31.7326C13.0291 31.8376 11.8076 31.0008 11.4438 29.7343L10.5829 26.7377L2.14564 35.229L6.09769 35.9428C7.20598 36.143 8.08446 36.9782 8.32692 38.0623L9.18345 41.8922L18.8813 32.1675ZM11.8681 17.9235C11.3277 12.0825 15.8766 6.48929 21.9436 6.48929C24.1399 6.48929 25.7669 6.98734 26.8596 7.50285C27.4044 7.7599 27.8136 8.0199 28.0924 8.2215C28.2318 8.3223 28.3388 8.40856 28.414 8.47265C28.4515 8.5047 28.4812 8.53122 28.503 8.55128C28.514 8.5613 28.5229 8.56971 28.5299 8.57639L28.539 8.58509L28.5424 8.58844L28.5439 8.58986L28.5446 8.59051C28.5446 8.59051 27.9908 8.14379 28.539 8.58509L28.5452 8.59111C28.8513 8.89271 28.8513 9.38171 28.5452 9.68333C28.2403 9.98374 27.7467 9.98495 27.4403 9.68696C27.4394 9.68614 27.4373 9.68415 27.4339 9.68106C27.4258 9.67364 27.4106 9.65987 27.388 9.64063C27.3429 9.60215 27.2687 9.54187 27.1649 9.46683C26.9573 9.31675 26.6315 9.10784 26.1824 8.89599C25.2874 8.47369 23.8907 8.03393 21.9436 8.03393C16.9106 8.03393 12.9622 12.7335 13.4294 17.7833C13.8529 22.361 17.346 25.7493 21.9709 25.908C24.4143 25.9918 26.4469 25.3093 28.0017 23.9989C29.5627 22.6833 30.7036 20.6824 31.2543 18.0293C31.713 15.8193 31.1538 14.1347 30.4892 12.998C30.1543 12.4253 29.7912 11.9902 29.5146 11.7008C29.3767 11.5565 29.2613 11.4495 29.1834 11.3809C29.1445 11.3466 29.1151 11.322 29.097 11.3072C29.0879 11.2998 29.0817 11.2949 29.0786 11.2925L29.0783 11.2921C29.0783 11.2921 28.9388 11.1549 29.0095 11.2331L29.0788 11.2926L29.0779 11.2918C29.0774 11.2915 29.077 11.2912 29.0766 11.2909C28.7362 11.0294 28.6744 10.5457 28.9388 10.2091C29.2038 9.87182 29.6962 9.81005 30.0385 10.0711L30.2053 10.2091C30.2802 10.2755 30.0392 10.0716 30.0392 10.0716L30.0399 10.0722L30.0417 10.0735L30.0461 10.0769C30.0494 10.0795 30.0536 10.0828 30.0586 10.0867C30.0686 10.0946 30.0817 10.1051 30.0979 10.1183C30.1302 10.1447 30.1743 10.1817 30.2284 10.2293C30.3364 10.3245 30.4843 10.4622 30.6561 10.6419C30.9989 11.0006 31.4406 11.5309 31.8477 12.2269C32.6667 13.6276 33.3393 15.6941 32.7903 18.3388C32.186 21.25 30.9027 23.5866 29.0208 25.1727C27.1326 26.764 24.7033 27.5473 21.9163 27.4517C16.4643 27.2647 12.3598 23.2386 11.8681 17.9235ZM27.438 9.68477L27.4377 9.68443L27.438 9.68477ZM27.8585 13.5417C28.1725 13.8353 28.1855 14.3242 27.8874 14.6335L21.7875 20.9652C21.3755 21.3929 20.6781 21.3747 20.2897 20.926L17.2036 17.3613C16.9226 17.0368 16.9619 16.5493 17.2913 16.2725C17.6207 15.9957 18.1155 16.0344 18.3964 16.3589L21.0787 19.4572L26.7503 13.5702C27.0483 13.2608 27.5445 13.248 27.8585 13.5417Z" fill="#262626"/>
</svg>
