<svg width="48" height="50" viewBox="0 0 48 50" fill="none" xmlns="http://www.w3.org/2000/svg">
<path fill-rule="evenodd" clip-rule="evenodd" d="M9.94276 13.6778C9.90121 13.2979 9.85762 12.7795 9.83951 12.1665C9.80105 10.8645 9.87642 9.10441 10.3492 7.32625C10.8222 5.54732 11.7065 3.70223 13.3205 2.30137C14.9475 0.889309 17.2341 0 20.3695 0C23.3612 0 25.6 0.891008 27.2445 2.28156C28.8742 3.65964 29.8576 5.47462 30.4513 7.23156C31.0451 8.98918 31.264 10.732 31.3368 12.0248C31.3733 12.6738 31.3734 13.216 31.3642 13.5986C31.3638 13.6149 31.3634 13.631 31.3629 13.6468C33.009 14.79 32.8584 17.4356 30.8606 18.2879L28.4713 19.3072V19.3473C28.4713 19.9151 28.3149 20.492 27.975 20.9891C27.5018 21.681 26.5809 22.9385 25.4084 24.0886V27.1995L28.6997 28.4853L29.6249 28.9396C31.1827 27.1683 33.3681 25.9695 35.9396 25.5688C36.4157 25.4946 36.862 25.8186 36.9366 26.2925C37.0111 26.7664 36.6856 27.2107 36.2095 27.2848C33.7996 27.6604 31.8461 28.8461 30.5598 30.5471C29.5391 31.8969 28.9209 33.5939 28.8446 35.5181C28.7145 38.7975 30.4806 41.7651 33.1549 43.3467C34.4528 44.1144 35.9602 44.5522 37.5641 44.541C38.1081 44.5372 38.6384 44.4841 39.1513 44.3865C43.1293 43.6287 46.1131 40.1691 46.1707 35.9683C46.2315 31.5448 43.2983 28.0321 38.9182 27.2827C38.4433 27.2015 38.1245 26.7524 38.2061 26.2797C38.2877 25.807 38.7389 25.4896 39.2138 25.5709C44.4402 26.465 47.9881 30.7139 47.9156 35.992C47.85 40.7662 44.6194 44.7619 40.1878 45.9317V46.8983C40.1878 48.6113 38.7927 50 37.0717 50H3.29487C1.79754 50 0.475394 48.9293 0.289435 47.3952C0.0123396 45.1092 -0.305266 40.9906 0.589541 38.0831C1.30723 35.7511 1.87745 34.3004 3.48936 32.33C4.51357 31.078 5.99039 30.1245 7.52264 29.3978C9.06411 28.6666 10.7229 28.1364 12.1723 27.7604C13.3506 27.4547 14.4034 27.2476 15.1623 27.1168C15.3349 27.087 15.4925 27.0611 15.6331 27.0389V24.2935C14.3658 23.0853 13.3708 21.7105 12.8777 20.9796C12.5444 20.4855 12.3924 19.9156 12.3924 19.3548V19.3519L10.4401 18.676C8.0984 17.8653 7.99918 14.7776 9.94276 13.6778ZM11.6441 13.1507C11.6185 12.859 11.5954 12.509 11.5838 12.1154C11.5482 10.9124 11.6209 9.33249 12.0361 7.77067C12.4512 6.20961 13.1951 4.71471 14.4673 3.61058C15.7266 2.51766 17.5844 1.73697 20.3695 1.73697C22.9868 1.73697 24.8145 2.50595 26.1147 3.60537C27.4297 4.71727 28.2692 6.22225 28.7973 7.78528C29.3252 9.34763 29.5271 10.9247 29.5945 12.122C29.6102 12.4001 29.6185 12.6563 29.6221 12.8854L28.3926 12.4046C28.2946 12.0233 28.1072 11.6673 27.8421 11.3675L26.5887 9.94971C25.6968 8.94082 24.2536 8.61844 23.0141 9.15122L19.3228 10.7378C19.2027 10.7895 19.0758 10.8237 18.9459 10.8395L14.396 11.3941C13.498 11.5036 12.7751 12.123 12.5058 12.9393L11.6441 13.1507ZM12.3924 14.7561L11.1054 15.0717C10.1099 15.3158 10.045 16.7002 11.0134 17.0355L12.3924 17.5129V14.7561ZM28.4713 14.3016V17.4174L30.1732 16.6914C30.9472 16.3612 30.9304 15.2632 30.1466 14.9567L28.4713 14.3016ZM17.3781 25.6824V27.4783L20.7054 31.4722L23.6634 27.5045V25.534C22.6759 26.1977 21.5497 26.685 20.3621 26.6749C19.2932 26.6658 18.2798 26.2547 17.3781 25.6824ZM24.8387 28.8428L22.2556 32.3075L24.8205 34.5684L27.1527 29.7469L24.8387 28.8428ZM27.4135 33.2117L26.1782 35.7655C25.7835 36.5813 24.7148 36.7954 24.0338 36.1952L23.8179 36.0048L22.8077 37.3036L23.713 41.2457C23.8203 41.7133 23.5266 42.179 23.0568 42.2859C22.587 42.3927 22.1192 42.1003 22.0118 41.6327L21.1697 37.9653H19.7313L17.9182 48.263H23.4339L22.5117 44.368C22.4012 43.9011 22.6918 43.4334 23.1608 43.3234C23.6298 43.2134 24.0997 43.5027 24.2102 43.9695L25.2267 48.263H31.8367V44.5735C28.8822 42.6292 26.9513 39.2222 27.1009 35.4496C27.1316 34.6757 27.2375 33.9273 27.4135 33.2117ZM33.5817 45.4986V48.263H37.0717C37.8289 48.263 38.4428 47.652 38.4428 46.8983V46.2366C38.1571 46.262 37.8682 46.2759 37.5764 46.2779C36.1639 46.2878 34.814 46.0086 33.5817 45.4986ZM16.1466 48.263L18.0817 37.2728L17.3136 36.0386L17.047 36.2556C16.3622 36.8129 15.3343 36.5886 14.9467 35.7972L11.9247 29.6277C10.7276 29.967 9.45249 30.4065 8.27329 30.9658C6.85575 31.6382 5.6369 32.4557 4.84249 33.4268C3.43041 35.1529 2.94306 36.3659 2.25801 38.5919C1.48392 41.1071 1.74285 44.8852 2.02187 47.1871C2.09554 47.7949 2.62481 48.263 3.29487 48.263H7.65593V39.33C7.65593 38.8504 8.04656 38.4615 8.52843 38.4615C9.0103 38.4615 9.40093 38.8504 9.40093 39.33V48.263H16.1466ZM13.6512 29.1891L16.3081 34.6132L19.1371 32.3108L16.1439 28.718C15.9618 28.7452 15.7309 28.7815 15.4601 28.8282C14.9694 28.9128 14.3494 29.031 13.6512 29.1891ZM20.4887 33.4544L18.6761 34.9296L19.4843 36.2283H21.4373L22.5086 34.8507L20.9301 33.4592C20.784 33.4821 20.6346 33.4806 20.4887 33.4544ZM25.2787 11.0972C24.8862 10.6533 24.2512 10.5114 23.7059 10.7459L20.0146 12.3325C19.7416 12.4498 19.4532 12.5277 19.158 12.5636L14.6081 13.1182C14.3394 13.151 14.1374 13.3781 14.1374 13.6476V19.3548C14.1374 19.6058 14.205 19.8313 14.3264 20.0112C14.8257 20.7514 15.8423 22.1451 17.0916 23.2725C18.2024 24.2749 19.347 24.9293 20.377 24.938C21.4951 24.9475 22.7468 24.1982 23.9392 23.0854C25.108 21.9945 26.0539 20.7114 26.5325 20.0116C26.6568 19.8298 26.7263 19.6007 26.7263 19.3473V13.0273C26.7263 12.8387 26.6573 12.6566 26.5321 12.515L25.2787 11.0972ZM29.5949 35.4291C29.8622 31.216 33.3813 28.127 37.578 28.1638C41.733 28.2003 45.1563 31.2576 45.4211 35.4291C45.7037 39.8823 42.0148 43.6334 37.578 43.6724C33.1015 43.7118 29.3098 39.922 29.5949 35.4291ZM37.5626 29.9007C34.2483 29.8716 31.5425 32.2899 31.3364 35.5386C31.118 38.9796 34.0529 41.9664 37.5626 41.9355C41.0445 41.9049 43.8962 38.9524 43.6795 35.5386C43.4752 32.3195 40.8469 29.9295 37.5626 29.9007ZM41.3033 33.2569C41.644 33.596 41.644 34.1459 41.3033 34.4851L38.0514 37.722C37.5051 38.2658 36.6156 38.2531 36.0851 37.694L34.3185 35.8321C33.9876 35.4833 34.0034 34.9337 34.3537 34.6043C34.704 34.275 35.2562 34.2907 35.5871 34.6394L37.0896 36.223L40.0694 33.2569C40.4101 32.9177 40.9626 32.9177 41.3033 33.2569Z" fill="#262626"/>
</svg>
