<svg width="33" height="45" viewBox="0 0 33 45" fill="none" xmlns="http://www.w3.org/2000/svg">
<path fill-rule="evenodd" clip-rule="evenodd" d="M9.973 3.95245L16.7267 9.11158L23.5058 3.97916C21.5686 2.79493 19.9048 2.24492 17.363 2.1326C15.6339 2.05618 14.2497 2.16537 12.972 2.53125C11.9693 2.81837 11.0046 3.27151 9.973 3.95245ZM24.8958 4.89662C24.9011 4.90032 24.9064 4.90403 24.9117 4.90774C26.7131 6.17028 27.6859 6.9232 28.7228 8.69914C29.005 9.18263 29.2325 9.6333 29.4153 10.0667C30.0829 11.6492 30.1921 13.0841 30.0751 15.2153C29.9459 17.5691 29.404 19.0558 28.3341 20.9294L17.9065 10.1882L24.8958 4.89662ZM15.5645 10.2001L8.65194 4.91961C7.75632 5.64178 7.09821 6.33305 6.55581 7.09746C5.9195 7.99421 5.42055 9.02211 4.89253 10.3823C4.17898 12.2201 3.9335 13.3159 3.93615 15.2572C3.93935 17.6888 4.37084 19.2393 5.43526 21.223L15.5645 10.2001ZM4.39906 22.5921L1.37915 29.1753C0.27082 31.5914 2.83223 34.05 5.20093 32.8438L11.271 29.7526L12.0844 32.9318C11.6353 33.234 11.3399 33.7469 11.3399 34.3288V41.284C11.3399 42.8328 12.5956 44.0885 14.1445 44.0885H19.4169C20.9658 44.0885 22.2214 42.8329 22.2214 41.284V34.1045C22.2214 33.6567 22.0195 33.256 21.7019 32.9885L22.6291 29.666L28.7977 32.1684C31.1849 33.1367 33.5052 30.6444 32.3688 28.3324L29.38 22.2519C30.7331 19.9845 31.484 18.2026 31.6433 15.3013C31.7598 13.1784 31.6734 11.5289 30.9778 9.74103L32.7369 4.71023C33.551 2.38236 31.1802 0.212887 28.9335 1.22938L24.9468 3.03337C22.5506 1.46505 20.5516 0.701458 17.4324 0.563624C15.6024 0.482746 14.0353 0.593153 12.5397 1.02142C11.1625 1.41577 9.88367 2.06874 8.53679 3.03528L4.32761 1.32219C1.91998 0.342334 -0.409748 2.88163 0.773174 5.19609L3.30225 10.1443C2.62352 11.9527 2.36285 13.216 2.36564 15.2594C2.36958 18.2535 2.9885 20.1233 4.39906 22.5921ZM4.09448 8.24351C4.44632 7.49573 4.82622 6.82105 5.27498 6.18862C5.7923 5.45956 6.39058 4.80131 7.12243 4.15524L3.73559 2.77684C2.67621 2.3457 1.65114 3.463 2.17162 4.48134L4.09448 8.24351ZM26.4535 4.07539C27.9172 5.12895 28.9606 6.03527 30.0013 7.77568L31.2544 4.19182C31.6126 3.1677 30.5696 2.21297 29.5809 2.66023L26.4535 4.07539ZM27.4947 22.3195L16.7403 11.2416L6.27035 22.6353C7.11969 23.853 8.45741 25.0927 9.68943 26.0913C10.3764 26.6481 11.0105 27.1142 11.4726 27.4409C11.7035 27.6041 11.8908 27.732 12.0195 27.8186C12.0839 27.8619 12.1336 27.8949 12.1667 27.9167L12.2038 27.941L12.2125 27.9466L12.2144 27.9478L12.4732 28.1149L13.6324 32.6462H14.9694L13.214 24.396L12.9276 23.0498C12.8374 22.6256 13.1081 22.2086 13.5323 22.1183C13.944 22.0308 14.349 22.2832 14.455 22.686L14.6233 22.5237C15.1004 22.0637 15.8845 22.1801 16.2067 22.7604L17.0373 24.2554L17.7861 22.8112C18.1025 22.2017 18.919 22.0811 19.3976 22.5633L19.433 22.3914C19.5206 21.9667 19.9359 21.6934 20.3607 21.7809C20.7854 21.8685 21.0588 22.2838 20.9712 22.7086L20.4194 25.3845C20.4186 25.3887 20.4177 25.3929 20.4169 25.3971L18.9222 32.6462H20.1669L21.4264 28.1329L21.6479 27.9722L21.65 27.9707L21.6583 27.9647L21.6929 27.9392C21.7238 27.9164 21.7701 27.8821 21.83 27.8371C21.9499 27.7472 22.1243 27.6146 22.3396 27.4463C22.7706 27.1093 23.3635 26.6306 24.0103 26.0645C25.2611 24.9697 26.6541 23.5986 27.4947 22.3195ZM23.6723 28.3944L29.3881 30.713C30.4385 31.1391 31.4594 30.0425 30.9594 29.0252L28.3826 23.783C27.4286 25.05 26.139 26.2884 25.0447 27.2463C24.5394 27.6886 24.0663 28.079 23.6723 28.3944ZM17.3186 32.6462L18.8787 25.08C18.8793 25.0772 18.8798 25.0744 18.8804 25.0716C18.933 24.8073 18.8971 24.5366 18.7837 24.299L17.9506 25.9058C17.5802 26.6195 16.5628 26.636 16.1716 25.9311L15.188 24.1607L15.1946 24.173C15.188 24.1607 15.188 24.1607 15.188 24.1607L14.8409 24.4955L16.5751 32.6462H17.3186ZM10.2604 28.5048C9.81954 28.1861 9.27843 27.7798 8.70051 27.3114C7.62795 26.442 6.38145 25.3215 5.4244 24.1236L2.80663 29.8301C2.31897 30.8932 3.44596 31.975 4.48825 31.4443L10.2604 28.5048ZM18.493 16.4849C17.5447 15.4419 15.9043 15.4419 14.9561 16.4849C14.0818 17.4465 14.1362 18.9305 15.0783 19.8255C16.0008 20.702 17.4483 20.702 18.3708 19.8255C19.3129 18.9304 19.3673 17.4465 18.493 16.4849ZM17.3309 17.5414C17.0058 17.1838 16.4433 17.1838 16.1181 17.5414C15.8184 17.8711 15.837 18.38 16.1601 18.6869C16.4764 18.9874 16.9727 18.9875 17.289 18.6869C17.6121 18.38 17.6307 17.8711 17.3309 17.5414ZM13.0227 34.2167C12.9606 34.2167 12.9105 34.267 12.9105 34.3288V35.675H20.6508V34.2167H13.0227ZM20.6508 37.2455H12.9105V39.0965H20.6508V37.2455ZM20.6508 40.667H12.9105V41.284C12.9105 41.9654 13.463 42.518 14.1445 42.518H19.4169C20.0984 42.518 20.6508 41.9655 20.6508 41.284V40.667Z" fill="#262626"/>
</svg>
