<svg width="43" height="45" viewBox="0 0 43 45" fill="none" xmlns="http://www.w3.org/2000/svg">
<path fill-rule="evenodd" clip-rule="evenodd" d="M20.4432 1.9703C20.4432 1.1583 21.1014 0.5 21.9134 0.5H32.0082C32.8203 0.5 33.4785 1.1583 33.4785 1.9703V4.2147H41.5297C42.3417 4.2147 43 4.873 43 5.685V42.7208C43 43.5328 42.3417 44.1911 41.5297 44.1911H12.5313C11.7193 44.1911 11.061 43.5328 11.061 42.7208V33.2946L6.45109 37.3871M6.45109 37.3871C6.35389 37.4671 5.6539 38.028 4.6755 38.296C3.6557 38.5753 2.3055 38.5349 1.1046 37.334C-0.0525037 36.1769 -0.125605 34.8161 0.105395 33.7642C0.330595 32.7389 0.850395 31.9475 0.991595 31.7444C1.0415 31.6727 1.0928 31.6152 1.1394 31.5682L6.7602 25.9052C7.2852 25.3762 8.1123 25.33 8.69009 25.7676L10.8268 23.7606C10.8071 23.728 10.7873 23.6955 10.7673 23.6625C10.7149 23.5764 10.6606 23.4872 10.6023 23.3876C10.4271 23.0883 10.2568 22.7586 10.118 22.3065C9.84869 21.4292 9.7136 20.8409 9.69499 19.8755C9.67369 18.7713 9.6902 17.9879 10.1366 16.8521C10.337 16.3421 10.7176 15.8046 11.0146 15.4262V5.685C11.0146 4.873 11.6729 4.2147 12.4849 4.2147H20.4432V1.9703M12.4849 13.8092C12.7906 13.5081 13.1302 13.1958 13.4414 12.9593C14.3892 12.2391 15.038 11.7836 16.2699 11.4025C17.1226 11.1387 17.6708 11.0445 18.5773 11.0445C19.7351 11.0446 20.412 11.2566 21.413 11.5939C22.4852 11.9552 23.1693 12.2272 24.1316 12.9597C24.9365 13.5723 25.409 14.0228 25.978 14.914C26.4858 15.7092 26.8346 16.3037 27.1347 17.2756C27.4451 18.2807 27.4627 18.8831 27.4867 19.8429C27.5164 21.0299 27.3478 21.7563 26.9244 22.8258C26.5102 23.8721 26.1241 24.448 25.399 25.2707C24.6841 26.0818 24.1971 26.6295 23.1995 27.2625C22.2982 27.8343 21.6635 28.072 20.6653 28.3296C19.4429 28.6451 18.6257 28.525 17.567 28.3693C17.5129 28.3614 17.4583 28.3533 17.4029 28.3453C17.3485 28.3373 17.295 28.3296 17.2423 28.322C16.4217 28.2036 15.791 28.1126 14.9057 27.6722C14.861 27.65 14.8142 27.6254 14.7672 27.6L12.6482 29.719C13.0078 30.169 13.0741 30.7945 12.8036 31.3146L12.5313 31.8383V42.7208H41.5297V5.685H37.9306V7.6223C37.9306 8.4343 37.2723 9.0926 36.4603 9.0926H17.7251C16.9131 9.0926 16.2548 8.4343 16.2548 7.6223V5.685H12.4849V13.8092ZM17.7251 5.685V7.6223H36.4603V5.685H33.4785C32.6665 5.685 32.0082 5.0267 32.0082 4.2147V1.9703H21.9134V4.2147C21.9134 5.0267 21.2552 5.685 20.4432 5.685H17.7251ZM11.2065 31.1991L11.4991 30.6363L7.80369 26.9409L2.1893 32.5975C2.0773 32.7612 1.7012 33.3525 1.5415 34.0796C1.3828 34.8023 1.44409 35.5942 2.14419 36.2943C2.88499 37.0351 3.6465 37.0534 4.2871 36.8779C4.9494 36.6965 5.4486 36.307 5.51239 36.2555L11.2065 31.1991ZM11.615 28.6729L13.4867 26.8011C13.3009 26.6691 13.1015 26.518 12.9168 26.3588C12.3222 25.8462 11.9884 25.4418 11.6547 25.0001L9.7404 26.7983L11.615 28.6729ZM12.3726 23.5063C12.4859 23.6546 12.5848 23.7873 12.6757 23.9091C13.0636 24.4292 13.3037 24.7511 13.8769 25.2452C14.1106 25.4467 14.3936 25.6462 14.6276 25.8C14.7426 25.8757 14.8418 25.9377 14.9117 25.9805C14.9466 26.0019 14.974 26.0183 14.9922 26.0292L15.0123 26.041L15.0167 26.0436L15.0266 26.0494L15.0358 26.0551L15.0386 26.0569L15.0488 26.0631L15.0885 26.0874C15.1228 26.1083 15.1709 26.1373 15.2258 26.1697C15.3398 26.237 15.4674 26.3095 15.5606 26.3558C16.2314 26.6895 16.6547 26.7509 17.4869 26.8717C17.5286 26.8778 17.5713 26.884 17.6151 26.8904C17.6533 26.8959 17.6909 26.9014 17.7279 26.9068C18.8096 27.065 19.3663 27.1464 20.2979 26.906C21.1847 26.6771 21.6693 26.4921 22.4118 26.021C23.2225 25.5066 23.5949 25.0939 24.296 24.2985C24.9287 23.5807 25.2157 23.1475 25.5573 22.2846C25.9223 21.3628 26.0407 20.8336 26.0169 19.8797C25.9936 18.9474 25.978 18.5128 25.7299 17.7095C25.4874 16.9243 25.2207 16.46 24.7388 15.7052C24.2859 14.9959 23.9472 14.667 23.2411 14.1296C22.4607 13.5356 21.9469 13.3253 20.9436 12.9873C19.9826 12.6635 19.4898 12.5149 18.5772 12.5148C17.8317 12.5148 17.4301 12.5826 16.7045 12.8071C15.7181 13.1123 15.232 13.4453 14.331 14.13C13.6481 14.6489 12.7269 15.6818 12.632 15.7893L12.6269 15.7949L12.6097 15.814C12.5869 15.8388 12.4704 15.9666 12.3172 16.1526C12.0158 16.5185 11.6526 17.0143 11.505 17.3899C11.1656 18.2533 11.1449 18.8037 11.165 19.8472C11.1801 20.6321 11.2791 21.0786 11.5235 21.875C11.618 22.1828 11.7309 22.4052 11.8711 22.6447C11.9077 22.7073 11.9497 22.7763 11.9953 22.8514C12.1076 23.0362 12.2419 23.2573 12.3726 23.5063ZM24.4147 4.6272C24.4147 4.2212 24.7439 3.8921 25.1499 3.8921H28.9967C29.4027 3.8921 29.7318 4.2212 29.7318 4.6272C29.7318 5.0332 29.4027 5.3623 28.9967 5.3623H25.1499C24.7439 5.3623 24.4147 5.0332 24.4147 4.6272ZM28.5335 17.4926C28.5335 17.0865 28.8627 16.7574 29.2687 16.7574H37.1954C37.6014 16.7574 37.9306 17.0865 37.9306 17.4926C37.9306 17.8986 37.6014 18.2277 37.1954 18.2277H29.2687C28.8627 18.2277 28.5335 17.8986 28.5335 17.4926ZM22.653 17.2227C22.9321 17.5176 22.9193 17.9829 22.6244 18.2619L18.501 22.1641C17.9495 22.6861 17.0912 22.7021 16.5205 22.2012L14.4841 20.4138C14.179 20.146 14.1488 19.6815 14.4166 19.3763C14.6844 19.0712 15.1489 19.041 15.4541 19.3088L17.4904 21.0962L21.6137 17.194C21.9086 16.915 22.3739 16.9278 22.653 17.2227ZM28.5335 21.6464C28.5335 21.2404 28.8627 20.9113 29.2687 20.9113H34.4755C34.8815 20.9113 35.2106 21.2404 35.2106 21.6464C35.2106 22.0524 34.8815 22.3815 34.4755 22.3815H29.2687C28.8627 22.3815 28.5335 22.0524 28.5335 21.6464ZM21.2086 32.05L21.2072 32.0502L21.1971 32.0517C21.1875 32.0531 21.1724 32.0554 21.1523 32.0585C21.1121 32.0648 21.0523 32.0746 20.9774 32.0881C20.8269 32.1152 20.6185 32.1567 20.3875 32.2142C19.9002 32.3353 19.4077 32.5049 19.1152 32.7053C18.4797 33.1406 18.2225 33.3548 17.9274 33.9214C17.5843 34.5799 17.4816 35.0458 17.5645 35.7422C17.6012 36.0501 17.6522 36.2592 17.7254 36.4405C17.7988 36.622 17.9078 36.8083 18.0955 37.0566C18.6146 37.7434 19.0981 38.1105 19.8668 38.3228C20.2506 38.4287 20.546 38.4497 20.8274 38.4195C21.1193 38.388 21.4317 38.2978 21.855 38.1349C22.4364 37.9112 22.693 37.6503 23.1752 37.0429C23.3011 36.8843 23.4504 36.6321 23.5793 36.3911C23.6408 36.2762 23.6926 36.1733 23.729 36.0993C23.7471 36.0625 23.7612 36.0331 23.7706 36.0134L23.781 35.9915L23.7833 35.9866M23.7833 35.9866C23.9543 35.6184 24.3916 35.4576 24.7599 35.6285C25.1282 35.7994 25.2882 36.2365 25.1173 36.6048L24.5257 36.3303C25.1173 36.6048 25.1173 36.6048 25.1173 36.6048L25.1167 36.6061L25.1155 36.6086L25.1117 36.6169L25.0979 36.6458C25.0862 36.6704 25.0695 36.7052 25.0485 36.748C25.0065 36.8333 24.9469 36.9516 24.8758 37.0846C24.7395 37.3394 24.5392 37.6894 24.3268 37.9569C23.7895 38.634 23.3323 39.1418 22.3831 39.5071C21.9142 39.6876 21.4634 39.8298 20.9847 39.8813C20.4955 39.934 20.0131 39.8885 19.4754 39.74C18.3365 39.4255 17.5967 38.8352 16.9225 37.9432C16.686 37.6302 16.4993 37.3304 16.3623 36.9915C16.2252 36.6524 16.1511 36.3068 16.1046 35.916C15.982 34.8864 16.1634 34.125 16.6234 33.2421C17.0829 32.3601 17.5723 31.9801 18.2842 31.4924C18.8072 31.1341 19.5192 30.915 20.0326 30.7873C20.3019 30.7203 20.5429 30.6724 20.7167 30.6411C20.8039 30.6253 20.875 30.6137 20.9251 30.6059C20.9502 30.6019 20.9701 30.5989 20.9843 30.5969L21.0012 30.5944L21.0079 30.5935C21.0079 30.5935 20.6444 30.6543 21.0012 30.5944L21.0079 30.5935C21.4102 30.5384 21.782 30.8196 21.8371 31.2219C21.8922 31.624 21.6107 31.9948 21.2086 32.05M24.9613 31.8422C25.2533 32.1243 25.2612 32.5897 24.9791 32.8817L22.1429 35.8168C21.5829 36.3964 20.6607 36.4171 20.0752 35.8633L19.1659 35.0031C18.8709 34.7241 18.858 34.2588 19.137 33.9639C19.416 33.6689 19.8813 33.656 20.1763 33.935L21.0856 34.7952L23.9218 31.86C24.2039 31.568 24.6693 31.56 24.9613 31.8422ZM27.7952 33.0702C27.7952 32.6642 28.1244 32.3351 28.5304 32.3351H37.1954C37.6014 32.3351 37.9306 32.6642 37.9306 33.0702C37.9306 33.4763 37.6014 33.8054 37.1954 33.8054H28.5304C28.1244 33.8054 27.7952 33.4763 27.7952 33.0702ZM27.7952 37.1113C27.7952 36.7053 28.1244 36.3762 28.5304 36.3762H34.4755C34.8815 36.3762 35.2106 36.7053 35.2106 37.1113C35.2106 37.5173 34.8815 37.8465 34.4755 37.8465H28.5304C28.1244 37.8465 27.7952 37.5173 27.7952 37.1113Z" fill="#262626"/>
</svg>
