<svg width="0" height="0" class="hidden">
  <symbol xmlns="http://www.w3.org/2000/svg" viewBox="0 0 24 24" id="next">
    <g id="02.Icons/Arrow">
      <path id="Line 2 (Stroke)" fill-rule="evenodd" clip-rule="evenodd" d="M16.1753 7.19887L21.7437 11.5199C22.0854 11.785 22.0854 12.215 21.7437 12.4801L16.1753 16.8011C15.8335 17.0663 15.2795 17.0663 14.9378 16.8011C14.5961 16.536 14.5961 16.1061 14.9378 15.8409L19.0126 12.679L1 12.679L1 11.321L19.0126 11.321L14.9378 8.15909C14.5961 7.89394 14.5961 7.46403 14.9378 7.19887C15.2795 6.93371 15.8335 6.93371 16.1753 7.19887Z"></path>
    </g>
  </symbol>
  <symbol xmlns="http://www.w3.org/2000/svg" viewBox="0 0 24 24" id="prev">
    <g id="02.Icons/Arrow">
      <path id="Line 2 (Stroke)" fill-rule="evenodd" clip-rule="evenodd" d="M7.82475 16.8011L2.25628 12.4801C1.91457 12.215 1.91457 11.785 2.25628 11.5199L7.82475 7.19887C8.16646 6.93371 8.72048 6.93371 9.06218 7.19887C9.40389 7.46403 9.40389 7.89393 9.06218 8.15909L4.98744 11.321L23 11.321L23 12.679L4.98744 12.679L9.06218 15.8409C9.40389 16.1061 9.40389 16.536 9.06218 16.8011C8.72048 17.0663 8.16646 17.0663 7.82475 16.8011Z"></path>
    </g>
  </symbol>
</svg>