<svg width="14" height="7" viewBox="0 0 15 8" fill="none" xmlns="http://www.w3.org/2000/svg">
<path d="M7.11655 7.50847C7.27225 7.48602 7.41664 7.41504 7.52972 7.30579L13.7647 1.3202C13.9222 1.18729 14.0178 0.995225 14.0291 0.7896C14.0405 0.583796 13.9665 0.382517 13.8246 0.233082C13.6828 0.0836425 13.4855 -0.000556517 13.2795 0.000138217C13.0734 0.000833905 12.8768 0.0864262 12.7359 0.236908L7.01527 5.73172L1.29467 0.236907C1.15375 0.0864251 0.957169 0.000831892 0.751018 0.000137122C0.545041 -0.000558602 0.347763 0.0836413 0.205992 0.233081C0.0640341 0.38252 -0.00990426 0.5838 0.00140344 0.789599C0.0127111 0.995229 0.108391 1.18729 0.265834 1.3202L6.50083 7.30579C6.66471 7.46323 6.89121 7.53786 7.11649 7.50829L7.11655 7.50847Z" fill="#262626"/>
</svg>
