<svg width="24" height="22" viewBox="0 0 24 22" fill="none" xmlns="http://www.w3.org/2000/svg">
<path d="M1.00505 0.257856C0.452274 0.257856 0 0.741223 0 1.332C0 1.92279 0.452274 2.40615 1.00505 2.40615H3.23527L5.87353 13.6847C6.09665 14.6407 6.89868 15.2959 7.82032 15.2959H19.3473C20.2538 15.2959 21.0237 14.6536 21.2629 13.718L23.87 3.4803H7.03537L7.5379 5.6286H21.2629L19.3473 13.1476H7.82032L5.18205 1.86908C5.07335 1.40645 4.82251 0.996208 4.46971 0.704068C4.11691 0.411927 3.68257 0.254799 3.23627 0.257856H1.00505ZM18.0909 15.2959C16.4376 15.2959 15.0758 16.7514 15.0758 18.5184C15.0758 20.2853 16.4376 21.7408 18.0909 21.7408C19.7443 21.7408 21.1061 20.2853 21.1061 18.5184C21.1061 16.7514 19.7443 15.2959 18.0909 15.2959ZM9.04547 15.2959C7.39216 15.2959 6.03032 16.7514 6.03032 18.5184C6.03032 20.2853 7.39216 21.7408 9.04547 21.7408C10.6988 21.7408 12.0606 20.2853 12.0606 18.5184C12.0606 16.7514 10.6988 15.2959 9.04547 15.2959ZM9.04547 17.4442C9.61132 17.4442 10.0505 17.9147 10.0505 18.5184C10.0505 19.1231 9.61031 19.5925 9.04547 19.5925C8.47963 19.5925 8.04042 19.122 8.04042 18.5184C8.04042 17.9136 8.48063 17.4442 9.04547 17.4442ZM18.0909 17.4442C18.6568 17.4442 19.096 17.9147 19.096 18.5184C19.096 19.1231 18.6558 19.5925 18.0909 19.5925C17.5251 19.5925 17.0859 19.122 17.0859 18.5184C17.0859 17.9136 17.5261 17.4442 18.0909 17.4442Z" fill="#262626"/>
</svg>
