<svg width="21" height="18" viewBox="0 0 21 18" fill="none" xmlns="http://www.w3.org/2000/svg">
<path d="M14.8476 0.355469C12.955 0.355469 11.2979 1.16274 10.265 2.5273C9.23208 1.16274 7.57502 0.355469 5.68241 0.355469C4.17586 0.357153 2.73151 0.951526 1.66622 2.00819C0.600924 3.06485 0.00169807 4.49751 0 5.99185C0 12.3555 9.51254 17.5064 9.91764 17.7192C10.0244 17.7761 10.1438 17.806 10.265 17.806C10.3862 17.806 10.5056 17.7761 10.6124 17.7192C11.0175 17.5064 20.53 12.3555 20.53 5.99185C20.5283 4.49751 19.9291 3.06485 18.8638 2.00819C17.7985 0.951526 16.3541 0.357153 14.8476 0.355469ZM10.265 16.2464C8.59144 15.2792 1.46643 10.8728 1.46643 5.99185C1.46788 4.88321 1.91253 3.82038 2.70287 3.03645C3.4932 2.25251 4.56471 1.81146 5.68241 1.81002C7.46504 1.81002 8.96171 2.75184 9.58678 4.26457C9.64202 4.39796 9.73599 4.51205 9.85675 4.59235C9.97752 4.67264 10.1196 4.71551 10.265 4.71551C10.4104 4.71551 10.5525 4.67264 10.6732 4.59235C10.794 4.51205 10.888 4.39796 10.9432 4.26457C11.5683 2.74911 13.065 1.81002 14.8476 1.81002C15.9653 1.81146 17.0368 2.25251 17.8271 3.03645C18.6175 3.82038 19.0621 4.88321 19.0636 5.99185C19.0636 10.8655 11.9367 15.2783 10.265 16.2464Z" fill="#262626"/>
</svg>