<svg width="25" height="22" viewBox="0 0 25 22" fill="none" xmlns="http://www.w3.org/2000/svg">
<path d="M17.7954 0.855469C15.5948 0.855469 13.6682 1.79408 12.4672 3.38063C11.2663 1.79408 9.33962 0.855469 7.1391 0.855469C5.38746 0.857427 3.70812 1.5485 2.46952 2.77707C1.23091 4.00564 0.534201 5.67137 0.532227 7.40883C0.532227 14.8078 11.5923 20.7967 12.0634 21.0441C12.1875 21.1103 12.3263 21.145 12.4672 21.145C12.6082 21.145 12.747 21.1103 12.8711 21.0441C13.3421 20.7967 24.4022 14.8078 24.4022 7.40883C24.4003 5.67137 23.7035 4.00564 22.4649 2.77707C21.2263 1.5485 19.547 0.857427 17.7954 0.855469ZM12.4672 19.3317C10.5214 18.2071 2.23723 13.0838 2.23723 7.40883C2.23892 6.11982 2.75591 4.88408 3.67482 3.97261C4.59373 3.06114 5.83956 2.54834 7.1391 2.54666C9.21174 2.54666 10.9519 3.64171 11.6787 5.40054C11.7429 5.55563 11.8522 5.68829 11.9926 5.78164C12.133 5.875 12.2982 5.92484 12.4672 5.92484C12.6363 5.92484 12.8015 5.875 12.9419 5.78164C13.0823 5.68829 13.1916 5.55563 13.2558 5.40054C13.9825 3.63853 15.7227 2.54666 17.7954 2.54666C19.0949 2.54834 20.3407 3.06114 21.2596 3.97261C22.1785 4.88408 22.6955 6.11982 22.6972 7.40883C22.6972 13.0754 14.4109 18.206 12.4672 19.3317Z" fill="#262626"/>
</svg>
