<svg width="0" height="0" class="hidden">
  <symbol fill="none" xmlns="http://www.w3.org/2000/svg" viewBox="0 0 15 8" id="burger-menu-arrow">
    <path d="M7.11655 7.50847C7.27225 7.48602 7.41664 7.41504 7.52972 7.30579L13.7647 1.3202C13.9222 1.18729 14.0178 0.995225 14.0291 0.7896C14.0405 0.583796 13.9665 0.382517 13.8246 0.233082C13.6828 0.0836425 13.4855 -0.000556517 13.2795 0.000138217C13.0734 0.000833905 12.8768 0.0864262 12.7359 0.236908L7.01527 5.73172L1.29467 0.236907C1.15375 0.0864251 0.957169 0.000831892 0.751018 0.000137122C0.545041 -0.000558602 0.347763 0.0836413 0.205992 0.233081C0.0640341 0.38252 -0.00990426 0.5838 0.00140344 0.789599C0.0127111 0.995229 0.108391 1.18729 0.265834 1.3202L6.50083 7.30579C6.66471 7.46323 6.89121 7.53786 7.11649 7.50829L7.11655 7.50847Z" fill="#262626"></path>
  </symbol>
  <symbol xmlns="http://www.w3.org/2000/svg" viewBox="0 0 24 22" id="card-icon">
    <path d="M1.00505 0.257856C0.452274 0.257856 0 0.741223 0 1.332C0 1.92279 0.452274 2.40615 1.00505 2.40615H3.23527L5.87353 13.6847C6.09665 14.6407 6.89868 15.2959 7.82032 15.2959H19.3473C20.2538 15.2959 21.0237 14.6536 21.2629 13.718L23.87 3.4803H7.03537L7.5379 5.6286H21.2629L19.3473 13.1476H7.82032L5.18205 1.86908C5.07335 1.40645 4.82251 0.996208 4.46971 0.704068C4.11691 0.411927 3.68257 0.254799 3.23627 0.257856H1.00505ZM18.0909 15.2959C16.4376 15.2959 15.0758 16.7514 15.0758 18.5184C15.0758 20.2853 16.4376 21.7408 18.0909 21.7408C19.7443 21.7408 21.1061 20.2853 21.1061 18.5184C21.1061 16.7514 19.7443 15.2959 18.0909 15.2959ZM9.04547 15.2959C7.39216 15.2959 6.03032 16.7514 6.03032 18.5184C6.03032 20.2853 7.39216 21.7408 9.04547 21.7408C10.6988 21.7408 12.0606 20.2853 12.0606 18.5184C12.0606 16.7514 10.6988 15.2959 9.04547 15.2959ZM9.04547 17.4442C9.61132 17.4442 10.0505 17.9147 10.0505 18.5184C10.0505 19.1231 9.61031 19.5925 9.04547 19.5925C8.47963 19.5925 8.04042 19.122 8.04042 18.5184C8.04042 17.9136 8.48063 17.4442 9.04547 17.4442ZM18.0909 17.4442C18.6568 17.4442 19.096 17.9147 19.096 18.5184C19.096 19.1231 18.6558 19.5925 18.0909 19.5925C17.5251 19.5925 17.0859 19.122 17.0859 18.5184C17.0859 17.9136 17.5261 17.4442 18.0909 17.4442Z"></path>
  </symbol>
  <symbol xmlns="http://www.w3.org/2000/svg" viewBox="0 0 18 18" id="iconoir_bell">
    <path d="M10.2975 15.75C10.1658 15.9775 9.97659 16.1664 9.74886 16.2977C9.52112 16.429 9.26287 16.4981 9 16.4981C8.73713 16.4981 8.47888 16.429 8.25114 16.2977C8.02341 16.1664 7.83421 15.9775 7.7025 15.75M13.5 6.3C13.5 5.02725 13.026 3.80625 12.1823 2.90625C11.3377 2.00625 10.1925 1.5 9 1.5C7.80675 1.5 6.66225 2.0055 5.81775 2.90625C4.974 3.80625 4.5 5.02725 4.5 6.3C4.5 11.9002 2.25 13.5 2.25 13.5H15.75C15.75 13.5 13.5 11.9002 13.5 6.3Z" stroke-width="1.5" stroke-linecap="round" stroke-linejoin="round"></path>
  </symbol>
  <symbol fill="none" xmlns="http://www.w3.org/2000/svg" viewBox="0 0 12 12" id="close-icon">
    <path d="M0.569963 0.0952841C0.70035 -0.0317614 0.911749 -0.0317614 1.04214 0.0952841L11.9021 10.6769C12.0325 10.804 12.0325 11.01 11.9021 11.137L11.4299 11.5971C11.2995 11.7241 11.0882 11.7241 10.9578 11.5971L0.0977901 1.01543C-0.0325968 0.888383 -0.0325966 0.682402 0.0977903 0.555357L0.569963 0.0952841Z" fill="#A3A3A3"></path>
    <path d="M0.0978911 11.4446C-0.0324958 11.3176 -0.0324958 11.1116 0.0978911 10.9846L10.9579 0.402905C11.0883 0.27586 11.2997 0.27586 11.43 0.402905L11.9022 0.862977C12.0326 0.990023 12.0326 1.196 11.9022 1.32305L1.04224 11.9047C0.91185 12.0318 0.700451 12.0318 0.570064 11.9047L0.0978911 11.4446Z" fill="#A3A3A3"></path>
  </symbol>
  <symbol xmlns="http://www.w3.org/2000/svg" viewBox="0 0 21 18" id="favorite-icon">
    <path d="M14.8476 0.355469C12.955 0.355469 11.2979 1.16274 10.265 2.5273C9.23208 1.16274 7.57502 0.355469 5.68241 0.355469C4.17586 0.357153 2.73151 0.951526 1.66622 2.00819C0.600924 3.06485 0.00169807 4.49751 0 5.99185C0 12.3555 9.51254 17.5064 9.91764 17.7192C10.0244 17.7761 10.1438 17.806 10.265 17.806C10.3862 17.806 10.5056 17.7761 10.6124 17.7192C11.0175 17.5064 20.53 12.3555 20.53 5.99185C20.5283 4.49751 19.9291 3.06485 18.8638 2.00819C17.7985 0.951526 16.3541 0.357153 14.8476 0.355469ZM10.265 16.2464C8.59144 15.2792 1.46643 10.8728 1.46643 5.99185C1.46788 4.88321 1.91253 3.82038 2.70287 3.03645C3.4932 2.25251 4.56471 1.81146 5.68241 1.81002C7.46504 1.81002 8.96171 2.75184 9.58678 4.26457C9.64202 4.39796 9.73599 4.51205 9.85675 4.59235C9.97752 4.67264 10.1196 4.71551 10.265 4.71551C10.4104 4.71551 10.5525 4.67264 10.6732 4.59235C10.794 4.51205 10.888 4.39796 10.9432 4.26457C11.5683 2.74911 13.065 1.81002 14.8476 1.81002C15.9653 1.81146 17.0368 2.25251 17.8271 3.03645C18.6175 3.82038 19.0621 4.88321 19.0636 5.99185C19.0636 10.8655 11.9367 15.2783 10.265 16.2464Z"/>
  </symbol>
  <symbol xmlns="http://www.w3.org/2000/svg" viewBox="0 0 21 21" id="profile-icon">
    <path d="M10.465 10.465C11.7812 10.465 13.0434 9.94221 13.9741 9.01156C14.9047 8.08091 15.4275 6.81868 15.4275 5.50254C15.4275 4.1864 14.9047 2.92417 13.9741 1.99352C13.0434 1.06287 11.7812 0.540039 10.465 0.540039C9.1489 0.540039 7.88667 1.06287 6.95602 1.99352C6.02537 2.92417 5.50254 4.1864 5.50254 5.50254C5.50254 6.81868 6.02537 8.08091 6.95602 9.01156C7.88667 9.94221 9.1489 10.465 10.465 10.465ZM13.7734 5.50254C13.7734 6.37996 13.4248 7.22145 12.8044 7.84188C12.184 8.46232 11.3425 8.81087 10.465 8.81087C9.58761 8.81087 8.74613 8.46232 8.12569 7.84188C7.50526 7.22145 7.15671 6.37996 7.15671 5.50254C7.15671 4.62511 7.50526 3.78363 8.12569 3.16319C8.74613 2.54276 9.58761 2.19421 10.465 2.19421C11.3425 2.19421 12.184 2.54276 12.8044 3.16319C13.4248 3.78363 13.7734 4.62511 13.7734 5.50254ZM20.39 18.7359C20.39 20.39 18.7359 20.39 18.7359 20.39H2.19421C2.19421 20.39 0.540039 20.39 0.540039 18.7359C0.540039 17.0817 2.19421 12.1192 10.465 12.1192C18.7359 12.1192 20.39 17.0817 20.39 18.7359ZM18.7359 18.7293C18.7342 18.3223 18.4811 17.0982 17.3596 15.9767C16.2811 14.8982 14.2514 13.7734 10.465 13.7734C6.677 13.7734 4.64899 14.8982 3.57047 15.9767C2.44895 17.0982 2.19751 18.3223 2.19421 18.7293H18.7359Z" fill="#262626"></path>
    <path d="M18.7359 18.7293C18.7342 18.3223 18.4811 17.0982 17.3596 15.9767C16.2811 14.8982 14.2514 13.7734 10.465 13.7734C6.677 13.7734 4.64899 14.8982 3.57047 15.9767C2.44895 17.0982 2.19751 18.3223 2.19421 18.7293H18.7359Z"></path>
    <path d="M13.7734 5.50254C13.7734 6.37996 13.4248 7.22145 12.8044 7.84188C12.184 8.46232 11.3425 8.81087 10.465 8.81087C9.58761 8.81087 8.74613 8.46232 8.12569 7.84188C7.50526 7.22145 7.15671 6.37996 7.15671 5.50254C7.15671 4.62511 7.50526 3.78363 8.12569 3.16319C8.74613 2.54276 9.58761 2.19421 10.465 2.19421C11.3425 2.19421 12.184 2.54276 12.8044 3.16319C13.4248 3.78363 13.7734 4.62511 13.7734 5.50254Z"></path>
  </symbol>
  <symbol fill="none" xmlns="http://www.w3.org/2000/svg" viewBox="0 0 14 15" id="search-icon-header">
    <path d="M11.0203 10.5777L13.522 13.0788C13.7173 13.274 13.7174 13.5907 13.5221 13.7859L13.2859 14.0221C13.0907 14.2174 12.774 14.2173 12.5788 14.022L10.0777 11.5203C9.0155 12.3718 7.69434 12.8349 6.33301 12.833C3.02101 12.833 0.333008 10.145 0.333008 6.83301C0.333008 3.52101 3.02101 0.833008 6.33301 0.833008C9.64501 0.833008 12.333 3.52101 12.333 6.83301C12.3349 8.19434 11.8718 9.5155 11.0203 10.5777ZM9.68301 10.083C10.5291 9.21293 11.0016 8.04663 10.9997 6.83301C10.9997 4.25501 8.91101 2.16634 6.33301 2.16634C3.75501 2.16634 1.66634 4.25501 1.66634 6.83301C1.66634 9.41101 3.75501 11.4997 6.33301 11.4997C7.54663 11.5016 8.71293 11.0291 9.58301 10.183L9.68301 10.083Z" fill="#262626"></path>
  </symbol>
  <symbol fill="none" xmlns="http://www.w3.org/2000/svg" viewBox="0 0 20 20" id="search-icon">
    <path d="M15.7222 14.3448L19.5409 18.1625C19.7362 18.3578 19.7362 18.6744 19.5409 18.8697L18.8697 19.5409C18.6744 19.7362 18.3578 19.7362 18.1625 19.5409L14.3448 15.7222C12.7927 16.9664 10.8621 17.6432 8.8729 17.6403C4.03328 17.6403 0.105469 13.7125 0.105469 8.8729C0.105469 4.03328 4.03328 0.105469 8.8729 0.105469C13.7125 0.105469 17.6403 4.03328 17.6403 8.8729C17.6432 10.8621 16.9664 12.7927 15.7222 14.3448ZM13.768 13.6219C15.0044 12.3505 15.6948 10.6463 15.692 8.8729C15.692 5.10583 12.64 2.05379 8.8729 2.05379C5.10583 2.05379 2.05379 5.10583 2.05379 8.8729C2.05379 12.64 5.10583 15.692 8.8729 15.692C10.6463 15.6948 12.3505 15.0044 13.6219 13.768L13.768 13.6219Z" fill="#262626"></path>
  </symbol>
	<symbol viewBox="0 0 80 38" xmlns="http://www.w3.org/2000/svg" id="logo-icon">
<path d="M0.941406 8.76943C0.941406 7.62914 1.15649 6.56738 1.58666 5.58414C2.01682 4.59407 2.63818 3.73715 3.45071 3.01338C4.27008 2.28278 5.26698 1.70922 6.4414 1.29271C7.62265 0.876201 8.95754 0.667945 10.4461 0.667945C11.7502 0.667945 12.9451 0.801092 14.0308 1.06739C15.1233 1.32685 16.1372 1.72629 17.0727 2.26571L15.5773 4.72381C15.2974 4.53945 14.973 4.37558 14.6043 4.23219C14.2424 4.0888 13.8532 3.96931 13.4367 3.87371C13.0271 3.77129 12.6003 3.69277 12.1565 3.63815C11.7195 3.58352 11.2859 3.55621 10.8557 3.55621C9.81787 3.55621 8.89267 3.68594 8.08013 3.94541C7.26759 4.19805 6.58138 4.55652 6.02148 5.02083C5.4684 5.47831 5.04506 6.02796 4.75146 6.6698C4.46468 7.30481 4.32129 8.00468 4.32129 8.76943C4.32129 9.56148 4.47151 10.2887 4.77194 10.951C5.07238 11.6133 5.50596 12.1869 6.07269 12.6717C6.64624 13.1496 7.3427 13.5252 8.16207 13.7983C8.98826 14.0646 9.92029 14.1977 10.9582 14.1977C11.4293 14.1977 11.897 14.1636 12.3613 14.0953C12.8256 14.027 13.2729 13.9348 13.703 13.8188C14.14 13.6959 14.56 13.5525 14.9628 13.3886C15.3657 13.2179 15.7412 13.0335 16.0894 12.8355L17.5848 15.2936C16.7108 15.8535 15.7002 16.2939 14.5531 16.6149C13.406 16.9289 12.1872 17.086 10.8967 17.086C9.25114 17.086 7.80701 16.8743 6.56431 16.451C5.3216 16.0208 4.28374 15.4336 3.45071 14.6893C2.61769 13.9383 1.98951 13.0574 1.56617 12.0469C1.14966 11.0295 0.941406 9.93702 0.941406 8.76943Z" fill="#262626"/>
<path d="M21.7255 8.82064C21.7255 7.61207 21.9474 6.50593 22.3912 5.5022C22.8351 4.49848 23.4564 3.63815 24.2553 2.9212C25.061 2.19743 26.0238 1.63753 27.1436 1.2415C28.2702 0.845474 29.5163 0.647461 30.8819 0.647461C32.2407 0.647461 33.4834 0.845474 34.61 1.2415C35.7367 1.63753 36.6994 2.19743 37.4983 2.9212C38.304 3.63815 38.9288 4.49848 39.3726 5.5022C39.8164 6.50593 40.0383 7.61207 40.0383 8.82064C40.0383 10.036 39.8164 11.1524 39.3726 12.1698C38.9288 13.1803 38.304 14.0509 37.4983 14.7815C36.6994 15.5121 35.7367 16.0823 34.61 16.4919C33.4834 16.8948 32.2407 17.0962 30.8819 17.0962C29.5163 17.0962 28.2702 16.8948 27.1436 16.4919C26.0238 16.0823 25.061 15.5121 24.2553 14.7815C23.4564 14.0509 22.8351 13.1803 22.3912 12.1698C21.9474 11.1524 21.7255 10.036 21.7255 8.82064ZM24.9722 8.82064C24.9722 9.64683 25.119 10.3911 25.4126 11.0534C25.7131 11.7157 26.1262 12.2825 26.6519 12.7536C27.1845 13.2179 27.8093 13.5764 28.5262 13.829C29.25 14.0816 30.0352 14.208 30.8819 14.208C31.7286 14.208 32.5104 14.0816 33.2274 13.829C33.9511 13.5764 34.5759 13.2179 35.1017 12.7536C35.6274 12.2825 36.0405 11.7157 36.3409 11.0534C36.6414 10.3911 36.7916 9.64683 36.7916 8.82064C36.7916 7.99444 36.6414 7.2536 36.3409 6.59811C36.0405 5.94261 35.6274 5.38954 35.1017 4.93889C34.5759 4.48141 33.9511 4.13318 33.2274 3.8942C32.5104 3.65522 31.7286 3.53573 30.8819 3.53573C30.0352 3.53573 29.25 3.65522 28.5262 3.8942C27.8093 4.13318 27.1845 4.48141 26.6519 4.93889C26.1262 5.38954 25.7131 5.94261 25.4126 6.59811C25.119 7.2536 24.9722 7.99444 24.9722 8.82064Z" fill="#C57100"/>
<path d="M52.5059 5.5022L54.0422 3.6279H44.4249V0.862544H60.085L51.1232 12.1186L49.5254 14.1055H59.5831V16.8709H43.6362L52.5059 5.5022Z" fill="#262626"/>
<path d="M69.06 12.9072L62.0646 0.862544H65.7415L70.668 9.96775L75.533 0.862544H79.2099L72.3067 12.8867V16.8709H69.06V12.9072Z" fill="#262626"/>
<path d="M1.90416 20.8395H5.1509V25.0182H15.1062V20.8395H18.3632V36.8478H15.1062V27.7938H5.1509V36.8478H1.90416V20.8395Z" fill="#262626"/>
<path d="M21.469 28.7976C21.469 27.589 21.6909 26.4828 22.1347 25.4791C22.5785 24.4754 23.1999 23.6151 23.9988 22.8981C24.8045 22.1743 25.7672 21.6144 26.887 21.2184C28.0136 20.8224 29.2598 20.6244 30.6254 20.6244C31.9842 20.6244 33.2269 20.8224 34.3535 21.2184C35.4801 21.6144 36.4429 22.1743 37.2418 22.8981C38.0475 23.6151 38.6722 24.4754 39.1161 25.4791C39.5599 26.4828 39.7818 27.589 39.7818 28.7976C39.7818 30.0129 39.5599 31.1293 39.1161 32.1467C38.6722 33.1573 38.0475 34.0278 37.2418 34.7584C36.4429 35.489 35.4801 36.0592 34.3535 36.4689C33.2269 36.8717 31.9842 37.0732 30.6254 37.0732C29.2598 37.0732 28.0136 36.8717 26.887 36.4689C25.7672 36.0592 24.8045 35.489 23.9988 34.7584C23.1999 34.0278 22.5785 33.1573 22.1347 32.1467C21.6909 31.1293 21.469 30.0129 21.469 28.7976ZM24.7157 28.7976C24.7157 29.6237 24.8625 30.368 25.1561 31.0303C25.4565 31.6926 25.8696 32.2594 26.3954 32.7305C26.928 33.1948 27.5528 33.5533 28.2697 33.8059C28.9935 34.0586 29.7787 34.1849 30.6254 34.1849C31.4721 34.1849 32.2539 34.0586 32.9708 33.8059C33.6946 33.5533 34.3194 33.1948 34.8451 32.7305C35.3709 32.2594 35.784 31.6926 36.0844 31.0303C36.3848 30.368 36.5351 29.6237 36.5351 28.7976C36.5351 27.9714 36.3848 27.2305 36.0844 26.575C35.784 25.9195 35.3709 25.3665 34.8451 24.9158C34.3194 24.4583 33.6946 24.1101 32.9708 23.8711C32.2539 23.6321 31.4721 23.5126 30.6254 23.5126C29.7787 23.5126 28.9935 23.6321 28.2697 23.8711C27.5528 24.1101 26.928 24.4583 26.3954 24.9158C25.8696 25.3665 25.4565 25.9195 25.1561 26.575C24.8625 27.2305 24.7157 27.9714 24.7157 28.7976Z" fill="#C57100"/>
<path d="M42.8978 20.8395H46.1446L51.9621 26.6774L57.7796 20.8395H61.0263V36.8478H57.7796V25.3357L51.9621 30.9381L46.1446 25.3357V36.8478H42.8978V20.8395Z" fill="#262626"/>
<path d="M65.584 20.8395H79.2162V23.6868H68.8307V26.8823H78.0281V29.5555H68.8307V34.0108H79.4313V36.8478H65.584V20.8395Z" fill="#262626"/>
</symbol>
</svg>