<svg width="0" height="0" class="hidden">
  <symbol fill="none" xmlns="http://www.w3.org/2000/svg" viewBox="0 0 15 8" id="burger-menu-arrow">
    <path d="M7.11655 7.50847C7.27225 7.48602 7.41664 7.41504 7.52972 7.30579L13.7647 1.3202C13.9222 1.18729 14.0178 0.995225 14.0291 0.7896C14.0405 0.583796 13.9665 0.382517 13.8246 0.233082C13.6828 0.0836425 13.4855 -0.000556517 13.2795 0.000138217C13.0734 0.000833905 12.8768 0.0864262 12.7359 0.236908L7.01527 5.73172L1.29467 0.236907C1.15375 0.0864251 0.957169 0.000831892 0.751018 0.000137122C0.545041 -0.000558602 0.347763 0.0836413 0.205992 0.233081C0.0640341 0.38252 -0.00990426 0.5838 0.00140344 0.789599C0.0127111 0.995229 0.108391 1.18729 0.265834 1.3202L6.50083 7.30579C6.66471 7.46323 6.89121 7.53786 7.11649 7.50829L7.11655 7.50847Z" fill="#262626"></path>
  </symbol>
  <symbol xmlns="http://www.w3.org/2000/svg" viewBox="0 0 24 22" id="card-icon">
    <path d="M1.00505 0.257856C0.452274 0.257856 0 0.741223 0 1.332C0 1.92279 0.452274 2.40615 1.00505 2.40615H3.23527L5.87353 13.6847C6.09665 14.6407 6.89868 15.2959 7.82032 15.2959H19.3473C20.2538 15.2959 21.0237 14.6536 21.2629 13.718L23.87 3.4803H7.03537L7.5379 5.6286H21.2629L19.3473 13.1476H7.82032L5.18205 1.86908C5.07335 1.40645 4.82251 0.996208 4.46971 0.704068C4.11691 0.411927 3.68257 0.254799 3.23627 0.257856H1.00505ZM18.0909 15.2959C16.4376 15.2959 15.0758 16.7514 15.0758 18.5184C15.0758 20.2853 16.4376 21.7408 18.0909 21.7408C19.7443 21.7408 21.1061 20.2853 21.1061 18.5184C21.1061 16.7514 19.7443 15.2959 18.0909 15.2959ZM9.04547 15.2959C7.39216 15.2959 6.03032 16.7514 6.03032 18.5184C6.03032 20.2853 7.39216 21.7408 9.04547 21.7408C10.6988 21.7408 12.0606 20.2853 12.0606 18.5184C12.0606 16.7514 10.6988 15.2959 9.04547 15.2959ZM9.04547 17.4442C9.61132 17.4442 10.0505 17.9147 10.0505 18.5184C10.0505 19.1231 9.61031 19.5925 9.04547 19.5925C8.47963 19.5925 8.04042 19.122 8.04042 18.5184C8.04042 17.9136 8.48063 17.4442 9.04547 17.4442ZM18.0909 17.4442C18.6568 17.4442 19.096 17.9147 19.096 18.5184C19.096 19.1231 18.6558 19.5925 18.0909 19.5925C17.5251 19.5925 17.0859 19.122 17.0859 18.5184C17.0859 17.9136 17.5261 17.4442 18.0909 17.4442Z"></path>
  </symbol>
  <symbol fill="none" xmlns="http://www.w3.org/2000/svg" viewBox="0 0 12 12" id="close-icon">
    <path d="M0.569963 0.0952841C0.70035 -0.0317614 0.911749 -0.0317614 1.04214 0.0952841L11.9021 10.6769C12.0325 10.804 12.0325 11.01 11.9021 11.137L11.4299 11.5971C11.2995 11.7241 11.0882 11.7241 10.9578 11.5971L0.0977901 1.01543C-0.0325968 0.888383 -0.0325966 0.682402 0.0977903 0.555357L0.569963 0.0952841Z" fill="#A3A3A3"></path>
    <path d="M0.0978911 11.4446C-0.0324958 11.3176 -0.0324958 11.1116 0.0978911 10.9846L10.9579 0.402905C11.0883 0.27586 11.2997 0.27586 11.43 0.402905L11.9022 0.862977C12.0326 0.990023 12.0326 1.196 11.9022 1.32305L1.04224 11.9047C0.91185 12.0318 0.700451 12.0318 0.570064 11.9047L0.0978911 11.4446Z" fill="#A3A3A3"></path>
  </symbol>
  <symbol xmlns="http://www.w3.org/2000/svg" viewBox="0 0 21 18" id="favorite-icon">
    <path d="M14.8476 0.355469C12.955 0.355469 11.2979 1.16274 10.265 2.5273C9.23208 1.16274 7.57502 0.355469 5.68241 0.355469C4.17586 0.357153 2.73151 0.951526 1.66622 2.00819C0.600924 3.06485 0.00169807 4.49751 0 5.99185C0 12.3555 9.51254 17.5064 9.91764 17.7192C10.0244 17.7761 10.1438 17.806 10.265 17.806C10.3862 17.806 10.5056 17.7761 10.6124 17.7192C11.0175 17.5064 20.53 12.3555 20.53 5.99185C20.5283 4.49751 19.9291 3.06485 18.8638 2.00819C17.7985 0.951526 16.3541 0.357153 14.8476 0.355469ZM10.265 16.2464C8.59144 15.2792 1.46643 10.8728 1.46643 5.99185C1.46788 4.88321 1.91253 3.82038 2.70287 3.03645C3.4932 2.25251 4.56471 1.81146 5.68241 1.81002C7.46504 1.81002 8.96171 2.75184 9.58678 4.26457C9.64202 4.39796 9.73599 4.51205 9.85675 4.59235C9.97752 4.67264 10.1196 4.71551 10.265 4.71551C10.4104 4.71551 10.5525 4.67264 10.6732 4.59235C10.794 4.51205 10.888 4.39796 10.9432 4.26457C11.5683 2.74911 13.065 1.81002 14.8476 1.81002C15.9653 1.81146 17.0368 2.25251 17.8271 3.03645C18.6175 3.82038 19.0621 4.88321 19.0636 5.99185C19.0636 10.8655 11.9367 15.2783 10.265 16.2464Z"/>
  </symbol>
  <symbol fill="none" xmlns="http://www.w3.org/2000/svg" viewBox="0 0 24 24" id="profile-icon">
    <path d="M11.9995 11.9995C13.519 11.9995 14.9763 11.3959 16.0507 10.3215C17.1251 9.24701 17.7288 7.78975 17.7288 6.27026C17.7288 4.75077 17.1251 3.29352 16.0507 2.21907C14.9763 1.14463 13.519 0.541016 11.9995 0.541016C10.48 0.541016 9.02276 1.14463 7.94832 2.21907C6.87388 3.29352 6.27026 4.75077 6.27026 6.27026C6.27026 7.78975 6.87388 9.24701 7.94832 10.3215C9.02276 11.3959 10.48 11.9995 11.9995 11.9995ZM15.819 6.27026C15.819 7.28326 15.4166 8.25476 14.7003 8.97106C13.984 9.68735 13.0125 10.0898 11.9995 10.0898C10.9865 10.0898 10.015 9.68735 9.29872 8.97106C8.58242 8.25476 8.18001 7.28326 8.18001 6.27026C8.18001 5.25727 8.58242 4.28577 9.29872 3.56947C10.015 2.85318 10.9865 2.45077 11.9995 2.45077C13.0125 2.45077 13.984 2.85318 14.7003 3.56947C15.4166 4.28577 15.819 5.25727 15.819 6.27026ZM23.458 21.5483C23.458 23.458 21.5483 23.458 21.5483 23.458H2.45077C2.45077 23.458 0.541016 23.458 0.541016 21.5483C0.541016 19.6385 2.45077 13.9093 11.9995 13.9093C21.5483 13.9093 23.458 19.6385 23.458 21.5483ZM21.5483 21.5406C21.5463 21.0708 21.2542 19.6576 19.9593 18.3628C18.7142 17.1176 16.3709 15.819 11.9995 15.819C7.62619 15.819 5.28483 17.1176 4.03968 18.3628C2.74487 19.6576 2.45458 21.0708 2.45077 21.5406H21.5483Z" fill="#262626"></path>
  </symbol>
  <symbol fill="none" xmlns="http://www.w3.org/2000/svg" viewBox="0 0 14 15" id="search-icon-header">
    <path d="M11.0203 10.5777L13.522 13.0788C13.7173 13.274 13.7174 13.5907 13.5221 13.7859L13.2859 14.0221C13.0907 14.2174 12.774 14.2173 12.5788 14.022L10.0777 11.5203C9.0155 12.3718 7.69434 12.8349 6.33301 12.833C3.02101 12.833 0.333008 10.145 0.333008 6.83301C0.333008 3.52101 3.02101 0.833008 6.33301 0.833008C9.64501 0.833008 12.333 3.52101 12.333 6.83301C12.3349 8.19434 11.8718 9.5155 11.0203 10.5777ZM9.68301 10.083C10.5291 9.21293 11.0016 8.04663 10.9997 6.83301C10.9997 4.25501 8.91101 2.16634 6.33301 2.16634C3.75501 2.16634 1.66634 4.25501 1.66634 6.83301C1.66634 9.41101 3.75501 11.4997 6.33301 11.4997C7.54663 11.5016 8.71293 11.0291 9.58301 10.183L9.68301 10.083Z" fill="#262626"></path>
  </symbol>
  <symbol fill="none" xmlns="http://www.w3.org/2000/svg" viewBox="0 0 20 20" id="search-icon">
    <path d="M15.7222 14.3448L19.5409 18.1625C19.7362 18.3578 19.7362 18.6744 19.5409 18.8697L18.8697 19.5409C18.6744 19.7362 18.3578 19.7362 18.1625 19.5409L14.3448 15.7222C12.7927 16.9664 10.8621 17.6432 8.8729 17.6403C4.03328 17.6403 0.105469 13.7125 0.105469 8.8729C0.105469 4.03328 4.03328 0.105469 8.8729 0.105469C13.7125 0.105469 17.6403 4.03328 17.6403 8.8729C17.6432 10.8621 16.9664 12.7927 15.7222 14.3448ZM13.768 13.6219C15.0044 12.3505 15.6948 10.6463 15.692 8.8729C15.692 5.10583 12.64 2.05379 8.8729 2.05379C5.10583 2.05379 2.05379 5.10583 2.05379 8.8729C2.05379 12.64 5.10583 15.692 8.8729 15.692C10.6463 15.6948 12.3505 15.0044 13.6219 13.768L13.768 13.6219Z" fill="#262626"></path>
  </symbol>
</svg>