<svg width="56" height="26" viewBox="0 0 56 26" fill="none" xmlns="http://www.w3.org/2000/svg">
<path d="M0.756744 5.76892C0.756744 4.97791 0.905946 4.24138 1.20435 3.55931C1.50275 2.87251 1.93378 2.27807 2.49744 1.77599C3.06582 1.26918 3.75736 0.871303 4.57206 0.582372C5.39148 0.293441 6.31748 0.148975 7.35006 0.148975C8.25474 0.148975 9.08364 0.241339 9.83676 0.426065C10.5946 0.606055 11.298 0.883144 11.9469 1.25733L10.9096 2.9625C10.7154 2.83461 10.4904 2.72094 10.2346 2.62147C9.98359 2.522 9.71361 2.43911 9.42468 2.3728C9.14048 2.30175 8.84445 2.24728 8.53657 2.20939C8.23343 2.17149 7.93266 2.15255 7.63425 2.15255C6.91429 2.15255 6.27249 2.24254 5.70883 2.42253C5.14518 2.59778 4.66916 2.84645 4.28076 3.16854C3.89709 3.48589 3.60343 3.86719 3.39975 4.31242C3.20082 4.75293 3.10135 5.23842 3.10135 5.76892C3.10135 6.31836 3.20555 6.82281 3.41396 7.28226C3.62237 7.7417 3.92314 8.13958 4.31628 8.47587C4.71415 8.80743 5.19728 9.06795 5.76567 9.25741C6.3388 9.44213 6.98534 9.5345 7.7053 9.5345C8.03212 9.5345 8.35658 9.51082 8.67867 9.46345C9.00075 9.41608 9.311 9.35214 9.6094 9.27162C9.91254 9.18636 10.2038 9.08689 10.4833 8.97321C10.7628 8.8548 11.0233 8.72691 11.2648 8.58955L12.3021 10.2947C11.6959 10.6831 10.9949 10.9886 10.1991 11.2112C9.40336 11.4291 8.55788 11.5381 7.66267 11.5381C6.52116 11.5381 5.51937 11.3912 4.65731 11.0976C3.79526 10.7992 3.0753 10.3918 2.49744 9.87553C1.91957 9.35451 1.48381 8.74349 1.19014 8.04248C0.90121 7.33673 0.756744 6.57888 0.756744 5.76892Z" fill="#262626"/>
<path d="M15.1745 5.80445C15.1745 4.96607 15.3285 4.19875 15.6364 3.50247C15.9442 2.80619 16.3753 2.20939 16.9294 1.71204C17.4884 1.20997 18.1562 0.821569 18.933 0.546848C19.7145 0.272126 20.579 0.134766 21.5263 0.134766C22.4689 0.134766 23.3309 0.272126 24.1125 0.546848C24.894 0.821569 25.5618 1.20997 26.116 1.71204C26.6749 2.20939 27.1083 2.80619 27.4162 3.50247C27.7241 4.19875 27.878 4.96607 27.878 5.80445C27.878 6.64756 27.7241 7.42199 27.4162 8.12774C27.1083 8.82875 26.6749 9.43266 26.116 9.93948C25.5618 10.4463 24.894 10.8418 24.1125 11.126C23.3309 11.4054 22.4689 11.5452 21.5263 11.5452C20.579 11.5452 19.7145 11.4054 18.933 11.126C18.1562 10.8418 17.4884 10.4463 16.9294 9.93948C16.3753 9.43266 15.9442 8.82875 15.6364 8.12774C15.3285 7.42199 15.1745 6.64756 15.1745 5.80445ZM17.4268 5.80445C17.4268 6.37757 17.5286 6.89386 17.7323 7.35331C17.9407 7.81275 18.2273 8.20589 18.592 8.53271C18.9614 8.8548 19.3948 9.10347 19.8922 9.27872C20.3942 9.45398 20.939 9.5416 21.5263 9.5416C22.1136 9.5416 22.656 9.45398 23.1533 9.27872C23.6554 9.10347 24.0888 8.8548 24.4535 8.53271C24.8182 8.20589 25.1048 7.81275 25.3132 7.35331C25.5216 6.89386 25.6258 6.37757 25.6258 5.80445C25.6258 5.23132 25.5216 4.7174 25.3132 4.26269C25.1048 3.80798 24.8182 3.42432 24.4535 3.1117C24.0888 2.79435 23.6554 2.55279 23.1533 2.38701C22.656 2.22123 22.1136 2.13834 21.5263 2.13834C20.939 2.13834 20.3942 2.22123 19.8922 2.38701C19.3948 2.55279 18.9614 2.79435 18.592 3.1117C18.2273 3.42432 17.9407 3.80798 17.7323 4.26269C17.5286 4.7174 17.4268 5.23132 17.4268 5.80445Z" fill="#C57100"/>
<path d="M36.5267 3.50247L37.5924 2.20228H30.9209V0.283968H41.7843L35.5675 8.09221L34.4592 9.47055H41.4361V11.3889H30.3739L36.5267 3.50247Z" fill="#262626"/>
<path d="M48.0102 8.63929L43.1576 0.283968H45.7082L49.1256 6.60019L52.5004 0.283968H55.0511L50.2624 8.62508V11.3889H48.0102V8.63929Z" fill="#262626"/>
<path d="M1.4246 14.1418H3.67684V17.0406H10.5828V14.1418H12.8421V25.2467H10.5828V18.966H3.67684V25.2467H1.4246V14.1418Z" fill="#262626"/>
<path d="M14.9966 19.6623C14.9966 18.8239 15.1505 18.0566 15.4584 17.3603C15.7663 16.6641 16.1973 16.0672 16.7515 15.5699C17.3104 15.0678 17.9783 14.6794 18.7551 14.4047C19.5366 14.13 20.401 13.9926 21.3483 13.9926C22.2909 13.9926 23.153 14.13 23.9345 14.4047C24.716 14.6794 25.3839 15.0678 25.9381 15.5699C26.497 16.0672 26.9304 16.6641 27.2383 17.3603C27.5461 18.0566 27.7001 18.8239 27.7001 19.6623C27.7001 20.5054 27.5461 21.2799 27.2383 21.9856C26.9304 22.6866 26.497 23.2905 25.9381 23.7973C25.3839 24.3042 24.716 24.6997 23.9345 24.9839C23.153 25.2633 22.2909 25.403 21.3483 25.403C20.401 25.403 19.5366 25.2633 18.7551 24.9839C17.9783 24.6997 17.3104 24.3042 16.7515 23.7973C16.1973 23.2905 15.7663 22.6866 15.4584 21.9856C15.1505 21.2799 14.9966 20.5054 14.9966 19.6623ZM17.2488 19.6623C17.2488 20.2354 17.3507 20.7517 17.5543 21.2112C17.7627 21.6706 18.0493 22.0638 18.414 22.3906C18.7835 22.7127 19.2169 22.9613 19.7142 23.1366C20.2163 23.3118 20.761 23.3995 21.3483 23.3995C21.9357 23.3995 22.478 23.3118 22.9753 23.1366C23.4774 22.9613 23.9108 22.7127 24.2755 22.3906C24.6402 22.0638 24.9268 21.6706 25.1352 21.2112C25.3436 20.7517 25.4478 20.2354 25.4478 19.6623C25.4478 19.0892 25.3436 18.5753 25.1352 18.1206C24.9268 17.6658 24.6402 17.2822 24.2755 16.9696C23.9108 16.6522 23.4774 16.4107 22.9753 16.2449C22.478 16.0791 21.9357 15.9962 21.3483 15.9962C20.761 15.9962 20.2163 16.0791 19.7142 16.2449C19.2169 16.4107 18.7835 16.6522 18.414 16.9696C18.0493 17.2822 17.7627 17.6658 17.5543 18.1206C17.3507 18.5753 17.2488 19.0892 17.2488 19.6623Z" fill="#C57100"/>
<path d="M29.8616 14.1418H32.1139L36.1494 18.1916L40.185 14.1418H42.4373V25.2467H40.185V17.2609L36.1494 21.1472L32.1139 17.2609V25.2467H29.8616V14.1418Z" fill="#262626"/>
<path d="M45.5989 14.1418H55.0555V16.117H47.8512V18.3337H54.2313V20.1881H47.8512V23.2787H55.2047V25.2467H45.5989V14.1418Z" fill="#262626"/>
</svg>
