<svg width="80" height="38" viewBox="0 0 80 38" fill="none" xmlns="http://www.w3.org/2000/svg">
<path d="M0.941406 8.76943C0.941406 7.62914 1.15649 6.56738 1.58666 5.58414C2.01682 4.59407 2.63818 3.73715 3.45071 3.01338C4.27008 2.28278 5.26698 1.70922 6.4414 1.29271C7.62265 0.876201 8.95754 0.667945 10.4461 0.667945C11.7502 0.667945 12.9451 0.801092 14.0308 1.06739C15.1233 1.32685 16.1372 1.72629 17.0727 2.26571L15.5773 4.72381C15.2974 4.53945 14.973 4.37558 14.6043 4.23219C14.2424 4.0888 13.8532 3.96931 13.4367 3.87371C13.0271 3.77129 12.6003 3.69277 12.1565 3.63815C11.7195 3.58352 11.2859 3.55621 10.8557 3.55621C9.81787 3.55621 8.89267 3.68594 8.08013 3.94541C7.26759 4.19805 6.58138 4.55652 6.02148 5.02083C5.4684 5.47831 5.04506 6.02796 4.75146 6.6698C4.46468 7.30481 4.32129 8.00468 4.32129 8.76943C4.32129 9.56148 4.47151 10.2887 4.77194 10.951C5.07238 11.6133 5.50596 12.1869 6.07269 12.6717C6.64624 13.1496 7.3427 13.5252 8.16207 13.7983C8.98826 14.0646 9.92029 14.1977 10.9582 14.1977C11.4293 14.1977 11.897 14.1636 12.3613 14.0953C12.8256 14.027 13.2729 13.9348 13.703 13.8188C14.14 13.6959 14.56 13.5525 14.9628 13.3886C15.3657 13.2179 15.7412 13.0335 16.0894 12.8355L17.5848 15.2936C16.7108 15.8535 15.7002 16.2939 14.5531 16.6149C13.406 16.9289 12.1872 17.086 10.8967 17.086C9.25114 17.086 7.80701 16.8743 6.56431 16.451C5.3216 16.0208 4.28374 15.4336 3.45071 14.6893C2.61769 13.9383 1.98951 13.0574 1.56617 12.0469C1.14966 11.0295 0.941406 9.93702 0.941406 8.76943Z" fill="#262626"/>
<path d="M21.7255 8.82064C21.7255 7.61207 21.9474 6.50593 22.3912 5.5022C22.8351 4.49848 23.4564 3.63815 24.2553 2.9212C25.061 2.19743 26.0238 1.63753 27.1436 1.2415C28.2702 0.845474 29.5163 0.647461 30.8819 0.647461C32.2407 0.647461 33.4834 0.845474 34.61 1.2415C35.7367 1.63753 36.6994 2.19743 37.4983 2.9212C38.304 3.63815 38.9288 4.49848 39.3726 5.5022C39.8164 6.50593 40.0383 7.61207 40.0383 8.82064C40.0383 10.036 39.8164 11.1524 39.3726 12.1698C38.9288 13.1803 38.304 14.0509 37.4983 14.7815C36.6994 15.5121 35.7367 16.0823 34.61 16.4919C33.4834 16.8948 32.2407 17.0962 30.8819 17.0962C29.5163 17.0962 28.2702 16.8948 27.1436 16.4919C26.0238 16.0823 25.061 15.5121 24.2553 14.7815C23.4564 14.0509 22.8351 13.1803 22.3912 12.1698C21.9474 11.1524 21.7255 10.036 21.7255 8.82064ZM24.9722 8.82064C24.9722 9.64683 25.119 10.3911 25.4126 11.0534C25.7131 11.7157 26.1262 12.2825 26.6519 12.7536C27.1845 13.2179 27.8093 13.5764 28.5262 13.829C29.25 14.0816 30.0352 14.208 30.8819 14.208C31.7286 14.208 32.5104 14.0816 33.2274 13.829C33.9511 13.5764 34.5759 13.2179 35.1017 12.7536C35.6274 12.2825 36.0405 11.7157 36.3409 11.0534C36.6414 10.3911 36.7916 9.64683 36.7916 8.82064C36.7916 7.99444 36.6414 7.2536 36.3409 6.59811C36.0405 5.94261 35.6274 5.38954 35.1017 4.93889C34.5759 4.48141 33.9511 4.13318 33.2274 3.8942C32.5104 3.65522 31.7286 3.53573 30.8819 3.53573C30.0352 3.53573 29.25 3.65522 28.5262 3.8942C27.8093 4.13318 27.1845 4.48141 26.6519 4.93889C26.1262 5.38954 25.7131 5.94261 25.4126 6.59811C25.119 7.2536 24.9722 7.99444 24.9722 8.82064Z" fill="#C57100"/>
<path d="M52.5059 5.5022L54.0422 3.6279H44.4249V0.862544H60.085L51.1232 12.1186L49.5254 14.1055H59.5831V16.8709H43.6362L52.5059 5.5022Z" fill="#262626"/>
<path d="M69.06 12.9072L62.0646 0.862544H65.7415L70.668 9.96775L75.533 0.862544H79.2099L72.3067 12.8867V16.8709H69.06V12.9072Z" fill="#262626"/>
<path d="M1.90416 20.8395H5.1509V25.0182H15.1062V20.8395H18.3632V36.8478H15.1062V27.7938H5.1509V36.8478H1.90416V20.8395Z" fill="#262626"/>
<path d="M21.469 28.7976C21.469 27.589 21.6909 26.4828 22.1347 25.4791C22.5785 24.4754 23.1999 23.6151 23.9988 22.8981C24.8045 22.1743 25.7672 21.6144 26.887 21.2184C28.0136 20.8224 29.2598 20.6244 30.6254 20.6244C31.9842 20.6244 33.2269 20.8224 34.3535 21.2184C35.4801 21.6144 36.4429 22.1743 37.2418 22.8981C38.0475 23.6151 38.6722 24.4754 39.1161 25.4791C39.5599 26.4828 39.7818 27.589 39.7818 28.7976C39.7818 30.0129 39.5599 31.1293 39.1161 32.1467C38.6722 33.1573 38.0475 34.0278 37.2418 34.7584C36.4429 35.489 35.4801 36.0592 34.3535 36.4689C33.2269 36.8717 31.9842 37.0732 30.6254 37.0732C29.2598 37.0732 28.0136 36.8717 26.887 36.4689C25.7672 36.0592 24.8045 35.489 23.9988 34.7584C23.1999 34.0278 22.5785 33.1573 22.1347 32.1467C21.6909 31.1293 21.469 30.0129 21.469 28.7976ZM24.7157 28.7976C24.7157 29.6237 24.8625 30.368 25.1561 31.0303C25.4565 31.6926 25.8696 32.2594 26.3954 32.7305C26.928 33.1948 27.5528 33.5533 28.2697 33.8059C28.9935 34.0586 29.7787 34.1849 30.6254 34.1849C31.4721 34.1849 32.2539 34.0586 32.9708 33.8059C33.6946 33.5533 34.3194 33.1948 34.8451 32.7305C35.3709 32.2594 35.784 31.6926 36.0844 31.0303C36.3848 30.368 36.5351 29.6237 36.5351 28.7976C36.5351 27.9714 36.3848 27.2305 36.0844 26.575C35.784 25.9195 35.3709 25.3665 34.8451 24.9158C34.3194 24.4583 33.6946 24.1101 32.9708 23.8711C32.2539 23.6321 31.4721 23.5126 30.6254 23.5126C29.7787 23.5126 28.9935 23.6321 28.2697 23.8711C27.5528 24.1101 26.928 24.4583 26.3954 24.9158C25.8696 25.3665 25.4565 25.9195 25.1561 26.575C24.8625 27.2305 24.7157 27.9714 24.7157 28.7976Z" fill="#C57100"/>
<path d="M42.8978 20.8395H46.1446L51.9621 26.6774L57.7796 20.8395H61.0263V36.8478H57.7796V25.3357L51.9621 30.9381L46.1446 25.3357V36.8478H42.8978V20.8395Z" fill="#262626"/>
<path d="M65.584 20.8395H79.2162V23.6868H68.8307V26.8823H78.0281V29.5555H68.8307V34.0108H79.4313V36.8478H65.584V20.8395Z" fill="#262626"/>
</svg>
