<svg width="14" height="15" viewBox="0 0 14 15" fill="none" xmlns="http://www.w3.org/2000/svg">
<path d="M11.0203 10.5777L13.522 13.0788C13.7173 13.274 13.7174 13.5907 13.5221 13.7859L13.2859 14.0221C13.0907 14.2174 12.774 14.2173 12.5788 14.022L10.0777 11.5203C9.0155 12.3718 7.69434 12.8349 6.33301 12.833C3.02101 12.833 0.333008 10.145 0.333008 6.83301C0.333008 3.52101 3.02101 0.833008 6.33301 0.833008C9.64501 0.833008 12.333 3.52101 12.333 6.83301C12.3349 8.19434 11.8718 9.5155 11.0203 10.5777ZM9.68301 10.083C10.5291 9.21293 11.0016 8.04663 10.9997 6.83301C10.9997 4.25501 8.91101 2.16634 6.33301 2.16634C3.75501 2.16634 1.66634 4.25501 1.66634 6.83301C1.66634 9.41101 3.75501 11.4997 6.33301 11.4997C7.54663 11.5016 8.71293 11.0291 9.58301 10.183L9.68301 10.083Z" fill="#262626"/>
</svg>
