<svg width="20" height="20" viewBox="0 0 20 20" fill="none" xmlns="http://www.w3.org/2000/svg">
<path d="M15.7222 14.3448L19.5409 18.1625C19.7362 18.3578 19.7362 18.6744 19.5409 18.8697L18.8697 19.5409C18.6744 19.7362 18.3578 19.7362 18.1625 19.5409L14.3448 15.7222C12.7927 16.9664 10.8621 17.6432 8.8729 17.6403C4.03328 17.6403 0.105469 13.7125 0.105469 8.8729C0.105469 4.03328 4.03328 0.105469 8.8729 0.105469C13.7125 0.105469 17.6403 4.03328 17.6403 8.8729C17.6432 10.8621 16.9664 12.7927 15.7222 14.3448ZM13.768 13.6219C15.0044 12.3505 15.6948 10.6463 15.692 8.8729C15.692 5.10583 12.64 2.05379 8.8729 2.05379C5.10583 2.05379 2.05379 5.10583 2.05379 8.8729C2.05379 12.64 5.10583 15.692 8.8729 15.692C10.6463 15.6948 12.3505 15.0044 13.6219 13.768L13.768 13.6219Z" fill="#262626"/>
</svg>
