<svg width="16" height="16" viewBox="0 0 16 16" fill="none" xmlns="http://www.w3.org/2000/svg">
<g clip-path="url(#clip0_625_1821)">
<path d="M14.6673 8.44404C14.6088 8.44438 14.5509 8.43317 14.4967 8.41105C14.4426 8.38893 14.3933 8.35634 14.3518 8.31515L8.00066 1.9596L1.64955 8.31515C1.56453 8.38796 1.45516 8.42601 1.34331 8.42169C1.23145 8.41737 1.12534 8.371 1.04619 8.29185C0.967038 8.21269 0.920668 8.10659 0.916347 7.99473C0.912027 7.88288 0.950074 7.77351 1.02289 7.68849L7.68955 1.02182C7.77282 0.939041 7.88547 0.892578 8.00288 0.892578C8.1203 0.892578 8.23295 0.939041 8.31622 1.02182L14.9829 7.68849C15.044 7.75088 15.0855 7.82991 15.1019 7.91571C15.1184 8.00151 15.1093 8.09026 15.0756 8.17088C15.0419 8.2515 14.9852 8.32041 14.9126 8.36899C14.84 8.41758 14.7547 8.44368 14.6673 8.44404Z" fill="#C57100"/>
<path d="M7.99935 3.46191L2.66602 8.81303V14.2219C2.66602 14.4577 2.75967 14.6838 2.92637 14.8505C3.09306 15.0172 3.31916 15.1108 3.5549 15.1108H6.66602V10.6664H9.33268V15.1108H12.4438C12.6795 15.1108 12.9056 15.0172 13.0723 14.8505C13.239 14.6838 13.3327 14.4577 13.3327 14.2219V8.78191L7.99935 3.46191Z" fill="#262626"/>
</g>
<defs>
<clipPath id="clip0_625_1821">
<rect width="16" height="16" fill="white"/>
</clipPath>
</defs>
</svg>
