<svg width="16" height="16" viewBox="0 0 16 16" fill="none" xmlns="http://www.w3.org/2000/svg">
<g id="flat-color-icons:google">
<path id="Vector" d="M14.5377 6.69498H14.0007V6.66732H8.00065V9.33398H11.7683C11.2187 10.8863 9.74165 12.0007 8.00065 12.0007C5.79165 12.0007 4.00065 10.2097 4.00065 8.00065C4.00065 5.79165 5.79165 4.00065 8.00065 4.00065C9.02032 4.00065 9.94798 4.38532 10.6543 5.01365L12.54 3.12798C11.3493 2.01832 9.75665 1.33398 8.00065 1.33398C4.31898 1.33398 1.33398 4.31898 1.33398 8.00065C1.33398 11.6823 4.31898 14.6673 8.00065 14.6673C11.6823 14.6673 14.6673 11.6823 14.6673 8.00065C14.6673 7.55365 14.6213 7.11732 14.5377 6.69498Z" fill="#FFC107"/>
<path id="Vector_2" d="M2.10156 4.89765L4.2919 6.50398C4.88456 5.03665 6.3199 4.00065 7.99956 4.00065C9.01923 4.00065 9.9469 4.38532 10.6532 5.01365L12.5389 3.12798C11.3482 2.01832 9.75556 1.33398 7.99956 1.33398C5.4389 1.33398 3.21823 2.77965 2.10156 4.89765Z" fill="#FF3D00"/>
<path id="Vector_3" d="M7.99945 14.6669C9.72145 14.6669 11.2861 14.0079 12.4691 12.9362L10.4058 11.1902C9.71397 11.7164 8.86861 12.0009 7.99945 12.0002C6.26545 12.0002 4.79312 10.8946 4.23845 9.35156L2.06445 11.0266C3.16779 13.1856 5.40845 14.6669 7.99945 14.6669Z" fill="#4CAF50"/>
<path id="Vector_4" d="M14.537 6.69368H14V6.66602H8V9.33268H11.7677C11.5047 10.0715 11.0311 10.7171 10.4053 11.1897L10.4063 11.189L12.4697 12.935C12.3237 13.0677 14.6667 11.3327 14.6667 7.99935C14.6667 7.55235 14.6207 7.11602 14.537 6.69368Z" fill="#1976D2"/>
</g>
</svg>
