<svg width="16" height="14" viewBox="0 0 16 14" fill="none" xmlns="http://www.w3.org/2000/svg">
<g id="Group">
<path id="Vector" d="M7.1535 2.38461C7.43454 2.352 7.71724 2.33576 8.00016 2.33594C11.1095 2.33594 13.6002 4.27127 14.6668 7.00261C14.4086 7.66699 14.0598 8.29248 13.6302 8.86127M4.34683 3.34861C2.98683 4.17861 1.9335 5.46461 1.3335 7.00261C2.40016 9.73394 4.89083 11.6693 8.00016 11.6693C9.28825 11.6761 10.5529 11.3253 11.6535 10.6559M6.58683 5.58927C6.4011 5.77501 6.25376 5.9955 6.15325 6.23817C6.05273 6.48085 6.00099 6.74094 6.00099 7.00361C6.00099 7.26627 6.05273 7.52637 6.15325 7.76904C6.25376 8.01171 6.4011 8.23221 6.58683 8.41794C6.77256 8.60367 6.99306 8.751 7.23573 8.85152C7.4784 8.95204 7.7385 9.00377 8.00116 9.00377C8.26383 9.00377 8.52392 8.95204 8.76659 8.85152C9.00927 8.751 9.22976 8.60367 9.4155 8.41794" stroke="#A3A3A3" stroke-width="1.4" stroke-linecap="round" stroke-linejoin="round"/>
<path id="Vector_2" d="M2.66699 1.66797L13.3337 12.3346" stroke="#A3A3A3" stroke-width="1.4" stroke-linecap="round"/>
</g>
</svg>
