<svg width="20" height="20" viewBox="0 0 20 20" fill="none" xmlns="http://www.w3.org/2000/svg">
<path d="M10.0574 13.9956C10.1687 13.9795 10.2719 13.9288 10.3528 13.8507L14.8102 9.57161C14.9227 9.47659 14.9911 9.33929 14.9992 9.19229C15.0073 9.04516 14.9544 8.90126 14.8529 8.79443C14.7516 8.6876 14.6105 8.6274 14.4633 8.6279C14.3159 8.6284 14.1754 8.68959 14.0746 8.79717L9.985 12.7254L5.89536 8.79717C5.79462 8.68959 5.65408 8.6284 5.50671 8.6279C5.35945 8.6274 5.21842 8.6876 5.11707 8.79443C5.01558 8.90127 4.96273 9.04516 4.97081 9.19228C4.97889 9.33929 5.04729 9.47659 5.15985 9.57161L9.61723 13.8507C9.73438 13.9632 9.89635 14.0167 10.0574 13.9956Z" fill="#262626"/>
</svg>
