<svg width="0" height="0" class="hidden">
  <symbol viewBox="0 0 40 40" fill="none" xmlns="http://www.w3.org/2000/svg" id="close-icon">
<path d="M14.57 14.0953C14.7003 13.9682 14.9117 13.9682 15.0421 14.0953L25.9021 24.6769C26.0325 24.804 26.0325 25.01 25.9021 25.137L25.4299 25.5971C25.2996 25.7241 25.0882 25.7241 24.9578 25.5971L14.0978 15.0154C13.9674 14.8884 13.9674 14.6824 14.0978 14.5554L14.57 14.0953Z" fill="#A3A3A3"/>
<path d="M14.0979 25.4446C13.9675 25.3176 13.9675 25.1116 14.0979 24.9846L24.9579 14.4029C25.0883 14.2759 25.2997 14.2759 25.43 14.4029L25.9022 14.863C26.0326 14.99 26.0326 15.196 25.9022 15.323L15.0422 25.9047C14.9118 26.0318 14.7005 26.0318 14.5701 25.9047L14.0979 25.4446Z" fill="#A3A3A3"/>
</symbol>
</svg>