<svg width="40" height="40" viewBox="0 0 40 40" fill="none" xmlns="http://www.w3.org/2000/svg">
<rect width="40" height="40" fill="white"/>
<rect width="940" height="1912" transform="translate(-111 -1353)" fill="white"/>
<path fill-rule="evenodd" clip-rule="evenodd" d="M33.3846 14.7692C33.3846 17.9555 30.8016 20.5385 27.6154 20.5385C24.4291 20.5385 21.8462 17.9555 21.8462 14.7692C21.8462 11.583 24.4291 9 27.6154 9C30.8016 9 33.3846 11.583 33.3846 14.7692ZM24.0096 14.9192L24.64 14.2355L26.5314 16.2865L30.5907 11.8846L31.2211 12.5683L26.5314 17.6538L24.0096 14.9192ZM25.1598 21.2443C25.6945 21.4471 26.2608 21.5857 26.8494 21.6505L26.5008 23.0194C26.2927 23.8334 25.6228 24.3923 24.834 24.3923H23.7409H15.8704H14.8044C14.0025 24.3923 13.3047 23.8222 13.1105 22.9904L10.815 13.177H8.87449C8.39352 13.177 8 12.7564 8 12.2423C8 11.7283 8.39352 11.3077 8.87449 11.3077H10.8159C11.2042 11.3051 11.5821 11.4418 11.8891 11.696C12.1961 11.9502 12.4143 12.3071 12.5089 12.7097L14.8044 22.5231H24.834L25.1598 21.2443ZM15.8704 24.3923C17.309 24.3923 18.4939 25.6587 18.4939 27.1962C18.4939 28.7336 17.309 30 15.8704 30C14.4319 30 13.247 28.7336 13.247 27.1962C13.247 25.6587 14.4319 24.3923 15.8704 24.3923ZM23.7409 24.3923C25.1794 24.3923 26.3644 25.6587 26.3644 27.1962C26.3644 28.7336 25.1794 30 23.7409 30C22.3023 30 21.1174 28.7336 21.1174 27.1962C21.1174 25.6587 22.3023 24.3923 23.7409 24.3923ZM14.1215 14.1116H20.7231C20.7027 14.3281 20.6923 14.5475 20.6923 14.7693C20.6923 15.1826 20.7285 15.5874 20.798 15.9808H14.5587L14.1215 14.1116ZM15.8704 26.2615C16.3628 26.2615 16.7449 26.6709 16.7449 27.1962C16.7449 27.7223 16.3619 28.1308 15.8704 28.1308C15.3781 28.1308 14.996 27.7214 14.996 27.1962C14.996 26.67 15.379 26.2615 15.8704 26.2615ZM23.7409 26.2615C24.2332 26.2615 24.6154 26.6709 24.6154 27.1962C24.6154 27.7223 24.2324 28.1308 23.7409 28.1308C23.2486 28.1308 22.8664 27.7214 22.8664 27.1962C22.8664 26.67 23.2494 26.2615 23.7409 26.2615Z" fill="#C57100"/>
<rect x="-19.5" y="-139.5" width="79" height="199" rx="4.5" stroke="#9747FF" stroke-dasharray="10 5"/>
</svg>
