<svg width="36" height="36" viewBox="0 0 36 36" fill="none" xmlns="http://www.w3.org/2000/svg">
<g id="Component 10">
<g id="Vector">
<path fill-rule="evenodd" clip-rule="evenodd" d="M18 34C26.8366 34 34 26.8366 34 18C34 9.16344 26.8366 2 18 2C9.16344 2 2 9.16344 2 18C2 26.8366 9.16344 34 18 34ZM18 36C27.9411 36 36 27.9411 36 18C36 8.05887 27.9411 0 18 0C8.05887 0 0 8.05887 0 18C0 27.9411 8.05887 36 18 36Z" fill="#262626"/>
<path fill-rule="evenodd" clip-rule="evenodd" d="M11.4691 24.9217L11.4704 24.9201L11.4852 24.9016C11.4997 24.8838 11.5233 24.8554 11.5558 24.8178C11.6209 24.7424 11.7216 24.6308 11.8565 24.4948C12.1268 24.2223 12.5312 23.8554 13.0589 23.4882C14.1151 22.753 15.6424 22.0312 17.5721 22.0312C19.73 22.0312 21.4625 22.9247 22.6746 23.8449C23.2792 24.3039 23.7454 24.7631 24.0589 25.1057C24.2153 25.2767 24.3327 25.4176 24.4095 25.5135C24.4478 25.5614 24.4759 25.598 24.4935 25.6213L24.512 25.6462L24.5146 25.6497L24.5153 25.6507C24.7562 25.9868 25.224 26.0647 25.5607 25.8244C25.8979 25.5837 25.9761 25.1153 25.7354 24.7782L25.1432 25.2009C25.7354 24.7782 25.7354 24.7782 25.7354 24.7782L25.7335 24.7756L25.7306 24.7715L25.7216 24.7591C25.7142 24.7491 25.7041 24.7353 25.6911 24.7182C25.6653 24.684 25.6284 24.636 25.5807 24.5764C25.4854 24.4572 25.3465 24.2909 25.1656 24.0932C24.8044 23.6984 24.2722 23.1745 23.5817 22.6502C22.2038 21.6042 20.1598 20.5312 17.5721 20.5312C15.2535 20.5312 13.4322 21.4008 12.202 22.257C11.5864 22.6854 11.1131 23.1142 10.7915 23.4385C10.6304 23.6009 10.5066 23.7379 10.4212 23.8366C10.3785 23.886 10.3453 23.9259 10.3219 23.9548C10.3101 23.9692 10.3008 23.9808 10.2939 23.9895L10.2854 24.0004L10.2825 24.004L10.2814 24.0055L10.524 23.7204L10.2806 24.0066C10.028 24.3349 10.0894 24.8058 10.4177 25.0583C10.7458 25.3108 11.2164 25.2496 11.4691 24.9217Z" fill="#262626"/>
<path d="M14.9575 13.7629C14.9575 14.5683 14.3046 15.2212 13.4993 15.2212C12.6939 15.2212 12.041 14.5683 12.041 13.7629C12.041 12.9576 12.6939 12.3047 13.4993 12.3047C14.3046 12.3047 14.9575 12.9576 14.9575 13.7629Z" fill="#262626"/>
<path d="M24.1113 13.7629C24.1113 14.5683 23.4584 15.2212 22.6531 15.2212C21.8477 15.2212 21.1948 14.5683 21.1948 13.7629C21.1948 12.9576 21.8477 12.3047 22.6531 12.3047C23.4584 12.3047 24.1113 12.9576 24.1113 13.7629Z" fill="#262626"/>
<path fill-rule="evenodd" clip-rule="evenodd" d="M18.9714 7.56039C19.006 7.14763 19.3686 6.84107 19.7814 6.87567L24.1735 7.24387C24.5863 7.27847 24.8928 7.64114 24.8582 8.0539C24.8236 8.46667 24.461 8.77323 24.0482 8.73863L19.6561 8.37043C19.2433 8.33582 18.9367 7.97316 18.9714 7.56039ZM14.2904 9.7955C14.5 10.1528 14.3804 10.6123 14.0231 10.8219L10.3932 12.9518C10.036 13.1614 9.57643 13.0418 9.36681 12.6845C9.15718 12.3272 9.27686 11.8677 9.63411 11.6581L13.264 9.52819C13.6213 9.31857 14.0808 9.43825 14.2904 9.7955Z" fill="#262626"/>
</g>
</g>
</svg>
