<svg width="16" height="16" viewBox="0 0 16 16" fill="none" xmlns="http://www.w3.org/2000/svg">
<path d="M9.15333 14.0007C9.03626 14.2029 8.86808 14.3708 8.66565 14.4875C8.46322 14.6042 8.23366 14.6656 8 14.6656C7.76634 14.6656 7.53678 14.6042 7.33435 14.4875C7.13192 14.3708 6.96374 14.2029 6.84667 14.0007M12 5.60065C12 4.46932 11.5787 3.38398 10.8287 2.58398C10.078 1.78398 9.06 1.33398 8 1.33398C6.93933 1.33398 5.922 1.78332 5.17133 2.58398C4.42133 3.38398 4 4.46932 4 5.60065C4 10.5787 2 12.0007 2 12.0007H14C14 12.0007 12 10.5787 12 5.60065Z" stroke="#FFFFFE" stroke-width="1.5" stroke-linecap="round" stroke-linejoin="round"/>
</svg>
