<svg width="0" height="0" class="hidden">
  <symbol xmlns="http://www.w3.org/2000/svg" viewBox="0 0 14 14" id="active">
    <path d="M6.61958 1.17082C6.73932 0.802295 7.26068 0.802296 7.38042 1.17082L8.70631 5.25147C8.75986 5.41628 8.91344 5.52786 9.08673 5.52786H13.3774C13.7649 5.52786 13.926 6.02371 13.6125 6.25147L10.1413 8.77345C10.0011 8.87531 9.94243 9.05586 9.99598 9.22066L11.3219 13.3013C11.4416 13.6698 11.0198 13.9763 10.7063 13.7485L7.23511 11.2265C7.09492 11.1247 6.90508 11.1247 6.76489 11.2265L3.29368 13.7485C2.98019 13.9763 2.5584 13.6698 2.67814 13.3013L4.00402 9.22067C4.05757 9.05586 3.99891 8.87531 3.85872 8.77345L0.387506 6.25147C0.0740204 6.02371 0.235132 5.52786 0.622621 5.52786H4.91327C5.08656 5.52786 5.24014 5.41628 5.29369 5.25147L6.61958 1.17082Z" fill="#C57100"></path>
  </symbol>
  <symbol fill="none" xmlns="http://www.w3.org/2000/svg" viewBox="0 0 7 14" id="active_half">
    <path fill-rule="evenodd" clip-rule="evenodd" d="M6.99983 0.888672C6.83955 0.888672 6.67927 0.980802 6.6194 1.16506L5.29352 5.24572C5.23997 5.41053 5.08639 5.52211 4.9131 5.52211H0.622447C0.234958 5.52211 0.0738465 6.01795 0.387332 6.24572L3.85854 8.7677C3.99874 8.86955 4.0574 9.0501 4.00385 9.21491L2.67797 13.2956C2.55823 13.6641 2.98002 13.9705 3.2935 13.7428L6.76471 11.2208C6.83481 11.1699 6.91732 11.1444 6.99983 11.1444V0.888672Z" fill="#C57100"></path>
  </symbol>
  <symbol fill="none" xmlns="http://www.w3.org/2000/svg" viewBox="0 0 14 14" id="inactive">
    <path d="M6.61958 1.17082C6.73932 0.802295 7.26068 0.802296 7.38042 1.17082L8.70631 5.25147C8.75986 5.41628 8.91344 5.52786 9.08673 5.52786H13.3774C13.7649 5.52786 13.926 6.02371 13.6125 6.25147L10.1413 8.77345C10.0011 8.87531 9.94243 9.05586 9.99598 9.22066L11.3219 13.3013C11.4416 13.6698 11.0198 13.9763 10.7063 13.7485L7.23511 11.2265C7.09492 11.1247 6.90508 11.1247 6.76489 11.2265L3.29368 13.7485C2.98019 13.9763 2.5584 13.6698 2.67814 13.3013L4.00402 9.22067C4.05757 9.05586 3.99891 8.87531 3.85872 8.77345L0.387506 6.25147C0.0740204 6.02371 0.235132 5.52786 0.622621 5.52786H4.91327C5.08656 5.52786 5.24014 5.41628 5.29369 5.25147L6.61958 1.17082Z" fill="#EDEDED"></path>
  </symbol>
  <symbol fill="none" xmlns="http://www.w3.org/2000/svg" viewBox="0 0 7 14" id="inactive_half">
    <path fill-rule="evenodd" clip-rule="evenodd" d="M0.221854 0.888184C0.38213 0.888183 0.542405 0.980314 0.602276 1.16458L1.92816 5.24523C1.98171 5.41004 2.13529 5.52162 2.30858 5.52162H6.59923C6.98672 5.52162 7.14783 6.01747 6.83435 6.24523L3.36314 8.76721C3.22294 8.86907 3.16428 9.04961 3.21783 9.21442L4.54371 13.2951C4.66345 13.6636 4.24166 13.97 3.92818 13.7423L0.456968 11.2203C0.38687 11.1694 0.304362 11.1439 0.221854 11.1439V0.888184Z" fill="#EDEDED"></path>
  </symbol>
</svg>
