<svg width="0" height="0" class="hidden">
  <symbol width="80" height="38" viewBox="0 0 80 38" fill="none" xmlns="http://www.w3.org/2000/svg" id="footer-logo">
<path d="M0.941406 8.76943C0.941406 7.62914 1.15649 6.56738 1.58666 5.58414C2.01682 4.59407 2.63818 3.73715 3.45071 3.01338C4.27008 2.28278 5.26698 1.70922 6.4414 1.29271C7.62265 0.876201 8.95754 0.667945 10.4461 0.667945C11.7502 0.667945 12.9451 0.801092 14.0308 1.06739C15.1233 1.32685 16.1372 1.72629 17.0727 2.26571L15.5773 4.72381C15.2974 4.53945 14.973 4.37558 14.6043 4.23219C14.2424 4.0888 13.8532 3.96931 13.4367 3.87371C13.0271 3.77129 12.6003 3.69277 12.1565 3.63815C11.7195 3.58352 11.2859 3.55621 10.8557 3.55621C9.81787 3.55621 8.89267 3.68594 8.08013 3.94541C7.26759 4.19805 6.58138 4.55652 6.02148 5.02083C5.4684 5.47831 5.04506 6.02796 4.75146 6.6698C4.46468 7.30481 4.32129 8.00468 4.32129 8.76943C4.32129 9.56148 4.47151 10.2887 4.77194 10.951C5.07238 11.6133 5.50596 12.1869 6.07269 12.6717C6.64624 13.1496 7.3427 13.5252 8.16207 13.7983C8.98826 14.0646 9.92029 14.1977 10.9582 14.1977C11.4293 14.1977 11.897 14.1636 12.3613 14.0953C12.8256 14.027 13.2729 13.9348 13.703 13.8188C14.14 13.6959 14.56 13.5525 14.9628 13.3886C15.3657 13.2179 15.7412 13.0335 16.0894 12.8355L17.5848 15.2936C16.7108 15.8535 15.7002 16.2939 14.5531 16.6149C13.406 16.9289 12.1872 17.086 10.8967 17.086C9.25114 17.086 7.80701 16.8743 6.56431 16.451C5.3216 16.0208 4.28374 15.4336 3.45071 14.6893C2.61769 13.9383 1.98951 13.0574 1.56617 12.0469C1.14966 11.0295 0.941406 9.93702 0.941406 8.76943Z" fill="#262626"/>
<path d="M21.7255 8.82064C21.7255 7.61207 21.9474 6.50593 22.3912 5.5022C22.8351 4.49848 23.4564 3.63815 24.2553 2.9212C25.061 2.19743 26.0238 1.63753 27.1436 1.2415C28.2702 0.845474 29.5163 0.647461 30.8819 0.647461C32.2407 0.647461 33.4834 0.845474 34.61 1.2415C35.7367 1.63753 36.6994 2.19743 37.4983 2.9212C38.304 3.63815 38.9288 4.49848 39.3726 5.5022C39.8164 6.50593 40.0383 7.61207 40.0383 8.82064C40.0383 10.036 39.8164 11.1524 39.3726 12.1698C38.9288 13.1803 38.304 14.0509 37.4983 14.7815C36.6994 15.5121 35.7367 16.0823 34.61 16.4919C33.4834 16.8948 32.2407 17.0962 30.8819 17.0962C29.5163 17.0962 28.2702 16.8948 27.1436 16.4919C26.0238 16.0823 25.061 15.5121 24.2553 14.7815C23.4564 14.0509 22.8351 13.1803 22.3912 12.1698C21.9474 11.1524 21.7255 10.036 21.7255 8.82064ZM24.9722 8.82064C24.9722 9.64683 25.119 10.3911 25.4126 11.0534C25.7131 11.7157 26.1262 12.2825 26.6519 12.7536C27.1845 13.2179 27.8093 13.5764 28.5262 13.829C29.25 14.0816 30.0352 14.208 30.8819 14.208C31.7286 14.208 32.5104 14.0816 33.2274 13.829C33.9511 13.5764 34.5759 13.2179 35.1017 12.7536C35.6274 12.2825 36.0405 11.7157 36.3409 11.0534C36.6414 10.3911 36.7916 9.64683 36.7916 8.82064C36.7916 7.99444 36.6414 7.2536 36.3409 6.59811C36.0405 5.94261 35.6274 5.38954 35.1017 4.93889C34.5759 4.48141 33.9511 4.13318 33.2274 3.8942C32.5104 3.65522 31.7286 3.53573 30.8819 3.53573C30.0352 3.53573 29.25 3.65522 28.5262 3.8942C27.8093 4.13318 27.1845 4.48141 26.6519 4.93889C26.1262 5.38954 25.7131 5.94261 25.4126 6.59811C25.119 7.2536 24.9722 7.99444 24.9722 8.82064Z" fill="#C57100"/>
<path d="M52.5059 5.5022L54.0422 3.6279H44.4249V0.862544H60.085L51.1232 12.1186L49.5254 14.1055H59.5831V16.8709H43.6362L52.5059 5.5022Z" fill="#262626"/>
<path d="M69.06 12.9072L62.0646 0.862544H65.7415L70.668 9.96775L75.533 0.862544H79.2099L72.3067 12.8867V16.8709H69.06V12.9072Z" fill="#262626"/>
<path d="M1.90416 20.8395H5.1509V25.0182H15.1062V20.8395H18.3632V36.8478H15.1062V27.7938H5.1509V36.8478H1.90416V20.8395Z" fill="#262626"/>
<path d="M21.469 28.7976C21.469 27.589 21.6909 26.4828 22.1347 25.4791C22.5785 24.4754 23.1999 23.6151 23.9988 22.8981C24.8045 22.1743 25.7672 21.6144 26.887 21.2184C28.0136 20.8224 29.2598 20.6244 30.6254 20.6244C31.9842 20.6244 33.2269 20.8224 34.3535 21.2184C35.4801 21.6144 36.4429 22.1743 37.2418 22.8981C38.0475 23.6151 38.6722 24.4754 39.1161 25.4791C39.5599 26.4828 39.7818 27.589 39.7818 28.7976C39.7818 30.0129 39.5599 31.1293 39.1161 32.1467C38.6722 33.1573 38.0475 34.0278 37.2418 34.7584C36.4429 35.489 35.4801 36.0592 34.3535 36.4689C33.2269 36.8717 31.9842 37.0732 30.6254 37.0732C29.2598 37.0732 28.0136 36.8717 26.887 36.4689C25.7672 36.0592 24.8045 35.489 23.9988 34.7584C23.1999 34.0278 22.5785 33.1573 22.1347 32.1467C21.6909 31.1293 21.469 30.0129 21.469 28.7976ZM24.7157 28.7976C24.7157 29.6237 24.8625 30.368 25.1561 31.0303C25.4565 31.6926 25.8696 32.2594 26.3954 32.7305C26.928 33.1948 27.5528 33.5533 28.2697 33.8059C28.9935 34.0586 29.7787 34.1849 30.6254 34.1849C31.4721 34.1849 32.2539 34.0586 32.9708 33.8059C33.6946 33.5533 34.3194 33.1948 34.8451 32.7305C35.3709 32.2594 35.784 31.6926 36.0844 31.0303C36.3848 30.368 36.5351 29.6237 36.5351 28.7976C36.5351 27.9714 36.3848 27.2305 36.0844 26.575C35.784 25.9195 35.3709 25.3665 34.8451 24.9158C34.3194 24.4583 33.6946 24.1101 32.9708 23.8711C32.2539 23.6321 31.4721 23.5126 30.6254 23.5126C29.7787 23.5126 28.9935 23.6321 28.2697 23.8711C27.5528 24.1101 26.928 24.4583 26.3954 24.9158C25.8696 25.3665 25.4565 25.9195 25.1561 26.575C24.8625 27.2305 24.7157 27.9714 24.7157 28.7976Z" fill="#C57100"/>
<path d="M42.8978 20.8395H46.1446L51.9621 26.6774L57.7796 20.8395H61.0263V36.8478H57.7796V25.3357L51.9621 30.9381L46.1446 25.3357V36.8478H42.8978V20.8395Z" fill="#262626"/>
<path d="M65.584 20.8395H79.2162V23.6868H68.8307V26.8823H78.0281V29.5555H68.8307V34.0108H79.4313V36.8478H65.584V20.8395Z" fill="#262626"/>
</symbol>
  <symbol xmlns="http://www.w3.org/2000/svg" viewBox="0 0 16 16" id="facebook-icon">
    <path d="M6.13151 14.3337H8.79818V8.99366H11.2008L11.4648 6.34033H8.79818V5.00033C8.79818 4.82351 8.86842 4.65395 8.99344 4.52892C9.11847 4.4039 9.28803 4.33366 9.46485 4.33366H11.4648V1.66699H9.46485C8.58079 1.66699 7.73294 2.01818 7.10782 2.6433C6.4827 3.26842 6.13151 4.11627 6.13151 5.00033V6.34033H4.79818L4.53418 8.99366H6.13151V14.3337Z"/>
  </symbol>
  <symbol xmlns="http://www.w3.org/2000/svg" viewBox="0 0 16 16" id="instagram-icon">
    <path d="M8.68539 1.33383C9.17188 1.33196 9.65837 1.33685 10.1447 1.34849L10.2741 1.35316C10.4234 1.35849 10.5707 1.36516 10.7487 1.37316C11.4581 1.40649 11.9421 1.51849 12.3667 1.68316C12.8067 1.85249 13.1774 2.08183 13.5481 2.45249C13.887 2.78557 14.1493 3.18846 14.3167 3.63316C14.4814 4.05783 14.5934 4.54249 14.6267 5.25183C14.6347 5.42916 14.6414 5.57716 14.6467 5.72649L14.6507 5.85583C14.6626 6.34196 14.6677 6.82823 14.6661 7.31449L14.6667 7.81183V8.68516C14.6684 9.17165 14.6633 9.65814 14.6514 10.1445L14.6474 10.2738C14.6421 10.4232 14.6354 10.5705 14.6274 10.7485C14.5941 11.4578 14.4807 11.9418 14.3167 12.3665C14.1498 12.8117 13.8875 13.2149 13.5481 13.5478C13.2147 13.8867 12.8116 14.149 12.3667 14.3165C11.9421 14.4812 11.4581 14.5932 10.7487 14.6265C10.5707 14.6345 10.4234 14.6412 10.2741 14.6465L10.1447 14.6505C9.65837 14.6623 9.17188 14.6675 8.68539 14.6658L8.18806 14.6665H7.31539C6.8289 14.6681 6.34241 14.663 5.85606 14.6512L5.72673 14.6472C5.56847 14.6414 5.41024 14.6348 5.25206 14.6272C4.54273 14.5938 4.05873 14.4805 3.63339 14.3165C3.18851 14.1494 2.78555 13.887 2.45273 13.5478C2.11342 13.2147 1.85088 12.8115 1.68339 12.3665C1.51873 11.9418 1.40673 11.4578 1.37339 10.7485C1.36597 10.5903 1.3593 10.4321 1.35339 10.2738L1.35006 10.1445C1.33777 9.65815 1.33221 9.17166 1.33339 8.68516V7.31449C1.33153 6.82823 1.33642 6.34196 1.34806 5.85583L1.35273 5.72649C1.35806 5.57716 1.36473 5.42916 1.37273 5.25183C1.40606 4.54183 1.51806 4.05849 1.68273 3.63316C1.85031 3.18824 2.11337 2.78546 2.45339 2.45316C2.78599 2.11366 3.1887 1.85088 3.63339 1.68316C4.05873 1.51849 4.54206 1.40649 5.25206 1.37316L5.72673 1.35316L5.85606 1.34983C6.34218 1.33754 6.82845 1.33199 7.31473 1.33316L8.68539 1.33383ZM8.00006 4.66716C7.5584 4.66091 7.1199 4.74251 6.71004 4.90721C6.30019 5.0719 5.92716 5.31641 5.61262 5.62653C5.29809 5.93665 5.04833 6.30619 4.87785 6.71367C4.70737 7.12115 4.61959 7.55845 4.61959 8.00016C4.61959 8.44187 4.70737 8.87917 4.87785 9.28665C5.04833 9.69414 5.29809 10.0637 5.61262 10.3738C5.92716 10.6839 6.30019 10.9284 6.71004 11.0931C7.1199 11.2578 7.5584 11.3394 8.00006 11.3332C8.88411 11.3332 9.73196 10.982 10.3571 10.3569C10.9822 9.73173 11.3334 8.88388 11.3334 7.99983C11.3334 7.11577 10.9822 6.26793 10.3571 5.64281C9.73196 5.01768 8.88411 4.66716 8.00006 4.66716ZM8.00006 6.00049C8.26573 5.9956 8.52971 6.04369 8.77659 6.14197C9.02346 6.24024 9.24828 6.38672 9.43791 6.57286C9.62754 6.75899 9.77818 6.98105 9.88102 7.22606C9.98387 7.47106 10.0369 7.73411 10.0369 7.99982C10.0369 8.26554 9.98404 8.5286 9.88128 8.77364C9.77851 9.01868 9.62795 9.24079 9.43839 9.42699C9.24882 9.61318 9.02405 9.75974 8.77721 9.8581C8.53037 9.95645 8.2664 10.0046 8.00073 9.99983C7.47029 9.99983 6.96158 9.78911 6.58651 9.41404C6.21144 9.03897 6.00073 8.53026 6.00073 7.99983C6.00073 7.4694 6.21144 6.96069 6.58651 6.58561C6.96158 6.21054 7.47029 5.99983 8.00073 5.99983L8.00006 6.00049ZM11.5001 3.66716C11.285 3.67577 11.0816 3.76726 10.9325 3.92248C10.7833 4.07769 10.7001 4.28458 10.7001 4.49983C10.7001 4.71507 10.7833 4.92197 10.9325 5.07718C11.0816 5.23239 11.285 5.32389 11.5001 5.33249C11.7211 5.33249 11.933 5.2447 12.0893 5.08842C12.2456 4.93214 12.3334 4.72018 12.3334 4.49916C12.3334 4.27815 12.2456 4.06619 12.0893 3.90991C11.933 3.75363 11.7211 3.66583 11.5001 3.66583V3.66716Z"/>
  </symbol>
  <symbol fill="none" xmlns="http://www.w3.org/2000/svg" viewBox="0 0 32 25" id="mastercard-icon">
    <g clip-path="url(#clip0_564_7919)">
      <path d="M5.81764 24.8761V23.2215C5.81764 22.5871 5.43339 22.1735 4.77477 22.1735C4.44552 22.1735 4.08877 22.2838 3.84177 22.6423C3.64977 22.339 3.37539 22.1735 2.96377 22.1735C2.68927 22.1735 2.41502 22.2562 2.19539 22.5596V22.2287H1.61914V24.8761H2.19539V23.4145C2.19539 22.9457 2.44239 22.725 2.82664 22.725C3.21064 22.725 3.40289 22.9733 3.40289 23.4145V24.8761H3.97914V23.4145C3.97914 22.9457 4.25339 22.725 4.61014 22.725C4.99439 22.725 5.18639 22.9733 5.18639 23.4145V24.8761H5.81764ZM14.3515 22.2287H13.4186V21.4289H12.8424V22.2287H12.321V22.7525H12.8423V23.9661C12.8423 24.5729 13.0893 24.9313 13.7479 24.9313C13.9949 24.9313 14.2691 24.8486 14.4614 24.7383L14.2966 24.2418C14.132 24.3521 13.94 24.3798 13.8028 24.3798C13.5284 24.3798 13.4186 24.2143 13.4186 23.9385V22.7525H14.3515V22.2287ZM19.236 22.1734C18.9068 22.1734 18.6873 22.339 18.55 22.5596V22.2287H17.9738V24.8761H18.55V23.3869C18.55 22.9457 18.742 22.6975 19.0988 22.6975C19.2085 22.6975 19.3458 22.7251 19.4555 22.7526L19.6201 22.2011C19.5104 22.1735 19.3458 22.1735 19.236 22.1735V22.1734ZM11.8545 22.4493C11.58 22.2562 11.1959 22.1735 10.7843 22.1735C10.1258 22.1735 9.68677 22.5044 9.68677 23.0284C9.68677 23.4697 10.016 23.7178 10.5923 23.8006L10.8666 23.8283C11.1685 23.8833 11.3331 23.9661 11.3331 24.104C11.3331 24.297 11.1136 24.4349 10.7294 24.4349C10.3453 24.4349 10.0434 24.297 9.85127 24.1592L9.57689 24.6004C9.87877 24.821 10.2904 24.9313 10.7019 24.9313C11.4703 24.9313 11.9094 24.5729 11.9094 24.0764C11.9094 23.6075 11.5526 23.3593 11.0038 23.2766L10.7294 23.249C10.4824 23.2214 10.2904 23.1663 10.2904 23.0009C10.2904 22.8078 10.4824 22.6975 10.7843 22.6975C11.1136 22.6975 11.4429 22.8353 11.6075 22.9181L11.8545 22.4493ZM27.1664 22.1735C26.837 22.1735 26.6175 22.339 26.4803 22.5596V22.2287H25.904V24.8761H26.4803V23.3869C26.4803 22.9457 26.6724 22.6975 27.029 22.6975C27.1389 22.6975 27.2761 22.7251 27.3859 22.7526L27.5505 22.2011C27.4408 22.1735 27.2761 22.1735 27.1664 22.1735ZM19.8123 23.5524C19.8123 24.3521 20.361 24.9313 21.2118 24.9313C21.5959 24.9313 21.8703 24.8486 22.1446 24.628L21.8703 24.1592C21.6508 24.3246 21.4313 24.4073 21.1843 24.4073C20.7178 24.4073 20.3885 24.0764 20.3885 23.5524C20.3885 23.056 20.7178 22.725 21.1843 22.6975C21.4313 22.6975 21.6508 22.7802 21.8703 22.9457L22.1446 22.4769C21.8703 22.2562 21.5959 22.1735 21.2118 22.1735C20.361 22.1735 19.8123 22.7526 19.8123 23.5524ZM25.1358 23.5524V22.2287H24.5595V22.5596C24.3674 22.3114 24.093 22.1735 23.7363 22.1735C22.9954 22.1735 22.4191 22.7526 22.4191 23.5524C22.4191 24.3521 22.9954 24.9313 23.7363 24.9313C24.1204 24.9313 24.3949 24.7935 24.5595 24.5452V24.8761H25.1358V23.5524ZM23.0228 23.5524C23.0228 23.0836 23.3246 22.6975 23.8185 22.6975C24.285 22.6975 24.6144 23.056 24.6144 23.5524C24.6144 24.0212 24.285 24.4073 23.8185 24.4073C23.3246 24.3797 23.0228 24.0212 23.0228 23.5524ZM16.1353 22.1735C15.3669 22.1735 14.818 22.725 14.818 23.5524C14.818 24.3798 15.3668 24.9313 16.1626 24.9313C16.5468 24.9313 16.931 24.821 17.2329 24.5729L16.9584 24.1592C16.7389 24.3246 16.4645 24.4349 16.1901 24.4349C15.8334 24.4349 15.4766 24.2695 15.3943 23.8005H17.3426V23.58C17.3701 22.725 16.8763 22.1735 16.1353 22.1735ZM16.1353 22.6699C16.4919 22.6699 16.739 22.8906 16.7938 23.3043H15.4218C15.4766 22.9457 15.7236 22.6699 16.1353 22.6699ZM30.4318 23.5524V21.1807H29.8555V22.5596C29.6634 22.3114 29.389 22.1735 29.0323 22.1735C28.2914 22.1735 27.7151 22.7526 27.7151 23.5524C27.7151 24.3521 28.2914 24.9313 29.0323 24.9313C29.4165 24.9313 29.6909 24.7935 29.8555 24.5452V24.8761H30.4318V23.5524ZM28.3189 23.5524C28.3189 23.0836 28.6206 22.6975 29.1146 22.6975C29.5811 22.6975 29.9104 23.056 29.9104 23.5524C29.9104 24.0212 29.5811 24.4073 29.1146 24.4073C28.6206 24.3797 28.3189 24.0212 28.3189 23.5524ZM9.05552 23.5524V22.2287H8.47927V22.5596C8.28714 22.3114 8.01277 22.1735 7.65602 22.1735C6.91514 22.1735 6.33889 22.7526 6.33889 23.5524C6.33889 24.3521 6.91514 24.9313 7.65602 24.9313C8.04027 24.9313 8.31464 24.7935 8.47927 24.5452V24.8761H9.05552V23.5524ZM6.91514 23.5524C6.91514 23.0836 7.21702 22.6975 7.71089 22.6975C8.17739 22.6975 8.50677 23.056 8.50677 23.5524C8.50677 24.0212 8.17739 24.4073 7.71089 24.4073C7.21702 24.3797 6.91514 24.0212 6.91514 23.5524Z" fill="#262626"></path>
      <path d="M11.6621 2.12305H20.3059V17.7325H11.6621V2.12305Z" fill="#FF5F00"></path>
      <path d="M12.2111 9.92827C12.2111 6.75678 13.6929 3.94372 15.9704 2.12349C14.2966 0.799749 12.1837 0 9.87875 0C4.41787 0 0 4.44007 0 9.92827C0 15.4163 4.41787 19.8565 9.87862 19.8565C12.1836 19.8565 14.2965 19.0568 15.9704 17.7329C13.6929 15.9403 12.2111 13.0997 12.2111 9.92827Z" fill="#EB001B"></path>
      <path d="M31.9684 9.92827C31.9684 15.4163 27.5505 19.8565 22.0898 19.8565C19.7848 19.8565 17.6719 19.0568 15.998 17.7329C18.303 15.9128 19.7574 13.0997 19.7574 9.92827C19.7574 6.75678 18.2755 3.94372 15.998 2.12349C17.6718 0.799749 19.7848 0 22.0898 0C27.5505 0 31.9684 4.46771 31.9684 9.92827Z" fill="#F79E1B"></path>
    </g>
  </symbol>
  <symbol xmlns="http://www.w3.org/2000/svg" viewBox="0 0 16 16" id="telegram-icon">
    <path fill-rule="evenodd" clip-rule="evenodd" d="M12.3217 13.1931V13.1918L12.3337 13.1631L14.333 3.08313V3.05113C14.333 2.79979 14.2397 2.58046 14.0383 2.44913C13.8617 2.33379 13.6583 2.32579 13.5157 2.33646C13.3829 2.34847 13.2518 2.37531 13.125 2.41646C13.0709 2.4339 13.0175 2.45347 12.965 2.47513L12.9563 2.47846L1.80966 6.85113L1.80632 6.85246C1.77243 6.86403 1.73926 6.87761 1.70699 6.89313C1.62771 6.92874 1.55166 6.97112 1.47966 7.01979C1.33632 7.11846 1.06366 7.35046 1.10966 7.71846C1.14766 8.02379 1.35766 8.21713 1.49966 8.31779C1.58347 8.37653 1.67359 8.42573 1.76832 8.46446L1.78966 8.47379L1.79632 8.47579L1.80099 8.47779L3.75166 9.13446C3.74499 9.25646 3.75699 9.38113 3.78966 9.50446L4.76632 13.2105C4.81968 13.4125 4.93497 13.5927 5.096 13.7258C5.25704 13.859 5.45573 13.9383 5.66417 13.9527C5.87261 13.9671 6.08034 13.9159 6.25817 13.8062C6.436 13.6965 6.575 13.5339 6.65565 13.3411L8.18099 11.7105L10.8003 13.7185L10.8377 13.7345C11.0757 13.8385 11.2977 13.8711 11.501 13.8438C11.7043 13.8158 11.8657 13.7305 11.987 13.6338C12.1273 13.52 12.2392 13.3751 12.3137 13.2105L12.319 13.1991L12.321 13.1951L12.3217 13.1931ZM4.75632 9.24979C4.74551 9.20867 4.74808 9.16518 4.76366 9.12562C4.77925 9.08605 4.80703 9.05249 4.84299 9.02979L11.457 4.82979C11.457 4.82979 11.8463 4.59313 11.8323 4.82979C11.8323 4.82979 11.9017 4.87113 11.693 5.06513C11.4957 5.24979 6.97899 9.61046 6.52166 10.0518C6.49623 10.0765 6.47841 10.108 6.47032 10.1425L5.73299 12.9558L4.75632 9.24913V9.24979Z"></path>
  </symbol>
  <symbol fill="none" xmlns="http://www.w3.org/2000/svg" viewBox="0 0 56 19" id="visa-icon">
    <g clip-path="url(#clip0_564_7917)">
      <path d="M28.9618 6.04961C28.9299 8.6858 31.2069 10.1568 32.9221 11.0315C34.6843 11.9289 35.2763 12.5043 35.2693 13.3069C35.2562 14.5351 33.8636 15.0771 32.5605 15.0982C30.287 15.135 28.9651 14.4559 27.9142 13.9422L27.0952 17.9525C28.1496 18.461 30.102 18.9044 32.1265 18.9238C36.8788 18.9238 39.9879 16.4689 40.0048 12.6628C40.0234 7.83218 33.6199 7.5648 33.6637 5.40567C33.6788 4.75097 34.2757 4.05232 35.5838 3.87468C36.2313 3.78495 38.0187 3.71627 40.0452 4.69283L40.8406 0.812706C39.7508 0.397453 38.3502 -0.000173569 36.6063 -0.000173569C32.1333 -0.000173569 28.9872 2.48814 28.9618 6.04961ZM48.4833 0.334044C47.6155 0.334044 46.8843 0.863752 46.5579 1.67663L39.7694 18.6388H44.5182L45.4632 15.9058H51.2663L51.8144 18.6388H56L52.3475 0.334044H48.4833ZM49.1477 5.27885L50.5181 12.1525H46.7648L49.1477 5.27885ZM23.2041 0.33427L19.4609 18.6386H23.9862L27.7277 0.333815H23.2041M16.5097 0.333815L11.7996 12.793L9.89428 2.19948C9.67072 1.0169 8.78784 0.334044 7.80741 0.334044H0.107844L0 0.865585C1.58069 1.22452 3.37663 1.80345 4.46469 2.4229C5.13056 2.8013 5.32044 3.13208 5.53919 4.03126L9.14791 18.6388H13.93L21.2616 0.334044L16.5097 0.333815Z" fill="url(#paint0_linear_564_7917)"></path>
    </g>
  </symbol>
</svg>