<svg width="0" height="0" class="hidden">
  <symbol width="80" height="38" viewBox="0 0 80 38" fill="none" xmlns="http://www.w3.org/2000/svg" id="footer-logo">
<path d="M0.941406 8.76943C0.941406 7.62914 1.15649 6.56738 1.58666 5.58414C2.01682 4.59407 2.63818 3.73715 3.45071 3.01338C4.27008 2.28278 5.26698 1.70922 6.4414 1.29271C7.62265 0.876201 8.95754 0.667945 10.4461 0.667945C11.7502 0.667945 12.9451 0.801092 14.0308 1.06739C15.1233 1.32685 16.1372 1.72629 17.0727 2.26571L15.5773 4.72381C15.2974 4.53945 14.973 4.37558 14.6043 4.23219C14.2424 4.0888 13.8532 3.96931 13.4367 3.87371C13.0271 3.77129 12.6003 3.69277 12.1565 3.63815C11.7195 3.58352 11.2859 3.55621 10.8557 3.55621C9.81787 3.55621 8.89267 3.68594 8.08013 3.94541C7.26759 4.19805 6.58138 4.55652 6.02148 5.02083C5.4684 5.47831 5.04506 6.02796 4.75146 6.6698C4.46468 7.30481 4.32129 8.00468 4.32129 8.76943C4.32129 9.56148 4.47151 10.2887 4.77194 10.951C5.07238 11.6133 5.50596 12.1869 6.07269 12.6717C6.64624 13.1496 7.3427 13.5252 8.16207 13.7983C8.98826 14.0646 9.92029 14.1977 10.9582 14.1977C11.4293 14.1977 11.897 14.1636 12.3613 14.0953C12.8256 14.027 13.2729 13.9348 13.703 13.8188C14.14 13.6959 14.56 13.5525 14.9628 13.3886C15.3657 13.2179 15.7412 13.0335 16.0894 12.8355L17.5848 15.2936C16.7108 15.8535 15.7002 16.2939 14.5531 16.6149C13.406 16.9289 12.1872 17.086 10.8967 17.086C9.25114 17.086 7.80701 16.8743 6.56431 16.451C5.3216 16.0208 4.28374 15.4336 3.45071 14.6893C2.61769 13.9383 1.98951 13.0574 1.56617 12.0469C1.14966 11.0295 0.941406 9.93702 0.941406 8.76943Z" fill="#262626"/>
<path d="M21.7255 8.82064C21.7255 7.61207 21.9474 6.50593 22.3912 5.5022C22.8351 4.49848 23.4564 3.63815 24.2553 2.9212C25.061 2.19743 26.0238 1.63753 27.1436 1.2415C28.2702 0.845474 29.5163 0.647461 30.8819 0.647461C32.2407 0.647461 33.4834 0.845474 34.61 1.2415C35.7367 1.63753 36.6994 2.19743 37.4983 2.9212C38.304 3.63815 38.9288 4.49848 39.3726 5.5022C39.8164 6.50593 40.0383 7.61207 40.0383 8.82064C40.0383 10.036 39.8164 11.1524 39.3726 12.1698C38.9288 13.1803 38.304 14.0509 37.4983 14.7815C36.6994 15.5121 35.7367 16.0823 34.61 16.4919C33.4834 16.8948 32.2407 17.0962 30.8819 17.0962C29.5163 17.0962 28.2702 16.8948 27.1436 16.4919C26.0238 16.0823 25.061 15.5121 24.2553 14.7815C23.4564 14.0509 22.8351 13.1803 22.3912 12.1698C21.9474 11.1524 21.7255 10.036 21.7255 8.82064ZM24.9722 8.82064C24.9722 9.64683 25.119 10.3911 25.4126 11.0534C25.7131 11.7157 26.1262 12.2825 26.6519 12.7536C27.1845 13.2179 27.8093 13.5764 28.5262 13.829C29.25 14.0816 30.0352 14.208 30.8819 14.208C31.7286 14.208 32.5104 14.0816 33.2274 13.829C33.9511 13.5764 34.5759 13.2179 35.1017 12.7536C35.6274 12.2825 36.0405 11.7157 36.3409 11.0534C36.6414 10.3911 36.7916 9.64683 36.7916 8.82064C36.7916 7.99444 36.6414 7.2536 36.3409 6.59811C36.0405 5.94261 35.6274 5.38954 35.1017 4.93889C34.5759 4.48141 33.9511 4.13318 33.2274 3.8942C32.5104 3.65522 31.7286 3.53573 30.8819 3.53573C30.0352 3.53573 29.25 3.65522 28.5262 3.8942C27.8093 4.13318 27.1845 4.48141 26.6519 4.93889C26.1262 5.38954 25.7131 5.94261 25.4126 6.59811C25.119 7.2536 24.9722 7.99444 24.9722 8.82064Z" fill="#C57100"/>
<path d="M52.5059 5.5022L54.0422 3.6279H44.4249V0.862544H60.085L51.1232 12.1186L49.5254 14.1055H59.5831V16.8709H43.6362L52.5059 5.5022Z" fill="#262626"/>
<path d="M69.06 12.9072L62.0646 0.862544H65.7415L70.668 9.96775L75.533 0.862544H79.2099L72.3067 12.8867V16.8709H69.06V12.9072Z" fill="#262626"/>
<path d="M1.90416 20.8395H5.1509V25.0182H15.1062V20.8395H18.3632V36.8478H15.1062V27.7938H5.1509V36.8478H1.90416V20.8395Z" fill="#262626"/>
<path d="M21.469 28.7976C21.469 27.589 21.6909 26.4828 22.1347 25.4791C22.5785 24.4754 23.1999 23.6151 23.9988 22.8981C24.8045 22.1743 25.7672 21.6144 26.887 21.2184C28.0136 20.8224 29.2598 20.6244 30.6254 20.6244C31.9842 20.6244 33.2269 20.8224 34.3535 21.2184C35.4801 21.6144 36.4429 22.1743 37.2418 22.8981C38.0475 23.6151 38.6722 24.4754 39.1161 25.4791C39.5599 26.4828 39.7818 27.589 39.7818 28.7976C39.7818 30.0129 39.5599 31.1293 39.1161 32.1467C38.6722 33.1573 38.0475 34.0278 37.2418 34.7584C36.4429 35.489 35.4801 36.0592 34.3535 36.4689C33.2269 36.8717 31.9842 37.0732 30.6254 37.0732C29.2598 37.0732 28.0136 36.8717 26.887 36.4689C25.7672 36.0592 24.8045 35.489 23.9988 34.7584C23.1999 34.0278 22.5785 33.1573 22.1347 32.1467C21.6909 31.1293 21.469 30.0129 21.469 28.7976ZM24.7157 28.7976C24.7157 29.6237 24.8625 30.368 25.1561 31.0303C25.4565 31.6926 25.8696 32.2594 26.3954 32.7305C26.928 33.1948 27.5528 33.5533 28.2697 33.8059C28.9935 34.0586 29.7787 34.1849 30.6254 34.1849C31.4721 34.1849 32.2539 34.0586 32.9708 33.8059C33.6946 33.5533 34.3194 33.1948 34.8451 32.7305C35.3709 32.2594 35.784 31.6926 36.0844 31.0303C36.3848 30.368 36.5351 29.6237 36.5351 28.7976C36.5351 27.9714 36.3848 27.2305 36.0844 26.575C35.784 25.9195 35.3709 25.3665 34.8451 24.9158C34.3194 24.4583 33.6946 24.1101 32.9708 23.8711C32.2539 23.6321 31.4721 23.5126 30.6254 23.5126C29.7787 23.5126 28.9935 23.6321 28.2697 23.8711C27.5528 24.1101 26.928 24.4583 26.3954 24.9158C25.8696 25.3665 25.4565 25.9195 25.1561 26.575C24.8625 27.2305 24.7157 27.9714 24.7157 28.7976Z" fill="#C57100"/>
<path d="M42.8978 20.8395H46.1446L51.9621 26.6774L57.7796 20.8395H61.0263V36.8478H57.7796V25.3357L51.9621 30.9381L46.1446 25.3357V36.8478H42.8978V20.8395Z" fill="#262626"/>
<path d="M65.584 20.8395H79.2162V23.6868H68.8307V26.8823H78.0281V29.5555H68.8307V34.0108H79.4313V36.8478H65.584V20.8395Z" fill="#262626"/>
</symbol>
  <symbol fill="none" xmlns="http://www.w3.org/2000/svg" viewBox="0 0 30 30" id="facebook-icon">
    <circle cx="15" cy="15" r="14.5" stroke="#262626"></circle>
    <path d="M13.1315 21.3337H15.7982V15.9937H18.2008L18.4648 13.3403H15.7982V12.0003C15.7982 11.8235 15.8684 11.6539 15.9934 11.5289C16.1185 11.4039 16.288 11.3337 16.4648 11.3337H18.4648V8.66699H16.4648C15.5808 8.66699 14.7329 9.01818 14.1078 9.6433C13.4827 10.2684 13.1315 11.1163 13.1315 12.0003V13.3403H11.7982L11.5342 15.9937H13.1315V21.3337Z" fill="#262626"></path>
  </symbol>
  <symbol fill="none" xmlns="http://www.w3.org/2000/svg" viewBox="0 0 30 30" id="instgram-icon">
    <circle cx="15" cy="15" r="14.5" stroke="#262626"></circle>
    <path d="M15.6854 8.33383C16.1719 8.33196 16.6584 8.33685 17.1447 8.34849L17.2741 8.35316C17.4234 8.35849 17.5707 8.36516 17.7487 8.37316C18.4581 8.40649 18.9421 8.51849 19.3667 8.68316C19.8067 8.85249 20.1774 9.08183 20.5481 9.45249C20.887 9.78557 21.1493 10.1885 21.3167 10.6332C21.4814 11.0578 21.5934 11.5425 21.6267 12.2518C21.6347 12.4292 21.6414 12.5772 21.6467 12.7265L21.6507 12.8558C21.6626 13.342 21.6677 13.8282 21.6661 14.3145L21.6667 14.8118V15.6852C21.6684 16.1717 21.6633 16.6581 21.6514 17.1445L21.6474 17.2738C21.6421 17.4232 21.6354 17.5705 21.6274 17.7485C21.5941 18.4578 21.4807 18.9418 21.3167 19.3665C21.1498 19.8117 20.8875 20.2149 20.5481 20.5478C20.2147 20.8867 19.8116 21.149 19.3667 21.3165C18.9421 21.4812 18.4581 21.5932 17.7487 21.6265C17.5707 21.6345 17.4234 21.6412 17.2741 21.6465L17.1447 21.6505C16.6584 21.6623 16.1719 21.6675 15.6854 21.6658L15.1881 21.6665H14.3154C13.8289 21.6681 13.3424 21.663 12.8561 21.6512L12.7267 21.6472C12.5685 21.6414 12.4102 21.6348 12.2521 21.6272C11.5427 21.5938 11.0587 21.4805 10.6334 21.3165C10.1885 21.1494 9.78555 20.887 9.45273 20.5478C9.11342 20.2147 8.85088 19.8115 8.68339 19.3665C8.51873 18.9418 8.40673 18.4578 8.37339 17.7485C8.36597 17.5903 8.3593 17.4321 8.35339 17.2738L8.35006 17.1445C8.33777 16.6582 8.33221 16.1717 8.33339 15.6852V14.3145C8.33153 13.8282 8.33642 13.342 8.34806 12.8558L8.35273 12.7265C8.35806 12.5772 8.36473 12.4292 8.37273 12.2518C8.40606 11.5418 8.51806 11.0585 8.68273 10.6332C8.85031 10.1882 9.11337 9.78546 9.45339 9.45316C9.78599 9.11366 10.1887 8.85088 10.6334 8.68316C11.0587 8.51849 11.5421 8.40649 12.2521 8.37316L12.7267 8.35316L12.8561 8.34983C13.3422 8.33754 13.8284 8.33199 14.3147 8.33316L15.6854 8.33383ZM15.0001 11.6672C14.5584 11.6609 14.1199 11.7425 13.71 11.9072C13.3002 12.0719 12.9272 12.3164 12.6126 12.6265C12.2981 12.9366 12.0483 13.3062 11.8779 13.7137C11.7074 14.1212 11.6196 14.5585 11.6196 15.0002C11.6196 15.4419 11.7074 15.8792 11.8779 16.2867C12.0483 16.6941 12.2981 17.0637 12.6126 17.3738C12.9272 17.6839 13.3002 17.9284 13.71 18.0931C14.1199 18.2578 14.5584 18.3394 15.0001 18.3332C15.8841 18.3332 16.732 17.982 17.3571 17.3569C17.9822 16.7317 18.3334 15.8839 18.3334 14.9998C18.3334 14.1158 17.9822 13.2679 17.3571 12.6428C16.732 12.0177 15.8841 11.6672 15.0001 11.6672ZM15.0001 13.0005C15.2657 12.9956 15.5297 13.0437 15.7766 13.142C16.0235 13.2402 16.2483 13.3867 16.4379 13.5729C16.6275 13.759 16.7782 13.981 16.881 14.2261C16.9839 14.4711 17.0369 14.7341 17.0369 14.9998C17.0369 15.2655 16.984 15.5286 16.8813 15.7736C16.7785 16.0187 16.628 16.2408 16.4384 16.427C16.2488 16.6132 16.0241 16.7597 15.7772 16.8581C15.5304 16.9565 15.2664 17.0046 15.0007 16.9998C14.4703 16.9998 13.9616 16.7891 13.5865 16.414C13.2114 16.039 13.0007 15.5303 13.0007 14.9998C13.0007 14.4694 13.2114 13.9607 13.5865 13.5856C13.9616 13.2105 14.4703 12.9998 15.0007 12.9998L15.0001 13.0005ZM18.5001 10.6672C18.285 10.6758 18.0816 10.7673 17.9325 10.9225C17.7833 11.0777 17.7001 11.2846 17.7001 11.4998C17.7001 11.7151 17.7833 11.922 17.9325 12.0772C18.0816 12.2324 18.285 12.3239 18.5001 12.3325C18.7211 12.3325 18.933 12.2447 19.0893 12.0884C19.2456 11.9321 19.3334 11.7202 19.3334 11.4992C19.3334 11.2781 19.2456 11.0662 19.0893 10.9099C18.933 10.7536 18.7211 10.6658 18.5001 10.6658V10.6672Z" fill="#262626"></path>
  </symbol>
  <symbol fill="none" xmlns="http://www.w3.org/2000/svg" viewBox="0 0 32 25" id="mastercard-icon">
    <g clip-path="url(#clip0_564_7919)">
      <path d="M5.81764 24.8761V23.2215C5.81764 22.5871 5.43339 22.1735 4.77477 22.1735C4.44552 22.1735 4.08877 22.2838 3.84177 22.6423C3.64977 22.339 3.37539 22.1735 2.96377 22.1735C2.68927 22.1735 2.41502 22.2562 2.19539 22.5596V22.2287H1.61914V24.8761H2.19539V23.4145C2.19539 22.9457 2.44239 22.725 2.82664 22.725C3.21064 22.725 3.40289 22.9733 3.40289 23.4145V24.8761H3.97914V23.4145C3.97914 22.9457 4.25339 22.725 4.61014 22.725C4.99439 22.725 5.18639 22.9733 5.18639 23.4145V24.8761H5.81764ZM14.3515 22.2287H13.4186V21.4289H12.8424V22.2287H12.321V22.7525H12.8423V23.9661C12.8423 24.5729 13.0893 24.9313 13.7479 24.9313C13.9949 24.9313 14.2691 24.8486 14.4614 24.7383L14.2966 24.2418C14.132 24.3521 13.94 24.3798 13.8028 24.3798C13.5284 24.3798 13.4186 24.2143 13.4186 23.9385V22.7525H14.3515V22.2287ZM19.236 22.1734C18.9068 22.1734 18.6873 22.339 18.55 22.5596V22.2287H17.9738V24.8761H18.55V23.3869C18.55 22.9457 18.742 22.6975 19.0988 22.6975C19.2085 22.6975 19.3458 22.7251 19.4555 22.7526L19.6201 22.2011C19.5104 22.1735 19.3458 22.1735 19.236 22.1735V22.1734ZM11.8545 22.4493C11.58 22.2562 11.1959 22.1735 10.7843 22.1735C10.1258 22.1735 9.68677 22.5044 9.68677 23.0284C9.68677 23.4697 10.016 23.7178 10.5923 23.8006L10.8666 23.8283C11.1685 23.8833 11.3331 23.9661 11.3331 24.104C11.3331 24.297 11.1136 24.4349 10.7294 24.4349C10.3453 24.4349 10.0434 24.297 9.85127 24.1592L9.57689 24.6004C9.87877 24.821 10.2904 24.9313 10.7019 24.9313C11.4703 24.9313 11.9094 24.5729 11.9094 24.0764C11.9094 23.6075 11.5526 23.3593 11.0038 23.2766L10.7294 23.249C10.4824 23.2214 10.2904 23.1663 10.2904 23.0009C10.2904 22.8078 10.4824 22.6975 10.7843 22.6975C11.1136 22.6975 11.4429 22.8353 11.6075 22.9181L11.8545 22.4493ZM27.1664 22.1735C26.837 22.1735 26.6175 22.339 26.4803 22.5596V22.2287H25.904V24.8761H26.4803V23.3869C26.4803 22.9457 26.6724 22.6975 27.029 22.6975C27.1389 22.6975 27.2761 22.7251 27.3859 22.7526L27.5505 22.2011C27.4408 22.1735 27.2761 22.1735 27.1664 22.1735ZM19.8123 23.5524C19.8123 24.3521 20.361 24.9313 21.2118 24.9313C21.5959 24.9313 21.8703 24.8486 22.1446 24.628L21.8703 24.1592C21.6508 24.3246 21.4313 24.4073 21.1843 24.4073C20.7178 24.4073 20.3885 24.0764 20.3885 23.5524C20.3885 23.056 20.7178 22.725 21.1843 22.6975C21.4313 22.6975 21.6508 22.7802 21.8703 22.9457L22.1446 22.4769C21.8703 22.2562 21.5959 22.1735 21.2118 22.1735C20.361 22.1735 19.8123 22.7526 19.8123 23.5524ZM25.1358 23.5524V22.2287H24.5595V22.5596C24.3674 22.3114 24.093 22.1735 23.7363 22.1735C22.9954 22.1735 22.4191 22.7526 22.4191 23.5524C22.4191 24.3521 22.9954 24.9313 23.7363 24.9313C24.1204 24.9313 24.3949 24.7935 24.5595 24.5452V24.8761H25.1358V23.5524ZM23.0228 23.5524C23.0228 23.0836 23.3246 22.6975 23.8185 22.6975C24.285 22.6975 24.6144 23.056 24.6144 23.5524C24.6144 24.0212 24.285 24.4073 23.8185 24.4073C23.3246 24.3797 23.0228 24.0212 23.0228 23.5524ZM16.1353 22.1735C15.3669 22.1735 14.818 22.725 14.818 23.5524C14.818 24.3798 15.3668 24.9313 16.1626 24.9313C16.5468 24.9313 16.931 24.821 17.2329 24.5729L16.9584 24.1592C16.7389 24.3246 16.4645 24.4349 16.1901 24.4349C15.8334 24.4349 15.4766 24.2695 15.3943 23.8005H17.3426V23.58C17.3701 22.725 16.8763 22.1735 16.1353 22.1735ZM16.1353 22.6699C16.4919 22.6699 16.739 22.8906 16.7938 23.3043H15.4218C15.4766 22.9457 15.7236 22.6699 16.1353 22.6699ZM30.4318 23.5524V21.1807H29.8555V22.5596C29.6634 22.3114 29.389 22.1735 29.0323 22.1735C28.2914 22.1735 27.7151 22.7526 27.7151 23.5524C27.7151 24.3521 28.2914 24.9313 29.0323 24.9313C29.4165 24.9313 29.6909 24.7935 29.8555 24.5452V24.8761H30.4318V23.5524ZM28.3189 23.5524C28.3189 23.0836 28.6206 22.6975 29.1146 22.6975C29.5811 22.6975 29.9104 23.056 29.9104 23.5524C29.9104 24.0212 29.5811 24.4073 29.1146 24.4073C28.6206 24.3797 28.3189 24.0212 28.3189 23.5524ZM9.05552 23.5524V22.2287H8.47927V22.5596C8.28714 22.3114 8.01277 22.1735 7.65602 22.1735C6.91514 22.1735 6.33889 22.7526 6.33889 23.5524C6.33889 24.3521 6.91514 24.9313 7.65602 24.9313C8.04027 24.9313 8.31464 24.7935 8.47927 24.5452V24.8761H9.05552V23.5524ZM6.91514 23.5524C6.91514 23.0836 7.21702 22.6975 7.71089 22.6975C8.17739 22.6975 8.50677 23.056 8.50677 23.5524C8.50677 24.0212 8.17739 24.4073 7.71089 24.4073C7.21702 24.3797 6.91514 24.0212 6.91514 23.5524Z" fill="#262626"></path>
      <path d="M11.6621 2.12305H20.3059V17.7325H11.6621V2.12305Z" fill="#FF5F00"></path>
      <path d="M12.2111 9.92827C12.2111 6.75678 13.6929 3.94372 15.9704 2.12349C14.2966 0.799749 12.1837 0 9.87875 0C4.41787 0 0 4.44007 0 9.92827C0 15.4163 4.41787 19.8565 9.87862 19.8565C12.1836 19.8565 14.2965 19.0568 15.9704 17.7329C13.6929 15.9403 12.2111 13.0997 12.2111 9.92827Z" fill="#EB001B"></path>
      <path d="M31.9684 9.92827C31.9684 15.4163 27.5505 19.8565 22.0898 19.8565C19.7848 19.8565 17.6719 19.0568 15.998 17.7329C18.303 15.9128 19.7574 13.0997 19.7574 9.92827C19.7574 6.75678 18.2755 3.94372 15.998 2.12349C17.6718 0.799749 19.7848 0 22.0898 0C27.5505 0 31.9684 4.46771 31.9684 9.92827Z" fill="#F79E1B"></path>
    </g>
  </symbol>
  <symbol fill="none" xmlns="http://www.w3.org/2000/svg" viewBox="0 0 30 30" id="telegram-icon">
    <path fill-rule="evenodd" clip-rule="evenodd" d="M19.3217 20.1931V20.1918L19.3337 20.1631L21.333 10.0831V10.0511C21.333 9.79979 21.2397 9.58046 21.0383 9.44913C20.8617 9.33379 20.6583 9.32579 20.5157 9.33646C20.3829 9.34847 20.2518 9.37531 20.125 9.41646C20.0709 9.4339 20.0175 9.45347 19.965 9.47513L19.9563 9.47846L8.80966 13.8511L8.80632 13.8525C8.77243 13.864 8.73926 13.8776 8.70699 13.8931C8.62771 13.9287 8.55166 13.9711 8.47966 14.0198C8.33632 14.1185 8.06366 14.3505 8.10966 14.7185C8.14766 15.0238 8.35766 15.2171 8.49966 15.3178C8.58347 15.3765 8.67359 15.4257 8.76832 15.4645L8.78966 15.4738L8.79632 15.4758L8.80099 15.4778L10.7517 16.1345C10.745 16.2565 10.757 16.3811 10.7897 16.5045L11.7663 20.2105C11.8197 20.4125 11.935 20.5927 12.096 20.7258C12.257 20.859 12.4557 20.9383 12.6642 20.9527C12.8726 20.9671 13.0803 20.9159 13.2582 20.8062C13.436 20.6965 13.575 20.5339 13.6557 20.3411L15.181 18.7105L17.8003 20.7185L17.8377 20.7345C18.0757 20.8385 18.2977 20.8711 18.501 20.8438C18.7043 20.8158 18.8657 20.7305 18.987 20.6338C19.1273 20.52 19.2392 20.3751 19.3137 20.2105L19.319 20.1991L19.321 20.1951L19.3217 20.1931ZM11.7563 16.2498C11.7455 16.2087 11.7481 16.1652 11.7637 16.1256C11.7792 16.0861 11.807 16.0525 11.843 16.0298L18.457 11.8298C18.457 11.8298 18.8463 11.5931 18.8323 11.8298C18.8323 11.8298 18.9017 11.8711 18.693 12.0651C18.4957 12.2498 13.979 16.6105 13.5217 17.0518C13.4962 17.0765 13.4784 17.108 13.4703 17.1425L12.733 19.9558L11.7563 16.2491V16.2498Z" fill="#262626"></path>
    <circle cx="15" cy="15" r="14.5" stroke="#262626"></circle>
  </symbol>
  <symbol fill="none" xmlns="http://www.w3.org/2000/svg" viewBox="0 0 56 19" id="visa-icon">
    <g clip-path="url(#clip0_564_7917)">
      <path d="M28.9618 6.04961C28.9299 8.6858 31.2069 10.1568 32.9221 11.0315C34.6843 11.9289 35.2763 12.5043 35.2693 13.3069C35.2562 14.5351 33.8636 15.0771 32.5605 15.0982C30.287 15.135 28.9651 14.4559 27.9142 13.9422L27.0952 17.9525C28.1496 18.461 30.102 18.9044 32.1265 18.9238C36.8788 18.9238 39.9879 16.4689 40.0048 12.6628C40.0234 7.83218 33.6199 7.5648 33.6637 5.40567C33.6788 4.75097 34.2757 4.05232 35.5838 3.87468C36.2313 3.78495 38.0187 3.71627 40.0452 4.69283L40.8406 0.812706C39.7508 0.397453 38.3502 -0.000173569 36.6063 -0.000173569C32.1333 -0.000173569 28.9872 2.48814 28.9618 6.04961ZM48.4833 0.334044C47.6155 0.334044 46.8843 0.863752 46.5579 1.67663L39.7694 18.6388H44.5182L45.4632 15.9058H51.2663L51.8144 18.6388H56L52.3475 0.334044H48.4833ZM49.1477 5.27885L50.5181 12.1525H46.7648L49.1477 5.27885ZM23.2041 0.33427L19.4609 18.6386H23.9862L27.7277 0.333815H23.2041M16.5097 0.333815L11.7996 12.793L9.89428 2.19948C9.67072 1.0169 8.78784 0.334044 7.80741 0.334044H0.107844L0 0.865585C1.58069 1.22452 3.37663 1.80345 4.46469 2.4229C5.13056 2.8013 5.32044 3.13208 5.53919 4.03126L9.14791 18.6388H13.93L21.2616 0.334044L16.5097 0.333815Z" fill="url(#paint0_linear_564_7917)"></path>
    </g>
  </symbol>
</svg>