<svg width="32" height="25" viewBox="0 0 32 25" fill="none" xmlns="http://www.w3.org/2000/svg">
<g clip-path="url(#clip0_564_7919)">
<path d="M5.81764 24.8761V23.2215C5.81764 22.5871 5.43339 22.1735 4.77477 22.1735C4.44552 22.1735 4.08877 22.2838 3.84177 22.6423C3.64977 22.339 3.37539 22.1735 2.96377 22.1735C2.68927 22.1735 2.41502 22.2562 2.19539 22.5596V22.2287H1.61914V24.8761H2.19539V23.4145C2.19539 22.9457 2.44239 22.725 2.82664 22.725C3.21064 22.725 3.40289 22.9733 3.40289 23.4145V24.8761H3.97914V23.4145C3.97914 22.9457 4.25339 22.725 4.61014 22.725C4.99439 22.725 5.18639 22.9733 5.18639 23.4145V24.8761H5.81764ZM14.3515 22.2287H13.4186V21.4289H12.8424V22.2287H12.321V22.7525H12.8423V23.9661C12.8423 24.5729 13.0893 24.9313 13.7479 24.9313C13.9949 24.9313 14.2691 24.8486 14.4614 24.7383L14.2966 24.2418C14.132 24.3521 13.94 24.3798 13.8028 24.3798C13.5284 24.3798 13.4186 24.2143 13.4186 23.9385V22.7525H14.3515V22.2287ZM19.236 22.1734C18.9068 22.1734 18.6873 22.339 18.55 22.5596V22.2287H17.9738V24.8761H18.55V23.3869C18.55 22.9457 18.742 22.6975 19.0988 22.6975C19.2085 22.6975 19.3458 22.7251 19.4555 22.7526L19.6201 22.2011C19.5104 22.1735 19.3458 22.1735 19.236 22.1735V22.1734ZM11.8545 22.4493C11.58 22.2562 11.1959 22.1735 10.7843 22.1735C10.1258 22.1735 9.68677 22.5044 9.68677 23.0284C9.68677 23.4697 10.016 23.7178 10.5923 23.8006L10.8666 23.8283C11.1685 23.8833 11.3331 23.9661 11.3331 24.104C11.3331 24.297 11.1136 24.4349 10.7294 24.4349C10.3453 24.4349 10.0434 24.297 9.85127 24.1592L9.57689 24.6004C9.87877 24.821 10.2904 24.9313 10.7019 24.9313C11.4703 24.9313 11.9094 24.5729 11.9094 24.0764C11.9094 23.6075 11.5526 23.3593 11.0038 23.2766L10.7294 23.249C10.4824 23.2214 10.2904 23.1663 10.2904 23.0009C10.2904 22.8078 10.4824 22.6975 10.7843 22.6975C11.1136 22.6975 11.4429 22.8353 11.6075 22.9181L11.8545 22.4493ZM27.1664 22.1735C26.837 22.1735 26.6175 22.339 26.4803 22.5596V22.2287H25.904V24.8761H26.4803V23.3869C26.4803 22.9457 26.6724 22.6975 27.029 22.6975C27.1389 22.6975 27.2761 22.7251 27.3859 22.7526L27.5505 22.2011C27.4408 22.1735 27.2761 22.1735 27.1664 22.1735ZM19.8123 23.5524C19.8123 24.3521 20.361 24.9313 21.2118 24.9313C21.5959 24.9313 21.8703 24.8486 22.1446 24.628L21.8703 24.1592C21.6508 24.3246 21.4313 24.4073 21.1843 24.4073C20.7178 24.4073 20.3885 24.0764 20.3885 23.5524C20.3885 23.056 20.7178 22.725 21.1843 22.6975C21.4313 22.6975 21.6508 22.7802 21.8703 22.9457L22.1446 22.4769C21.8703 22.2562 21.5959 22.1735 21.2118 22.1735C20.361 22.1735 19.8123 22.7526 19.8123 23.5524ZM25.1358 23.5524V22.2287H24.5595V22.5596C24.3674 22.3114 24.093 22.1735 23.7363 22.1735C22.9954 22.1735 22.4191 22.7526 22.4191 23.5524C22.4191 24.3521 22.9954 24.9313 23.7363 24.9313C24.1204 24.9313 24.3949 24.7935 24.5595 24.5452V24.8761H25.1358V23.5524ZM23.0228 23.5524C23.0228 23.0836 23.3246 22.6975 23.8185 22.6975C24.285 22.6975 24.6144 23.056 24.6144 23.5524C24.6144 24.0212 24.285 24.4073 23.8185 24.4073C23.3246 24.3797 23.0228 24.0212 23.0228 23.5524ZM16.1353 22.1735C15.3669 22.1735 14.818 22.725 14.818 23.5524C14.818 24.3798 15.3668 24.9313 16.1626 24.9313C16.5468 24.9313 16.931 24.821 17.2329 24.5729L16.9584 24.1592C16.7389 24.3246 16.4645 24.4349 16.1901 24.4349C15.8334 24.4349 15.4766 24.2695 15.3943 23.8005H17.3426V23.58C17.3701 22.725 16.8763 22.1735 16.1353 22.1735ZM16.1353 22.6699C16.4919 22.6699 16.739 22.8906 16.7938 23.3043H15.4218C15.4766 22.9457 15.7236 22.6699 16.1353 22.6699ZM30.4318 23.5524V21.1807H29.8555V22.5596C29.6634 22.3114 29.389 22.1735 29.0323 22.1735C28.2914 22.1735 27.7151 22.7526 27.7151 23.5524C27.7151 24.3521 28.2914 24.9313 29.0323 24.9313C29.4165 24.9313 29.6909 24.7935 29.8555 24.5452V24.8761H30.4318V23.5524ZM28.3189 23.5524C28.3189 23.0836 28.6206 22.6975 29.1146 22.6975C29.5811 22.6975 29.9104 23.056 29.9104 23.5524C29.9104 24.0212 29.5811 24.4073 29.1146 24.4073C28.6206 24.3797 28.3189 24.0212 28.3189 23.5524ZM9.05552 23.5524V22.2287H8.47927V22.5596C8.28714 22.3114 8.01277 22.1735 7.65602 22.1735C6.91514 22.1735 6.33889 22.7526 6.33889 23.5524C6.33889 24.3521 6.91514 24.9313 7.65602 24.9313C8.04027 24.9313 8.31464 24.7935 8.47927 24.5452V24.8761H9.05552V23.5524ZM6.91514 23.5524C6.91514 23.0836 7.21702 22.6975 7.71089 22.6975C8.17739 22.6975 8.50677 23.056 8.50677 23.5524C8.50677 24.0212 8.17739 24.4073 7.71089 24.4073C7.21702 24.3797 6.91514 24.0212 6.91514 23.5524Z" fill="#262626"/>
<path d="M11.6621 2.12305H20.3059V17.7325H11.6621V2.12305Z" fill="#FF5F00"/>
<path d="M12.2111 9.92827C12.2111 6.75678 13.6929 3.94372 15.9704 2.12349C14.2966 0.799749 12.1837 0 9.87875 0C4.41787 0 0 4.44007 0 9.92827C0 15.4163 4.41787 19.8565 9.87862 19.8565C12.1836 19.8565 14.2965 19.0568 15.9704 17.7329C13.6929 15.9403 12.2111 13.0997 12.2111 9.92827Z" fill="#EB001B"/>
<path d="M31.9684 9.92827C31.9684 15.4163 27.5505 19.8565 22.0898 19.8565C19.7848 19.8565 17.6719 19.0568 15.998 17.7329C18.303 15.9128 19.7574 13.0997 19.7574 9.92827C19.7574 6.75678 18.2755 3.94372 15.998 2.12349C17.6718 0.799749 19.7848 0 22.0898 0C27.5505 0 31.9684 4.46771 31.9684 9.92827Z" fill="#F79E1B"/>
</g>
<defs>
<clipPath id="clip0_564_7919">
<rect width="32" height="25" fill="white"/>
</clipPath>
</defs>
</svg>
