<svg width="30" height="30" viewBox="0 0 30 30" fill="none" xmlns="http://www.w3.org/2000/svg">
<path fill-rule="evenodd" clip-rule="evenodd" d="M19.3217 20.1931V20.1918L19.3337 20.1631L21.333 10.0831V10.0511C21.333 9.79979 21.2397 9.58046 21.0383 9.44913C20.8617 9.33379 20.6583 9.32579 20.5157 9.33646C20.3829 9.34847 20.2518 9.37531 20.125 9.41646C20.0709 9.4339 20.0175 9.45347 19.965 9.47513L19.9563 9.47846L8.80966 13.8511L8.80632 13.8525C8.77243 13.864 8.73926 13.8776 8.70699 13.8931C8.62771 13.9287 8.55166 13.9711 8.47966 14.0198C8.33632 14.1185 8.06366 14.3505 8.10966 14.7185C8.14766 15.0238 8.35766 15.2171 8.49966 15.3178C8.58347 15.3765 8.67359 15.4257 8.76832 15.4645L8.78966 15.4738L8.79632 15.4758L8.80099 15.4778L10.7517 16.1345C10.745 16.2565 10.757 16.3811 10.7897 16.5045L11.7663 20.2105C11.8197 20.4125 11.935 20.5927 12.096 20.7258C12.257 20.859 12.4557 20.9383 12.6642 20.9527C12.8726 20.9671 13.0803 20.9159 13.2582 20.8062C13.436 20.6965 13.575 20.5339 13.6557 20.3411L15.181 18.7105L17.8003 20.7185L17.8377 20.7345C18.0757 20.8385 18.2977 20.8711 18.501 20.8438C18.7043 20.8158 18.8657 20.7305 18.987 20.6338C19.1273 20.52 19.2392 20.3751 19.3137 20.2105L19.319 20.1991L19.321 20.1951L19.3217 20.1931ZM11.7563 16.2498C11.7455 16.2087 11.7481 16.1652 11.7637 16.1256C11.7792 16.0861 11.807 16.0525 11.843 16.0298L18.457 11.8298C18.457 11.8298 18.8463 11.5931 18.8323 11.8298C18.8323 11.8298 18.9017 11.8711 18.693 12.0651C18.4957 12.2498 13.979 16.6105 13.5217 17.0518C13.4962 17.0765 13.4784 17.108 13.4703 17.1425L12.733 19.9558L11.7563 16.2491V16.2498Z" fill="#262626"/>
<circle cx="15" cy="15" r="14.5" stroke="#262626"/>
</svg>
