<svg width="56" height="19" viewBox="0 0 56 19" fill="none" xmlns="http://www.w3.org/2000/svg">
<g clip-path="url(#clip0_564_7917)">
<path d="M28.9618 6.04961C28.9299 8.6858 31.2069 10.1568 32.9221 11.0315C34.6843 11.9289 35.2763 12.5043 35.2693 13.3069C35.2562 14.5351 33.8636 15.0771 32.5605 15.0982C30.287 15.135 28.9651 14.4559 27.9142 13.9422L27.0952 17.9525C28.1496 18.461 30.102 18.9044 32.1265 18.9238C36.8788 18.9238 39.9879 16.4689 40.0048 12.6628C40.0234 7.83218 33.6199 7.5648 33.6637 5.40567C33.6788 4.75097 34.2757 4.05232 35.5838 3.87468C36.2313 3.78495 38.0187 3.71627 40.0452 4.69283L40.8406 0.812706C39.7508 0.397453 38.3502 -0.000173569 36.6063 -0.000173569C32.1333 -0.000173569 28.9872 2.48814 28.9618 6.04961ZM48.4833 0.334044C47.6155 0.334044 46.8843 0.863752 46.5579 1.67663L39.7694 18.6388H44.5182L45.4632 15.9058H51.2663L51.8144 18.6388H56L52.3475 0.334044H48.4833ZM49.1477 5.27885L50.5181 12.1525H46.7648L49.1477 5.27885ZM23.2041 0.33427L19.4609 18.6386H23.9862L27.7277 0.333815H23.2041M16.5097 0.333815L11.7996 12.793L9.89428 2.19948C9.67072 1.0169 8.78784 0.334044 7.80741 0.334044H0.107844L0 0.865585C1.58069 1.22452 3.37663 1.80345 4.46469 2.4229C5.13056 2.8013 5.32044 3.13208 5.53919 4.03126L9.14791 18.6388H13.93L21.2616 0.334044L16.5097 0.333815Z" fill="url(#paint0_linear_564_7917)"/>
</g>
<defs>
<linearGradient id="paint0_linear_564_7917" x1="25.7454" y1="19.3034" x2="26.3186" y2="-0.130316" gradientUnits="userSpaceOnUse">
<stop stop-color="#222357"/>
<stop offset="1" stop-color="#254AA5"/>
</linearGradient>
<clipPath id="clip0_564_7917">
<rect width="56" height="19" fill="white"/>
</clipPath>
</defs>
</svg>
