<svg width="44" height="44" viewBox="0 0 44 44" fill="none" xmlns="http://www.w3.org/2000/svg">
<g id="02.Icons/Catalog/&#208;&#154;&#209;&#128;&#209;&#150;&#209;&#129;&#208;&#187;&#208;&#176;">
<g id="Group">
<path id="Vector" d="M7.33301 33V38.5M9.16634 18.3333V9.16667C9.16634 8.19421 9.55265 7.26158 10.2403 6.57394C10.9279 5.88631 11.8605 5.5 12.833 5.5H31.1663C32.1388 5.5 33.0714 5.88631 33.7591 6.57394C34.4467 7.26158 34.833 8.19421 34.833 9.16667V18.3333" stroke="#A3A3A3" stroke-width="2" stroke-linecap="round" stroke-linejoin="round"/>
<path id="Vector_2" d="M36.666 32.9997V38.4997M35.7493 18.333C34.5338 18.333 33.368 18.8159 32.5084 19.6754C31.6489 20.535 31.166 21.7008 31.166 22.9163V25.6663H12.8327V22.9163C12.8325 22.0491 12.5863 21.1998 12.1227 20.4669C11.6591 19.7341 10.9971 19.1478 10.2135 18.7762C9.43 18.4045 8.55712 18.2628 7.69626 18.3674C6.83541 18.4721 6.0219 18.8188 5.35023 19.3673C4.67856 19.9159 4.17629 20.6437 3.90176 21.4663C3.62722 22.2889 3.59168 23.1725 3.79928 24.0145C4.00687 24.8564 4.44907 25.6222 5.07452 26.2229C5.69997 26.8236 6.48301 27.2346 7.33268 27.408V32.9997H36.666V27.408C37.7799 27.1818 38.77 26.5498 39.4441 25.6347C40.1183 24.7196 40.4283 23.5866 40.3141 22.4557C40.1998 21.3249 39.6695 20.2768 38.826 19.5149C37.9825 18.7531 36.886 18.3319 35.7493 18.333V18.333Z" stroke="#A3A3A3" stroke-width="2" stroke-linecap="round" stroke-linejoin="round"/>
</g>
</g>
</svg>
