<svg width="44" height="44" viewBox="0 0 44 44" fill="none" xmlns="http://www.w3.org/2000/svg">
<g id="02.Icons/Catalog/&#208;&#155;&#209;&#150;&#208;&#182;&#208;&#186;&#208;&#176;" clip-path="url(#clip0_1345_12132)">
<g id="Group 4">
<path id="Vector 2" d="M2.53756 27.923V27.923C2.07024 27.923 1.69141 28.3018 1.69141 28.7692V30.3076C1.69141 30.8599 2.13912 31.3076 2.69141 31.3076H3.38371M2.53756 27.923H42.3068M2.53756 27.923C2.37568 26.7898 2.53898 25.0063 3.66736 23.6922M42.3068 27.923V27.923C42.7741 27.923 43.1529 28.3018 43.1529 28.7692V30.3076C43.1529 30.8599 42.7052 31.3076 42.1529 31.3076H41.4277M42.3068 27.923C42.3068 26.3738 42.0138 25.0883 41.4277 24.1153M8.46064 21.9999C8.31198 21.9999 8.17084 21.9999 8.03756 21.9999C5.87448 21.9999 4.505 22.7167 3.66736 23.6922M8.46064 21.9999V18.3461C8.46064 17.7938 8.90835 17.3461 9.46064 17.3461H18.8837C19.436 17.3461 19.8837 17.7938 19.8837 18.3461V21.9999M8.46064 21.9999C10.844 21.9999 15.1563 21.9999 19.8837 21.9999M19.8837 21.9999C21.4088 21.9999 22.977 21.9999 24.5376 21.9999M24.5376 21.9999V18.3461C24.5376 17.7938 24.9853 17.3461 25.5376 17.3461H34.9606C35.5129 17.3461 35.9606 17.7938 35.9606 18.3461V21.9999M24.5376 21.9999C28.7285 21.9999 32.8643 21.9999 35.9606 21.9999M35.9606 21.9999C36.4062 21.9999 36.8303 21.9999 37.2299 21.9999C39.2061 21.9999 40.6054 22.75 41.4277 24.1153M41.4277 24.1153V18.6153V10.3076C41.4277 9.75533 40.98 9.30762 40.4277 9.30762H4.66736C4.11507 9.30762 3.66736 9.75533 3.66736 10.3076V23.6922M3.38371 31.3076V34.1153C3.38371 34.6676 3.83143 35.1153 4.38371 35.1153H6.19141C6.74369 35.1153 7.19141 34.6676 7.19141 34.1153V31.3076M3.38371 31.3076H7.19141M7.19141 31.3076H37.6529M37.6529 31.3076V34.1153C37.6529 34.6676 38.1007 35.1153 38.6529 35.1153H40.4277C40.98 35.1153 41.4277 34.6676 41.4277 34.1153V31.3076M37.6529 31.3076H41.4277" stroke="#A3A3A3" stroke-width="2"/>
</g>
</g>
<defs>
<clipPath id="clip0_1345_12132">
<rect width="44" height="44" fill="white"/>
</clipPath>
</defs>
</svg>
