<svg width="44" height="44" viewBox="0 0 44 44" fill="none" xmlns="http://www.w3.org/2000/svg">
<g id="02.Icons/Catalog/&#208;&#168;&#208;&#176;&#209;&#132;&#208;&#184;">
<path id="Vector" d="M10.9992 3.94824C10.0267 3.94824 9.0941 4.33455 8.40646 5.02218C7.71883 5.70982 7.33252 6.64245 7.33252 7.61491V35.1149C7.33252 36.8363 8.50002 38.2691 10.0916 38.6698C10.5825 38.7934 10.9992 39.192 10.9992 39.6983C10.9992 40.2045 11.4096 40.6149 11.9159 40.6149H13.4436C13.9499 40.6149 14.3603 40.2045 14.3603 39.6983C14.3603 39.192 14.7707 38.7816 15.277 38.7816H28.7214C29.2277 38.7816 29.6381 39.192 29.6381 39.6983C29.6381 40.2045 30.0485 40.6149 30.5548 40.6149H32.0825C32.5888 40.6149 32.9992 40.2045 32.9992 39.6983C32.9992 39.192 33.4159 38.7934 33.9068 38.6698C35.4984 38.2691 36.6659 36.8363 36.6659 35.1149V7.61491C36.6659 6.64245 36.2796 5.70982 35.5919 5.02218C34.9043 4.33455 33.9717 3.94824 32.9992 3.94824H10.9992ZM9.77697 8.36933C9.77697 7.26476 10.6724 6.36933 11.777 6.36933H20.3881C20.9404 6.36933 21.3881 6.81705 21.3881 7.36933V35.6662C21.3881 36.2185 20.9404 36.6662 20.3881 36.6662H11.777C10.6724 36.6662 9.77697 35.7708 9.77697 34.6662V8.36933ZM23.2214 7.36933C23.2214 6.81705 23.6691 6.36933 24.2214 6.36933H32.2214C33.326 6.36933 34.2214 7.26476 34.2214 8.36933V34.6662C34.2214 35.7708 33.326 36.6662 32.2214 36.6662H24.2214C23.6691 36.6662 23.2214 36.2185 23.2214 35.6662V7.36933ZM15.6659 18.6149C15.1136 18.6149 14.6659 19.0626 14.6659 19.6149V23.1149C14.6659 23.6672 15.1136 24.1149 15.6659 24.1149H17.027C17.5793 24.1149 18.027 23.6672 18.027 23.1149V19.6149C18.027 19.0626 17.5793 18.6149 17.027 18.6149H15.6659ZM27.277 18.6149C26.7247 18.6149 26.277 19.0626 26.277 19.6149V23.1149C26.277 23.6672 26.7247 24.1149 27.277 24.1149H28.3325C28.8848 24.1149 29.3325 23.6672 29.3325 23.1149V19.6149C29.3325 19.0626 28.8848 18.6149 28.3325 18.6149H27.277Z" fill="#A3A3A3"/>
</g>
</svg>
