<svg width="0" height="0" class="hidden">
  <symbol xmlns="http://www.w3.org/2000/svg" viewBox="0 0 44 44" id="bed" fill="none">
    <g id="02.Icons/Catalog/Ліжка" clip-path="url(#clip0_1345_12132)">
      <g id="Group 4">
        <path id="Vector 2" d="M2.53756 27.923V27.923C2.07024 27.923 1.69141 28.3018 1.69141 28.7692V30.3076C1.69141 30.8599 2.13912 31.3076 2.69141 31.3076H3.38371M2.53756 27.923H42.3068M2.53756 27.923C2.37568 26.7898 2.53898 25.0063 3.66736 23.6922M42.3068 27.923V27.923C42.7741 27.923 43.1529 28.3018 43.1529 28.7692V30.3076C43.1529 30.8599 42.7052 31.3076 42.1529 31.3076H41.4277M42.3068 27.923C42.3068 26.3738 42.0138 25.0883 41.4277 24.1153M8.46064 21.9999C8.31198 21.9999 8.17084 21.9999 8.03756 21.9999C5.87448 21.9999 4.505 22.7167 3.66736 23.6922M8.46064 21.9999V18.3461C8.46064 17.7938 8.90835 17.3461 9.46064 17.3461H18.8837C19.436 17.3461 19.8837 17.7938 19.8837 18.3461V21.9999M8.46064 21.9999C10.844 21.9999 15.1563 21.9999 19.8837 21.9999M19.8837 21.9999C21.4088 21.9999 22.977 21.9999 24.5376 21.9999M24.5376 21.9999V18.3461C24.5376 17.7938 24.9853 17.3461 25.5376 17.3461H34.9606C35.5129 17.3461 35.9606 17.7938 35.9606 18.3461V21.9999M24.5376 21.9999C28.7285 21.9999 32.8643 21.9999 35.9606 21.9999M35.9606 21.9999C36.4062 21.9999 36.8303 21.9999 37.2299 21.9999C39.2061 21.9999 40.6054 22.75 41.4277 24.1153M41.4277 24.1153V18.6153V10.3076C41.4277 9.75533 40.98 9.30762 40.4277 9.30762H4.66736C4.11507 9.30762 3.66736 9.75533 3.66736 10.3076V23.6922M3.38371 31.3076V34.1153C3.38371 34.6676 3.83143 35.1153 4.38371 35.1153H6.19141C6.74369 35.1153 7.19141 34.6676 7.19141 34.1153V31.3076M3.38371 31.3076H7.19141M7.19141 31.3076H37.6529M37.6529 31.3076V34.1153C37.6529 34.6676 38.1007 35.1153 38.6529 35.1153H40.4277C40.98 35.1153 41.4277 34.6676 41.4277 34.1153V31.3076M37.6529 31.3076H41.4277" stroke-width="2"></path>
      </g>
    </g>
    <defs>
      <clipPath id="clip0_1345_12132">
        <rect width="44" height="44" fill="white"></rect>
      </clipPath>
    </defs>
  </symbol>
  <symbol xmlns="http://www.w3.org/2000/svg" viewBox="0 0 44 44" id="cabinets">
    <g id="02.Icons/Catalog/&#208;&#168;&#208;&#176;&#209;&#132;&#208;&#184;">
      <path id="Vector" d="M10.9992 3.94824C10.0267 3.94824 9.0941 4.33455 8.40646 5.02218C7.71883 5.70982 7.33252 6.64245 7.33252 7.61491V35.1149C7.33252 36.8363 8.50002 38.2691 10.0916 38.6698C10.5825 38.7934 10.9992 39.192 10.9992 39.6983C10.9992 40.2045 11.4096 40.6149 11.9159 40.6149H13.4436C13.9499 40.6149 14.3603 40.2045 14.3603 39.6983C14.3603 39.192 14.7707 38.7816 15.277 38.7816H28.7214C29.2277 38.7816 29.6381 39.192 29.6381 39.6983C29.6381 40.2045 30.0485 40.6149 30.5548 40.6149H32.0825C32.5888 40.6149 32.9992 40.2045 32.9992 39.6983C32.9992 39.192 33.4159 38.7934 33.9068 38.6698C35.4984 38.2691 36.6659 36.8363 36.6659 35.1149V7.61491C36.6659 6.64245 36.2796 5.70982 35.5919 5.02218C34.9043 4.33455 33.9717 3.94824 32.9992 3.94824H10.9992ZM9.77697 8.36933C9.77697 7.26476 10.6724 6.36933 11.777 6.36933H20.3881C20.9404 6.36933 21.3881 6.81705 21.3881 7.36933V35.6662C21.3881 36.2185 20.9404 36.6662 20.3881 36.6662H11.777C10.6724 36.6662 9.77697 35.7708 9.77697 34.6662V8.36933ZM23.2214 7.36933C23.2214 6.81705 23.6691 6.36933 24.2214 6.36933H32.2214C33.326 6.36933 34.2214 7.26476 34.2214 8.36933V34.6662C34.2214 35.7708 33.326 36.6662 32.2214 36.6662H24.2214C23.6691 36.6662 23.2214 36.2185 23.2214 35.6662V7.36933ZM15.6659 18.6149C15.1136 18.6149 14.6659 19.0626 14.6659 19.6149V23.1149C14.6659 23.6672 15.1136 24.1149 15.6659 24.1149H17.027C17.5793 24.1149 18.027 23.6672 18.027 23.1149V19.6149C18.027 19.0626 17.5793 18.6149 17.027 18.6149H15.6659ZM27.277 18.6149C26.7247 18.6149 26.277 19.0626 26.277 19.6149V23.1149C26.277 23.6672 26.7247 24.1149 27.277 24.1149H28.3325C28.8848 24.1149 29.3325 23.6672 29.3325 23.1149V19.6149C29.3325 19.0626 28.8848 18.6149 28.3325 18.6149H27.277Z" stroke-width="0"/>
    </g>
  </symbol>
  <symbol  xmlns="http://www.w3.org/2000/svg" viewBox="0 0 44 44" id="chairs" fill="none">
    <g id="02.Icons/Catalog/Стільці">
      <path id="Vector 1" d="M29.7769 13.4592C29.7014 13.4671 29.6305 13.4706 29.5667 13.4706C25.3086 13.4706 16.4441 13.4706 15.0505 13.4706C13.657 13.4706 13.3086 12.5883 13.3086 12C13.3086 11.804 13.3086 10.9412 13.3086 9.05882C13.3086 7.73723 13.9418 7 15.3409 7C19.7925 7.00002 28.6957 7.00004 29.857 7C31.0183 6.99996 31.3086 8.27453 31.3086 8.76475C31.3086 9.35299 31.3086 10.8236 31.3086 12C31.3086 13.0472 30.3886 13.3953 29.7769 13.4592ZM29.7769 13.4592L29.9116 16.4006L30.7279 35.5294C30.7279 36.1176 30.7279 37 29.5667 37C28.6957 37 28.4054 36.4118 28.4054 36.1176C28.332 34.9029 28.2363 33.3585 28.1305 31.7059M14.7602 13.4706L14.2565 33.4831L14.1796 35.8235C14.1796 36.2157 14.3538 36.7059 15.0505 36.7059C15.9215 36.7059 16.2118 36.4118 16.2118 35.8235C16.2118 35.7076 16.3321 34.0229 16.5015 31.7059M16.641 29.8064C16.8842 26.5044 17.1779 22.5619 17.3731 19.9412C17.3731 19.3529 17.6634 18.1765 18.8247 18.1765C19.986 18.1765 23.9538 18.1765 25.7925 18.1765C26.1796 18.1765 27.0118 18.5294 27.2441 19.9412C27.3955 20.8616 27.7197 25.4163 28.0075 29.8064M16.641 29.8064H28.0075M16.641 29.8064C16.5921 30.4708 16.5452 31.1093 16.5015 31.7059M28.0075 29.8064C28.0495 30.447 28.0907 31.0841 28.1305 31.7059M16.5015 31.7059H28.1305"  stroke-width="1.5"></path>
    </g>
  </symbol>
  <symbol  xmlns="http://www.w3.org/2000/svg" viewBox="0 0 44 44" id="decor" fill="none">
    <g id="02.Icons/Catalog/Декор">
      <path id="Vector" d="M23.285 28.0985V28.8748L24.037 29.0673C25.5834 29.4632 26.9814 30.3118 28.0549 31.5083C29.1286 32.7049 29.8298 34.1961 30.0693 35.7957L30.0702 35.8019C30.0742 35.8276 30.0727 35.8538 30.0657 35.8787C30.0588 35.9035 30.0468 35.9257 30.0313 35.9441C30.0158 35.9625 29.9971 35.9766 29.977 35.9859C29.9572 35.9952 29.9361 35.9999 29.915 36C29.9148 36 29.9146 36 29.9144 36H14.105C14.1048 36 14.1046 36 14.1044 36C14.0833 35.9999 14.0622 35.9952 14.0424 35.9859C14.0223 35.9766 14.0036 35.9625 13.9881 35.9442C13.9726 35.9257 13.9606 35.9035 13.9537 35.8787C13.9467 35.8538 13.9452 35.8276 13.9492 35.8019L13.9492 35.8019L13.9502 35.7949C14.1882 34.1971 14.8868 32.7069 15.9574 31.5101C17.0279 30.3134 18.4225 29.4633 19.9663 29.0644L20.7161 28.8707V28.0962V24.309C20.7161 24.2649 20.7336 24.2247 20.7614 24.1966C20.7889 24.1688 20.824 24.1551 20.8584 24.1551H23.1428C23.1772 24.1551 23.2122 24.1688 23.2397 24.1966C23.2675 24.2247 23.285 24.2649 23.285 24.309V28.0985ZM28.2725 8.08226L28.2725 8.08227L28.2751 8.08746L33.9836 19.6216C33.9838 19.6221 33.984 19.6226 33.9843 19.6231C33.9956 19.6469 34.0011 19.6738 33.9998 19.7011C33.9985 19.729 33.9902 19.7555 33.9764 19.778C33.9627 19.8005 33.9442 19.818 33.9237 19.8296L34.4178 20.699L33.9237 19.8296C33.9038 19.841 33.8821 19.8468 33.8605 19.8472H31.1382H30.1382V20.8472V24.309C30.1382 24.3531 30.1208 24.3934 30.093 24.4215C30.0655 24.4492 30.0304 24.463 29.996 24.463C29.9616 24.463 29.9265 24.4492 29.899 24.4215L29.1883 25.125L29.899 24.4215C29.8712 24.3934 29.8538 24.3531 29.8538 24.309V20.8472V19.8472H28.8538H10.1399C10.1181 19.8468 10.0963 19.841 10.0762 19.8296C10.0556 19.8178 10.0371 19.8003 10.0233 19.7777C10.0096 19.755 10.0013 19.7283 10.0001 19.7003C9.99896 19.6723 10.0049 19.6448 10.0169 19.6207L10.0173 19.6199L15.7279 8.08132C15.728 8.08125 15.728 8.08119 15.728 8.08112C15.741 8.05497 15.7603 8.0344 15.7823 8.02061C15.8042 8.00695 15.8284 8.00014 15.8525 8H28.1479C28.172 8.00022 28.1963 8.00712 28.2181 8.0209C28.2403 8.03489 28.2596 8.05577 28.2725 8.08226Z"  stroke-width="2"></path>
    </g>
  </symbol>
  <symbol xmlns="http://www.w3.org/2000/svg" viewBox="0 0 44 44" id="dressers" fill="none">
    <g clip-path="url(#clip0_1755_4643)">
      <mask id="mask0_1755_4643" style="mask-type:luminance" maskUnits="userSpaceOnUse" x="0" y="7" width="44" height="30">
      <path d="M44 7H0V37H44V7Z" fill="white"/>
      </mask>
      <g mask="url(#mask0_1755_4643)">
        <path d="M20.0018 29.5304V29.5317M20.0018 29.5317C20.0025 30.6347 20.8774 31.5665 22.0071 31.5665C23.1387 31.5665 24.0124 30.6335 24.0124 29.5304C24.0124 28.4314 23.14 27.4944 22.0071 27.4944C20.8742 27.4944 20.0005 28.4998 20.0018 29.5317ZM2.87199 7.87891H40.6891C41.3831 7.87891 42.0005 8.55579 42.0005 9.17891C42.0005 9.80158 41.3836 10.478 40.6891 10.478C39.9267 10.478 39.3086 11.0961 39.3086 11.8585V13.778C39.3086 14.3855 38.8161 14.878 38.2086 14.878H5.40615C4.79864 14.878 4.30615 14.3855 4.30615 13.778V11.9122C4.30615 11.1201 3.66405 10.478 2.87199 10.478C2.17815 10.478 1.56055 9.80134 1.56055 9.17891C1.56055 8.55602 2.1786 7.87891 2.87199 7.87891ZM19.7752 12.4595C19.7752 13.5595 20.6485 14.4965 21.7805 14.4965C22.9138 14.4965 23.7858 13.559 23.7858 12.4595C23.7858 11.3601 22.9138 10.4226 21.7805 10.4226C20.6485 10.4226 19.7752 11.3596 19.7752 12.4595ZM5.40615 23.6772C4.79864 23.6772 4.30615 23.1848 4.30615 22.5772V19.539C4.30615 18.9315 4.79864 18.439 5.40615 18.439H38.2086C38.8161 18.439 39.3086 18.9315 39.3086 19.539V22.5772C39.3086 23.1848 38.8161 23.6772 38.2086 23.6772H5.40615ZM24.0124 21.005C24.0124 19.9046 23.1395 18.9689 22.0071 18.9689C20.8747 18.9689 20.0011 19.9056 20.0018 21.0063C20.0025 22.107 20.876 23.042 22.0071 23.042C23.14 23.042 24.0124 22.1058 24.0124 21.005ZM4.30615 35.7629V30.6466V28.339C4.30615 27.7315 4.79864 27.239 5.40615 27.239H38.2077C38.8152 27.239 39.3077 27.7315 39.3077 28.339V35.7629C39.3077 35.8578 39.3038 35.9362 39.297 35.9999H35.1383C35.1262 35.942 35.1176 35.8632 35.1176 35.7629V34.4981C35.1176 32.8965 33.8192 31.5981 32.2176 31.5981H11.3972C9.79553 31.5981 8.49719 32.8965 8.49719 34.4981V35.7629C8.49719 35.8547 8.4869 35.9265 8.4736 35.9776C8.47148 35.9858 8.46935 35.9933 8.46727 35.9999H4.31248C4.30819 35.9341 4.30615 35.8561 4.30615 35.7629Z" stroke-width="1.8" stroke-linejoin="round"/>
      </g>
    </g>
    <defs>
      <clipPath id="clip0_1755_4643">
        <rect width="44" height="30" fill="white" transform="translate(0 7)"/>
      </clipPath>
    </defs>
  </symbol>
  <symbol  xmlns="http://www.w3.org/2000/svg" viewBox="0 0 44 44" id="sofas" fill="none">
    <g id="Property 1=Default">
      <g id="Group">
        <path id="Vector" d="M3.66602 29.3337V34.8337M21.9993 23.8337V12.8337C21.9993 11.8612 22.3857 10.9286 23.0733 10.2409C23.7609 9.5533 24.6936 9.16699 25.666 9.16699H32.9993C33.9718 9.16699 34.9044 9.5533 35.5921 10.2409C36.2797 10.9286 36.666 11.8612 36.666 12.8337V16.5003M21.9993 23.8337V12.8337C21.9993 11.8612 21.613 10.9286 20.9254 10.2409C20.2378 9.5533 19.3051 9.16699 18.3327 9.16699H10.9993C10.0269 9.16699 9.09426 9.5533 8.40662 10.2409C7.71899 10.9286 7.33268 11.8612 7.33268 12.8337V16.5003"  stroke-width="2" stroke-linecap="round" stroke-linejoin="round"></path>
        <path id="Vector_2" d="M40.3327 29.3333V34.8333M36.666 16.5C35.6936 16.5 34.7609 16.8863 34.0733 17.5739C33.3857 18.2616 32.9994 19.1942 32.9994 20.1667V23.8333H10.9994V20.1667C10.9994 19.1942 10.613 18.2616 9.92541 17.5739C9.23778 16.8863 8.30515 16.5 7.33268 16.5C6.36022 16.5 5.42759 16.8863 4.73996 17.5739C4.05232 18.2616 3.66602 19.1942 3.66602 20.1667V31.1667H40.3327V20.1667C40.3327 19.1942 39.9464 18.2616 39.2588 17.5739C38.5711 16.8863 37.6385 16.5 36.666 16.5Z"  stroke-width="2" stroke-linecap="round" stroke-linejoin="round"></path>
      </g>
    </g>
  </symbol>
  <symbol  xmlns="http://www.w3.org/2000/svg" viewBox="0 0 44 44" id="tables">
    <g id="02.Icons/Catalog/Столи">
      <path id="Vector" d="M3.66699 14.4044C3.66699 13.5366 4.37055 12.833 5.23842 12.833H38.7622C39.6301 12.833 40.3337 13.5366 40.3337 14.4044C40.3337 15.2723 39.6301 15.9759 38.7622 15.9759H34.048L37.2054 33.4633C37.3342 34.1768 36.7859 34.833 36.0608 34.833C35.5012 34.833 35.0208 34.4344 34.9177 33.8843L33.0443 23.893C32.867 22.9471 32.041 22.2616 31.0786 22.2616H12.9221C11.9597 22.2616 11.1337 22.9471 10.9563 23.893L9.06321 33.9897C8.97153 34.4787 8.54458 34.833 8.04708 34.833C7.40257 34.833 6.91517 34.2497 7.02968 33.6155L10.2146 15.9759H5.23842C4.37055 15.9759 3.66699 15.2723 3.66699 14.4044ZM31.9463 17.6792C31.7995 16.7001 30.9584 15.9759 29.9684 15.9759H13.8579C12.8304 15.9759 11.9701 16.7545 11.8678 17.7769L11.6341 20.1145C11.5752 20.7031 12.0375 21.214 12.6291 21.214H31.3153C31.9267 21.214 32.395 20.6702 32.3043 20.0656L31.9463 17.6792Z" stroke-width="0"></path>
    </g>
  </symbol>
  <symbol  xmlns="http://www.w3.org/2000/svg" viewBox="0 0 44 44" id="arm-chairs" fill="none">
    <g id="02.Icons/Catalog/Крісла">
      <g id="Group">
        <path id="Vector" d="M7.33301 33V38.5M9.16634 18.3333V9.16667C9.16634 8.19421 9.55265 7.26158 10.2403 6.57394C10.9279 5.88631 11.8605 5.5 12.833 5.5H31.1663C32.1388 5.5 33.0714 5.88631 33.7591 6.57394C34.4467 7.26158 34.833 8.19421 34.833 9.16667V18.3333"  stroke-width="2" stroke-linecap="round" stroke-linejoin="round"></path>
        <path id="Vector_2" d="M36.666 32.9997V38.4997M35.7493 18.333C34.5338 18.333 33.368 18.8159 32.5084 19.6754C31.6489 20.535 31.166 21.7008 31.166 22.9163V25.6663H12.8327V22.9163C12.8325 22.0491 12.5863 21.1998 12.1227 20.4669C11.6591 19.7341 10.9971 19.1478 10.2135 18.7762C9.43 18.4045 8.55712 18.2628 7.69626 18.3674C6.83541 18.4721 6.0219 18.8188 5.35023 19.3673C4.67856 19.9159 4.17629 20.6437 3.90176 21.4663C3.62722 22.2889 3.59168 23.1725 3.79928 24.0145C4.00687 24.8564 4.44907 25.6222 5.07452 26.2229C5.69997 26.8236 6.48301 27.2346 7.33268 27.408V32.9997H36.666V27.408C37.7799 27.1818 38.77 26.5498 39.4441 25.6347C40.1183 24.7196 40.4283 23.5866 40.3141 22.4557C40.1998 21.3249 39.6695 20.2768 38.826 19.5149C37.9825 18.7531 36.886 18.3319 35.7493 18.333V18.333Z"  stroke-width="2" stroke-linecap="round" stroke-linejoin="round"></path>
      </g>
    </g>
  </symbol>
</svg>