<svg width="44" height="44" viewBox="0 0 44 44" fill="none" xmlns="http://www.w3.org/2000/svg">
<g id="02.Icons/Catalog/&#208;&#161;&#209;&#130;&#209;&#150;&#208;&#187;&#209;&#140;&#209;&#134;&#209;&#150;">
<path id="Vector 1" d="M29.7769 13.4592C29.7014 13.4671 29.6305 13.4706 29.5667 13.4706C25.3086 13.4706 16.4441 13.4706 15.0505 13.4706C13.657 13.4706 13.3086 12.5883 13.3086 12C13.3086 11.804 13.3086 10.9412 13.3086 9.05882C13.3086 7.73723 13.9418 7 15.3409 7C19.7925 7.00002 28.6957 7.00004 29.857 7C31.0183 6.99996 31.3086 8.27453 31.3086 8.76475C31.3086 9.35299 31.3086 10.8236 31.3086 12C31.3086 13.0472 30.3886 13.3953 29.7769 13.4592ZM29.7769 13.4592L29.9116 16.4006L30.7279 35.5294C30.7279 36.1176 30.7279 37 29.5667 37C28.6957 37 28.4054 36.4118 28.4054 36.1176C28.332 34.9029 28.2363 33.3585 28.1305 31.7059M14.7602 13.4706L14.2565 33.4831L14.1796 35.8235C14.1796 36.2157 14.3538 36.7059 15.0505 36.7059C15.9215 36.7059 16.2118 36.4118 16.2118 35.8235C16.2118 35.7076 16.3321 34.0229 16.5015 31.7059M16.641 29.8064C16.8842 26.5044 17.1779 22.5619 17.3731 19.9412C17.3731 19.3529 17.6634 18.1765 18.8247 18.1765C19.986 18.1765 23.9538 18.1765 25.7925 18.1765C26.1796 18.1765 27.0118 18.5294 27.2441 19.9412C27.3955 20.8616 27.7197 25.4163 28.0075 29.8064M16.641 29.8064H28.0075M16.641 29.8064C16.5921 30.4708 16.5452 31.1093 16.5015 31.7059M28.0075 29.8064C28.0495 30.447 28.0907 31.0841 28.1305 31.7059M16.5015 31.7059H28.1305" stroke="#A3A3A3" stroke-width="1.5"/>
</g>
</svg>
