<svg width="44" height="44" viewBox="0 0 44 44" fill="none" xmlns="http://www.w3.org/2000/svg">
<g id="02.Icons/Catalog/&#208;&#148;&#208;&#181;&#208;&#186;&#208;&#190;&#209;&#128;">
<path id="Vector" d="M23.285 28.0985V28.8748L24.037 29.0673C25.5834 29.4632 26.9814 30.3118 28.0549 31.5083C29.1286 32.7049 29.8298 34.1961 30.0693 35.7957L30.0702 35.8019C30.0742 35.8276 30.0727 35.8538 30.0657 35.8787C30.0588 35.9035 30.0468 35.9257 30.0313 35.9441C30.0158 35.9625 29.9971 35.9766 29.977 35.9859C29.9572 35.9952 29.9361 35.9999 29.915 36C29.9148 36 29.9146 36 29.9144 36H14.105C14.1048 36 14.1046 36 14.1044 36C14.0833 35.9999 14.0622 35.9952 14.0424 35.9859C14.0223 35.9766 14.0036 35.9625 13.9881 35.9442C13.9726 35.9257 13.9606 35.9035 13.9537 35.8787C13.9467 35.8538 13.9452 35.8276 13.9492 35.8019L13.9492 35.8019L13.9502 35.7949C14.1882 34.1971 14.8868 32.7069 15.9574 31.5101C17.0279 30.3134 18.4225 29.4633 19.9663 29.0644L20.7161 28.8707V28.0962V24.309C20.7161 24.2649 20.7336 24.2247 20.7614 24.1966C20.7889 24.1688 20.824 24.1551 20.8584 24.1551H23.1428C23.1772 24.1551 23.2122 24.1688 23.2397 24.1966C23.2675 24.2247 23.285 24.2649 23.285 24.309V28.0985ZM28.2725 8.08226L28.2725 8.08227L28.2751 8.08746L33.9836 19.6216C33.9838 19.6221 33.984 19.6226 33.9843 19.6231C33.9956 19.6469 34.0011 19.6738 33.9998 19.7011C33.9985 19.729 33.9902 19.7555 33.9764 19.778C33.9627 19.8005 33.9442 19.818 33.9237 19.8296L34.4178 20.699L33.9237 19.8296C33.9038 19.841 33.8821 19.8468 33.8605 19.8472H31.1382H30.1382V20.8472V24.309C30.1382 24.3531 30.1208 24.3934 30.093 24.4215C30.0655 24.4492 30.0304 24.463 29.996 24.463C29.9616 24.463 29.9265 24.4492 29.899 24.4215L29.1883 25.125L29.899 24.4215C29.8712 24.3934 29.8538 24.3531 29.8538 24.309V20.8472V19.8472H28.8538H10.1399C10.1181 19.8468 10.0963 19.841 10.0762 19.8296C10.0556 19.8178 10.0371 19.8003 10.0233 19.7777C10.0096 19.755 10.0013 19.7283 10.0001 19.7003C9.99896 19.6723 10.0049 19.6448 10.0169 19.6207L10.0173 19.6199L15.7279 8.08132C15.728 8.08125 15.728 8.08119 15.728 8.08112C15.741 8.05497 15.7603 8.0344 15.7823 8.02061C15.8042 8.00695 15.8284 8.00014 15.8525 8H28.1479C28.172 8.00022 28.1963 8.00712 28.2181 8.0209C28.2403 8.03489 28.2596 8.05577 28.2725 8.08226Z" stroke="#A3A3A3" stroke-width="2"/>
</g>
</svg>
