<svg width="44" height="44" viewBox="0 0 44 44" fill="none" xmlns="http://www.w3.org/2000/svg">
<g clip-path="url(#clip0_1755_4643)">
<mask id="mask0_1755_4643" style="mask-type:luminance" maskUnits="userSpaceOnUse" x="0" y="7" width="44" height="30">
<path d="M44 7H0V37H44V7Z" fill="white"/>
</mask>
<g mask="url(#mask0_1755_4643)">
<path d="M20.0018 29.5304V29.5317M20.0018 29.5317C20.0025 30.6347 20.8774 31.5665 22.0071 31.5665C23.1387 31.5665 24.0124 30.6335 24.0124 29.5304C24.0124 28.4314 23.14 27.4944 22.0071 27.4944C20.8742 27.4944 20.0005 28.4998 20.0018 29.5317ZM2.87199 7.87891H40.6891C41.3831 7.87891 42.0005 8.55579 42.0005 9.17891C42.0005 9.80158 41.3836 10.478 40.6891 10.478C39.9267 10.478 39.3086 11.0961 39.3086 11.8585V13.778C39.3086 14.3855 38.8161 14.878 38.2086 14.878H5.40615C4.79864 14.878 4.30615 14.3855 4.30615 13.778V11.9122C4.30615 11.1201 3.66405 10.478 2.87199 10.478C2.17815 10.478 1.56055 9.80134 1.56055 9.17891C1.56055 8.55602 2.1786 7.87891 2.87199 7.87891ZM19.7752 12.4595C19.7752 13.5595 20.6485 14.4965 21.7805 14.4965C22.9138 14.4965 23.7858 13.559 23.7858 12.4595C23.7858 11.3601 22.9138 10.4226 21.7805 10.4226C20.6485 10.4226 19.7752 11.3596 19.7752 12.4595ZM5.40615 23.6772C4.79864 23.6772 4.30615 23.1848 4.30615 22.5772V19.539C4.30615 18.9315 4.79864 18.439 5.40615 18.439H38.2086C38.8161 18.439 39.3086 18.9315 39.3086 19.539V22.5772C39.3086 23.1848 38.8161 23.6772 38.2086 23.6772H5.40615ZM24.0124 21.005C24.0124 19.9046 23.1395 18.9689 22.0071 18.9689C20.8747 18.9689 20.0011 19.9056 20.0018 21.0063C20.0025 22.107 20.876 23.042 22.0071 23.042C23.14 23.042 24.0124 22.1058 24.0124 21.005ZM4.30615 35.7629V30.6466V28.339C4.30615 27.7315 4.79864 27.239 5.40615 27.239H38.2077C38.8152 27.239 39.3077 27.7315 39.3077 28.339V35.7629C39.3077 35.8578 39.3038 35.9362 39.297 35.9999H35.1383C35.1262 35.942 35.1176 35.8632 35.1176 35.7629V34.4981C35.1176 32.8965 33.8192 31.5981 32.2176 31.5981H11.3972C9.79553 31.5981 8.49719 32.8965 8.49719 34.4981V35.7629C8.49719 35.8547 8.4869 35.9265 8.4736 35.9776C8.47148 35.9858 8.46935 35.9933 8.46727 35.9999H4.31248C4.30819 35.9341 4.30615 35.8561 4.30615 35.7629Z" stroke="#A3A3A3" stroke-width="1.8" stroke-linejoin="round"/>
</g>
</g>
<defs>
<clipPath id="clip0_1755_4643">
<rect width="44" height="30" fill="white" transform="translate(0 7)"/>
</clipPath>
</defs>
</svg>
