<svg width="44" height="44" viewBox="0 0 44 44" fill="none" xmlns="http://www.w3.org/2000/svg">
<g id="02.Icons/Catalog/&#208;&#148;&#208;&#184;&#208;&#178;&#208;&#176;&#208;&#189;&#208;&#184;">
<path id="Vector" d="M3.09816 7.9H40.9153C41.6093 7.9 42.2267 8.57688 42.2267 9.2C42.2267 9.82267 41.6098 10.4991 40.9153 10.4991C40.1529 10.4991 39.5348 11.1172 39.5348 11.8796V13.7991C39.5348 14.4066 39.0423 14.8991 38.4348 14.8991H5.63232C5.02481 14.8991 4.53232 14.4066 4.53232 13.7991V11.9333C4.53232 11.1412 3.89022 10.4991 3.09816 10.4991C2.40432 10.4991 1.78672 9.82243 1.78672 9.2C1.78672 8.57711 2.40477 7.9 3.09816 7.9ZM20.0014 12.4806C20.0014 13.5806 20.8747 14.5176 22.0067 14.5176C23.14 14.5176 24.012 13.5801 24.012 12.4806C24.012 11.3812 23.14 10.4437 22.0067 10.4437C20.8747 10.4437 20.0014 11.3807 20.0014 12.4806ZM5.63232 23.6982C5.02481 23.6982 4.53232 23.2058 4.53232 22.5982V19.56C4.53232 18.9525 5.02481 18.46 5.63232 18.46H38.4348C39.0423 18.46 39.5348 18.9525 39.5348 19.56V22.5982C39.5348 23.2058 39.0423 23.6982 38.4348 23.6982H5.63232ZM24.012 21.0052C24.012 19.9048 23.1391 18.9691 22.0067 18.9691L20.9014 21.0052H20.0014C20.0014 21.0056 20.0014 21.006 20.0014 21.0065C20.0021 22.1072 20.8756 23.0422 22.0067 23.0422C23.1396 23.0422 24.012 22.106 24.012 21.0052ZM4.53232 35.7839V30.6676V28.36C4.53232 27.7525 5.02481 27.26 5.63232 27.26H38.4339C39.0414 27.26 39.5339 27.7525 39.5339 28.36V35.7839C39.5339 35.8788 39.53 35.9572 39.5232 36.0209H35.3645C35.3524 35.963 35.3438 35.8842 35.3438 35.7839V34.5191C35.3438 32.9175 34.0454 31.6191 32.4438 31.6191H11.6234C10.0217 31.6191 8.72336 32.9175 8.72336 34.5191V35.7839C8.72336 35.8757 8.71307 35.9476 8.69977 35.9987C8.69765 36.0069 8.69552 36.0143 8.69344 36.0209H4.53865C4.53436 35.9551 4.53232 35.8771 4.53232 35.7839ZM24.012 29.5306C24.012 28.4316 23.1396 27.4946 22.0067 27.4946L20.9014 29.5306H20.0014C20.0014 29.5311 20.0014 29.5315 20.0014 29.5319C20.0021 30.6349 20.877 31.5667 22.0067 31.5667C23.1383 31.5667 24.012 30.6337 24.012 29.5306Z" stroke="#A3A3A3" stroke-width="1.8" stroke-linejoin="round"/>
</g>
</svg>
