<svg width="44" height="44" viewBox="0 0 44 44" fill="none" xmlns="http://www.w3.org/2000/svg">
<g id="Property 1=Default">
<g id="Group">
<path id="Vector" d="M3.66602 29.3337V34.8337M21.9993 23.8337V12.8337C21.9993 11.8612 22.3857 10.9286 23.0733 10.2409C23.7609 9.5533 24.6936 9.16699 25.666 9.16699H32.9993C33.9718 9.16699 34.9044 9.5533 35.5921 10.2409C36.2797 10.9286 36.666 11.8612 36.666 12.8337V16.5003M21.9993 23.8337V12.8337C21.9993 11.8612 21.613 10.9286 20.9254 10.2409C20.2378 9.5533 19.3051 9.16699 18.3327 9.16699H10.9993C10.0269 9.16699 9.09426 9.5533 8.40662 10.2409C7.71899 10.9286 7.33268 11.8612 7.33268 12.8337V16.5003" stroke="#A3A3A3" stroke-width="2" stroke-linecap="round" stroke-linejoin="round"/>
<path id="Vector_2" d="M40.3327 29.3333V34.8333M36.666 16.5C35.6936 16.5 34.7609 16.8863 34.0733 17.5739C33.3857 18.2616 32.9994 19.1942 32.9994 20.1667V23.8333H10.9994V20.1667C10.9994 19.1942 10.613 18.2616 9.92541 17.5739C9.23778 16.8863 8.30515 16.5 7.33268 16.5C6.36022 16.5 5.42759 16.8863 4.73996 17.5739C4.05232 18.2616 3.66602 19.1942 3.66602 20.1667V31.1667H40.3327V20.1667C40.3327 19.1942 39.9464 18.2616 39.2588 17.5739C38.5711 16.8863 37.6385 16.5 36.666 16.5Z" stroke="#A3A3A3" stroke-width="2" stroke-linecap="round" stroke-linejoin="round"/>
</g>
</g>
</svg>
