<svg width="44" height="44" viewBox="0 0 44 44" fill="none" xmlns="http://www.w3.org/2000/svg">
<g id="02.Icons/Catalog/&#208;&#161;&#209;&#130;&#208;&#190;&#208;&#187;&#208;&#184;">
<path id="Vector" d="M3.66699 14.4044C3.66699 13.5366 4.37055 12.833 5.23842 12.833H38.7622C39.6301 12.833 40.3337 13.5366 40.3337 14.4044C40.3337 15.2723 39.6301 15.9759 38.7622 15.9759H34.048L37.2054 33.4633C37.3342 34.1768 36.7859 34.833 36.0608 34.833C35.5012 34.833 35.0208 34.4344 34.9177 33.8843L33.0443 23.893C32.867 22.9471 32.041 22.2616 31.0786 22.2616H12.9221C11.9597 22.2616 11.1337 22.9471 10.9563 23.893L9.06321 33.9897C8.97153 34.4787 8.54458 34.833 8.04708 34.833C7.40257 34.833 6.91517 34.2497 7.02968 33.6155L10.2146 15.9759H5.23842C4.37055 15.9759 3.66699 15.2723 3.66699 14.4044ZM31.9463 17.6792C31.7995 16.7001 30.9584 15.9759 29.9684 15.9759H13.8579C12.8304 15.9759 11.9701 16.7545 11.8678 17.7769L11.6341 20.1145C11.5752 20.7031 12.0375 21.214 12.6291 21.214H31.3153C31.9267 21.214 32.395 20.6702 32.3043 20.0656L31.9463 17.6792Z" fill="#A3A3A3"/>
</g>
</svg>
