<svg width="56" height="56" viewBox="0 0 56 56" fill="none" xmlns="http://www.w3.org/2000/svg">
<circle opacity="0.5" cx="25" cy="25" r="25" fill="#C57100"/>
<path d="M35.8148 30.031C41.6617 30.031 45.9877 31.1746 48.7926 33.462C51.5975 35.7099 53 38.7859 53 42.6901C53 45.1746 52.3877 47.4225 51.163 49.4338C49.9383 51.4451 48.1012 53.0423 45.6519 54.2253C43.2025 55.4085 40.1802 56 36.5852 56C33.6222 56 30.758 55.5859 27.9926 54.7578C25.2272 53.8901 22.8963 52.707 21 51.2085L24.2593 45.2338C25.8 46.4958 27.637 47.5014 29.7704 48.2507C31.9432 48.9606 34.1753 49.3155 36.4667 49.3155C39.1926 49.3155 41.3259 48.7634 42.8667 47.6592C44.4469 46.5155 45.237 44.9577 45.237 42.9859C45.237 40.8563 44.3877 39.2592 42.6889 38.1944C41.0296 37.0901 38.1654 36.538 34.0963 36.538H24.0815L26.2148 14H50.5704V20.4479H32.7333L31.8444 30.031H35.8148Z" fill="#262626"/>
</svg>
