<svg width="0" height="0" class="hidden">
  <symbol fill="none" xmlns="http://www.w3.org/2000/svg" viewBox="0 0 56 56" id="five-icon">
    <circle opacity="0.5" cx="25" cy="25" r="25" fill="#C57100"></circle>
    <path d="M35.8148 30.031C41.6617 30.031 45.9877 31.1746 48.7926 33.462C51.5975 35.7099 53 38.7859 53 42.6901C53 45.1746 52.3877 47.4225 51.163 49.4338C49.9383 51.4451 48.1012 53.0423 45.6519 54.2253C43.2025 55.4085 40.1802 56 36.5852 56C33.6222 56 30.758 55.5859 27.9926 54.7578C25.2272 53.8901 22.8963 52.707 21 51.2085L24.2593 45.2338C25.8 46.4958 27.637 47.5014 29.7704 48.2507C31.9432 48.9606 34.1753 49.3155 36.4667 49.3155C39.1926 49.3155 41.3259 48.7634 42.8667 47.6592C44.4469 46.5155 45.237 44.9577 45.237 42.9859C45.237 40.8563 44.3877 39.2592 42.6889 38.1944C41.0296 37.0901 38.1654 36.538 34.0963 36.538H24.0815L26.2148 14H50.5704V20.4479H32.7333L31.8444 30.031H35.8148Z" fill="#262626"></path>
  </symbol>
  <symbol fill="none" xmlns="http://www.w3.org/2000/svg" viewBox="0 0 56 56" id="fourteen-icon">
    <circle opacity="0.5" cx="25" cy="25" r="25" fill="#C57100"></circle>
    <path d="M19.3544 15V49H13.1095V20.2943H6V15H19.3544Z" fill="#262626"></path>
    <path d="M56 41.2771H50.0434V49H43.9907V41.2771H25.5444V36.9057L42.1172 15H48.7944L33.1823 35.9343H44.1828V29.0857H50.0434V35.9343H56V41.2771Z" fill="#262626"></path>
  </symbol>
  <symbol fill="none" xmlns="http://www.w3.org/2000/svg" viewBox="0 0 56 56" id="seven-icon">
    <circle opacity="0.5" cx="25" cy="25" r="25" fill="#C57100"></circle>
    <path d="M54 14V19.22L37.5 56H29.068L45.0221 20.6H28.3401V27.74H21V14H54Z" fill="#262626"></path>
  </symbol>
  <symbol fill="none" xmlns="http://www.w3.org/2000/svg" viewBox="0 0 56 56" id="zero-icon">
    <circle opacity="0.5" cx="25" cy="25" r="25" fill="#C57100"></circle>
    <path d="M34.9709 55C31.7162 55 28.8103 54.1833 26.253 52.55C23.6957 50.8778 21.6809 48.4667 20.2085 45.3167C18.7362 42.1278 18 38.3556 18 34C18 29.6444 18.7362 25.8917 20.2085 22.7417C21.6809 19.5528 23.6957 17.1417 26.253 15.5083C28.8103 13.8361 31.7162 13 34.9709 13C38.2256 13 41.1316 13.8361 43.6889 15.5083C46.2849 17.1417 48.3191 19.5528 49.7915 22.7417C51.2638 25.8917 52 29.6444 52 34C52 38.3556 51.2638 42.1278 49.7915 45.3167C48.3191 48.4667 46.2849 50.8778 43.6889 52.55C41.1316 54.1833 38.2256 55 34.9709 55ZM34.9709 48.4083C37.8769 48.4083 40.163 47.2028 41.8291 44.7917C43.5339 42.3806 44.3863 38.7833 44.3863 34C44.3863 29.2167 43.5339 25.6194 41.8291 23.2083C40.163 20.7972 37.8769 19.5917 34.9709 19.5917C32.1037 19.5917 29.8177 20.7972 28.1128 23.2083C26.4467 25.6194 25.6137 29.2167 25.6137 34C25.6137 38.7833 26.4467 42.3806 28.1128 44.7917C29.8177 47.2028 32.1037 48.4083 34.9709 48.4083Z" fill="#262626"></path>
  </symbol>
</svg>