<svg width="56" height="56" viewBox="0 0 56 56" fill="none" xmlns="http://www.w3.org/2000/svg">
<circle opacity="0.5" cx="25" cy="25" r="25" fill="#C57100"/>
<path d="M34.9709 55C31.7162 55 28.8103 54.1833 26.253 52.55C23.6957 50.8778 21.6809 48.4667 20.2085 45.3167C18.7362 42.1278 18 38.3556 18 34C18 29.6444 18.7362 25.8917 20.2085 22.7417C21.6809 19.5528 23.6957 17.1417 26.253 15.5083C28.8103 13.8361 31.7162 13 34.9709 13C38.2256 13 41.1316 13.8361 43.6889 15.5083C46.2849 17.1417 48.3191 19.5528 49.7915 22.7417C51.2638 25.8917 52 29.6444 52 34C52 38.3556 51.2638 42.1278 49.7915 45.3167C48.3191 48.4667 46.2849 50.8778 43.6889 52.55C41.1316 54.1833 38.2256 55 34.9709 55ZM34.9709 48.4083C37.8769 48.4083 40.163 47.2028 41.8291 44.7917C43.5339 42.3806 44.3863 38.7833 44.3863 34C44.3863 29.2167 43.5339 25.6194 41.8291 23.2083C40.163 20.7972 37.8769 19.5917 34.9709 19.5917C32.1037 19.5917 29.8177 20.7972 28.1128 23.2083C26.4467 25.6194 25.6137 29.2167 25.6137 34C25.6137 38.7833 26.4467 42.3806 28.1128 44.7917C29.8177 47.2028 32.1037 48.4083 34.9709 48.4083Z" fill="#262626"/>
</svg>
